<svg width="58" height="52" viewBox="0 0 58 52" fill="none" xmlns="http://www.w3.org/2000/svg">
<path d="M21.7742 32.4595C26.1088 35.0178 31.4987 35.0178 35.8333 32.4595M47.6151 38.5478C47.6151 40.2786 46.2107 41.683 44.4798 41.683H27.2399C26.8224 41.683 26.4276 41.85 26.1316 42.1385L19.4057 48.8644V43.2468C19.4057 42.3814 18.7073 41.683 17.8418 41.683H13.1352C11.4044 41.683 10 40.2786 10 38.5478V16.6088C10 14.878 11.4044 13.4736 13.1352 13.4736H44.4798C46.2107 13.4736 47.6151 14.878 47.6151 16.6088V38.5478Z" stroke="#8512E0" stroke-width="2" stroke-miterlimit="10" stroke-linecap="round"/>
<path d="M19.4067 29.1497C21.1382 29.1497 22.5419 27.746 22.5419 26.0145C22.5419 24.283 21.1382 22.8793 19.4067 22.8793C17.6752 22.8793 16.2715 24.283 16.2715 26.0145C16.2715 27.746 17.6752 29.1497 19.4067 29.1497Z" fill="#8512E0"/>
<path d="M38.2094 29.1497C39.941 29.1497 41.3447 27.746 41.3447 26.0145C41.3447 24.283 39.941 22.8793 38.2094 22.8793C36.4779 22.8793 35.0742 24.283 35.0742 26.0145C35.0742 27.746 36.4779 29.1497 38.2094 29.1497Z" fill="#8512E0"/>
<path d="M28.8032 7.13483C30.5347 7.13483 31.9384 5.73114 31.9384 3.9996C31.9384 2.26807 30.5347 0.86438 28.8032 0.86438C27.0717 0.86438 25.668 2.26807 25.668 3.9996C25.668 5.73114 27.0717 7.13483 28.8032 7.13483Z" fill="#8512E0"/>
<path d="M28.8027 3.52893V13.3977" stroke="#8512E0" stroke-width="2" stroke-miterlimit="10" stroke-linecap="round"/>
</svg>
