<svg width="42" height="51" viewBox="0 0 42 51" fill="none" xmlns="http://www.w3.org/2000/svg">
<path d="M20.5812 49.8644C31.3956 49.8644 40.1623 41.0976 40.1623 30.2832C40.1623 19.4688 31.3956 10.702 20.5812 10.702C9.76679 10.702 1 19.4688 1 30.2832C1 41.0976 9.76679 49.8644 20.5812 49.8644Z" stroke="#8512E0" stroke-width="2" stroke-miterlimit="10"/>
<path d="M20.3682 14.8525C28.8953 14.8525 35.7988 21.7702 35.7988 30.2831C35.7988 38.7961 28.8811 45.7137 20.3682 45.7137C16.387 45.7137 12.7447 44.2031 10.0059 41.7184" stroke="#8512E0" stroke-width="2" stroke-miterlimit="10" stroke-linecap="round"/>
<path d="M20.5814 32.9232C22.0394 32.9232 23.2214 31.7412 23.2214 30.2832C23.2214 28.8252 22.0394 27.6432 20.5814 27.6432C19.1234 27.6432 17.9414 28.8252 17.9414 30.2832C17.9414 31.7412 19.1234 32.9232 20.5814 32.9232Z" stroke="#8512E0" stroke-width="2" stroke-miterlimit="10"/>
<path d="M22.8813 1.86438H18.279C17.0548 1.86438 16.0625 2.85357 16.0625 4.07379C16.0625 5.29402 17.0548 6.2832 18.279 6.2832H22.8813C24.1054 6.2832 25.0978 5.29402 25.0978 4.07379C25.0978 2.85357 24.1054 1.86438 22.8813 1.86438Z" stroke="#8512E0" stroke-width="2" stroke-miterlimit="10" stroke-linecap="round"/>
<path d="M20.5801 6.66443V8.92325" stroke="#8512E0" stroke-width="2" stroke-miterlimit="10" stroke-linecap="round"/>
<path d="M31.5669 9.72815L30.4375 11.6905" stroke="#8512E0" stroke-width="2" stroke-miterlimit="10" stroke-linecap="round"/>
<path d="M32.5542 10.2928L30.5918 9.16339" stroke="#8512E0" stroke-width="2" stroke-miterlimit="10" stroke-linecap="round"/>
<path d="M9.58398 9.72815L10.7134 11.6905" stroke="#8512E0" stroke-width="2" stroke-miterlimit="10" stroke-linecap="round"/>
<path d="M8.60938 10.2928L10.5576 9.16339" stroke="#8512E0" stroke-width="2" stroke-miterlimit="10" stroke-linecap="round"/>
<path d="M7.49414 38.5703L17.3765 31.5115" stroke="#8512E0" stroke-width="2" stroke-miterlimit="10" stroke-linecap="round"/>
</svg>
