<svg width="74" height="63" viewBox="0 0 74 63" fill="none" xmlns="http://www.w3.org/2000/svg">
<path d="M38.25 18.8644V8.38749C38.25 4.79382 35.6303 1.86438 32.4167 1.86438H9.08333C5.86967 1.86438 3.25 4.79382 3.25 8.38749V18.8644" stroke="#8512E0" stroke-width="2" stroke-miterlimit="10" stroke-linecap="round"/>
<path d="M3.25 36.0077V46.4846C3.25 50.0782 5.86967 53.0077 9.08333 53.0077H32.4167C35.6303 53.0077 38.25 50.0782 38.25 46.4846V36.0077" stroke="#8512E0" stroke-width="2" stroke-miterlimit="10" stroke-linecap="round"/>
<path d="M1 27.0077H40.4133" stroke="#8512E0" stroke-width="2" stroke-miterlimit="10" stroke-linecap="round"/>
<path d="M60.9385 42.99L55.1326 45.5064L52.2069 51.8581C52.1311 52.0248 51.9795 52.1461 51.7976 52.2219C51.6157 52.2825 51.4035 52.2825 51.2064 52.2219C51.0245 52.1613 50.8729 52.0248 50.7971 51.8581L47.8714 45.5064L42.0655 42.99C41.8988 42.9142 41.7624 42.7929 41.7017 42.6413C41.6411 42.4897 41.6411 42.323 41.7017 42.1714C41.7624 42.0198 41.8988 41.8985 42.0655 41.8227L47.8714 39.3063L50.7971 32.9547C50.8881 32.8031 51.0396 32.6818 51.2216 32.6212C51.4035 32.5605 51.6005 32.5605 51.7824 32.6212C51.9644 32.6818 52.1159 32.8031 52.2069 32.9547L55.1326 39.3063L60.9385 41.8227C61.1052 41.8985 61.2416 42.0198 61.3023 42.1714C61.3629 42.323 61.3629 42.4897 61.3023 42.6413C61.2416 42.7929 61.1052 42.9142 60.9385 42.99Z" stroke="#8512E0" stroke-width="2" stroke-miterlimit="10"/>
<path d="M72.2482 55.4374L68.6726 56.9872L66.8707 60.8989C66.8241 61.0016 66.7307 61.0763 66.6187 61.123C66.5067 61.1603 66.376 61.1603 66.2546 61.123C66.1426 61.0856 66.0492 61.0016 66.0025 60.8989L64.2007 56.9872L60.6251 55.4374C60.5224 55.3907 60.4384 55.3161 60.4011 55.2227C60.3637 55.1293 60.3637 55.0266 60.4011 54.9333C60.4384 54.8399 60.5224 54.7652 60.6251 54.7186L64.2007 53.1688L66.0025 49.2571C66.0585 49.1637 66.1519 49.089 66.2639 49.0517C66.3759 49.0143 66.4973 49.0143 66.6093 49.0517C66.7214 49.089 66.8147 49.1637 66.8707 49.2571L68.6726 53.1688L72.2482 54.7186C72.3508 54.7652 72.4349 54.8399 72.4722 54.9333C72.5096 55.0266 72.5096 55.1293 72.4722 55.2227C72.4349 55.3161 72.3508 55.3907 72.2482 55.4374Z" stroke="#8512E0" stroke-width="2" stroke-miterlimit="10"/>
<path d="M72.2482 31.1825L68.6726 32.7323L66.8707 36.644C66.8241 36.7467 66.7307 36.8214 66.6187 36.8681C66.5067 36.9054 66.376 36.9054 66.2546 36.8681C66.1426 36.8307 66.0492 36.7467 66.0025 36.644L64.2007 32.7323L60.6251 31.1825C60.5224 31.1359 60.4384 31.0612 60.4011 30.9678C60.3637 30.8745 60.3637 30.7718 60.4011 30.6784C60.4384 30.585 60.5224 30.5104 60.6251 30.4637L64.2007 28.9139L66.0025 25.0022C66.0585 24.9088 66.1519 24.8341 66.2639 24.7968C66.3759 24.7595 66.4973 24.7595 66.6093 24.7968C66.7214 24.8341 66.8147 24.9088 66.8707 25.0022L68.6726 28.9139L72.2482 30.4637C72.3508 30.5104 72.4349 30.585 72.4722 30.6784C72.5096 30.7718 72.5096 30.8745 72.4722 30.9678C72.4349 31.0612 72.3508 31.1359 72.2482 31.1825Z" stroke="#8512E0" stroke-width="2" stroke-miterlimit="10"/>
</svg>
