<svg width="65" height="51" viewBox="0 0 65 51" fill="none" xmlns="http://www.w3.org/2000/svg">
<path d="M42.2457 34.6879C42.2457 36.4412 40.8261 37.8644 39.0771 37.8644H26.6686C24.9196 37.8644 23.5 36.4412 23.5 34.6879V24.8088C23.5 23.0555 24.9196 21.6323 26.6686 21.6323H39.0771C40.8261 21.6323 42.2457 23.0555 42.2457 24.8088V34.6879Z" stroke="#8512E0" stroke-width="2" stroke-miterlimit="10" stroke-linecap="round"/>
<path d="M27.5488 21.6323V19.2006C27.5488 16.253 29.9315 13.8644 32.8717 13.8644C35.812 13.8644 38.1946 16.2544 38.1946 19.2006V21.6323" stroke="#8512E0" stroke-width="2" stroke-miterlimit="10" stroke-linecap="round"/>
<path d="M35.5517 29.0022C35.5517 30.4864 34.352 31.689 32.8715 31.689C31.391 31.689 30.1914 30.4864 30.1914 29.0022C30.1914 27.5179 31.391 26.3153 32.8715 26.3153C34.352 26.3153 35.5517 27.5179 35.5517 29.0022Z" stroke="#8512E0" stroke-width="2" stroke-miterlimit="10" stroke-linecap="round"/>
<path d="M32.8711 31.689V34.9279" stroke="#8512E0" stroke-width="2" stroke-miterlimit="10" stroke-linecap="round"/>
<path d="M33.4333 49.6381L38.0745 47.2212C48.5011 41.7953 55 31.2706 55 19.8237V8.26678C55 7.36716 54.2628 6.61982 53.331 6.59726C42.3619 6.30961 35.5563 3.24977 33.3183 2.06531C32.8081 1.7974 32.1919 1.7974 31.6817 2.06531C29.4407 3.24977 22.6381 6.31243 11.669 6.59726C10.7401 6.62264 10 7.36716 10 8.26678V19.8237C10 31.2706 16.5019 41.7925 26.9255 47.2212L31.5667 49.6381C32.1476 49.9398 32.8494 49.9398 33.4303 49.6381H33.4333Z" stroke="#8512E0" stroke-width="2" stroke-miterlimit="10"/>
</svg>
