<svg width="69" height="63" viewBox="0 0 69 63" fill="none" xmlns="http://www.w3.org/2000/svg">
<path d="M35.5274 6.0981C35.1042 6.45295 35.0488 7.08368 35.4036 7.50689L41.1862 14.4034C41.541 14.8266 42.1718 14.882 42.595 14.5272C43.0182 14.1723 43.0736 13.5416 42.7188 13.1184L37.5787 6.98816L43.709 1.84811C44.1322 1.49326 44.1876 0.862528 43.8327 0.439323C43.4779 0.0161175 42.8471 -0.0392985 42.4239 0.315548L35.5274 6.0981ZM53.1662 43.7045C52.8577 44.1626 52.979 44.7841 53.4371 45.0926C53.8952 45.4011 54.5166 45.2798 54.8251 44.8217L53.1662 43.7045ZM36.1699 6.86438L36.0824 7.86054C47.861 8.8954 57.0987 18.7746 57.0987 30.8153H58.0987H59.0987C59.0987 17.7271 49.058 6.99287 36.2574 5.86822L36.1699 6.86438ZM58.0987 30.8153H57.0987C57.0987 35.5958 55.6504 40.0159 53.1662 43.7045L53.9957 44.2631L54.8251 44.8217C57.5237 40.8147 59.0987 36.0078 59.0987 30.8153H58.0987Z" fill="#8512E0"/>
<path d="M28.3278 8.48133C28.863 8.345 29.1864 7.80063 29.05 7.26543C28.9137 6.73024 28.3693 6.40689 27.8341 6.54321L28.3278 8.48133ZM50.4028 55.5715C50.7933 55.181 50.7933 54.5478 50.4028 54.1573L44.0388 47.7933C43.6483 47.4028 43.0151 47.4028 42.6246 47.7933C42.2341 48.1838 42.2341 48.817 42.6246 49.2075L48.2815 54.8644L42.6246 60.5212C42.2341 60.9118 42.2341 61.5449 42.6246 61.9355C43.0151 62.326 43.6483 62.326 44.0388 61.9355L50.4028 55.5715ZM28.081 7.51227L27.8341 6.54321C16.9957 9.30394 9 19.1385 9 30.8153H10H11C11 20.0725 18.3564 11.0212 28.3278 8.48133L28.081 7.51227ZM10 30.8153H9C9 44.6584 20.206 55.8644 34.0491 55.8644V54.8644V53.8644C21.3106 53.8644 11 43.5538 11 30.8153H10ZM34.0491 54.8644V55.8644H49.6957V54.8644V53.8644H34.0491V54.8644Z" fill="#8512E0"/>
<path d="M45.337 22.4933L30.7988 38.1989L25.7051 32.6961" stroke="#8512E0" stroke-width="2" stroke-miterlimit="10" stroke-linecap="round"/>
</svg>
