<svg width="79" height="50" viewBox="0 0 79 50" fill="none" xmlns="http://www.w3.org/2000/svg">
<path d="M57.4991 49C68.3135 49 77.0803 40.2332 77.0803 29.4188C77.0803 18.6044 68.3135 9.83765 57.4991 9.83765C46.6848 9.83765 37.918 18.6044 37.918 29.4188C37.918 40.2332 46.6848 49 57.4991 49Z" stroke="#8512E0" stroke-width="2" stroke-miterlimit="10"/>
<path d="M57.2858 13.9882C65.8129 13.9882 72.7164 20.9058 72.7164 29.4187C72.7164 37.9317 65.7988 44.8493 57.2858 44.8493C53.3047 44.8493 49.6623 43.3387 46.9235 40.854" stroke="#8512E0" stroke-width="2" stroke-miterlimit="10" stroke-linecap="round"/>
<path d="M57.4991 32.0588C58.9572 32.0588 60.1391 30.8768 60.1391 29.4188C60.1391 27.9608 58.9572 26.7788 57.4991 26.7788C56.0411 26.7788 54.8591 27.9608 54.8591 29.4188C54.8591 30.8768 56.0411 32.0588 57.4991 32.0588Z" stroke="#8512E0" stroke-width="2" stroke-miterlimit="10"/>
<path d="M59.802 1H55.1997C53.9756 1 52.9832 1.98919 52.9832 3.20941C52.9832 4.42964 53.9756 5.41882 55.1997 5.41882H59.802C61.0262 5.41882 62.0185 4.42964 62.0185 3.20941C62.0185 1.98919 61.0262 1 59.802 1Z" stroke="#8512E0" stroke-width="2" stroke-miterlimit="10" stroke-linecap="round"/>
<path d="M57.4998 5.80005V8.05887" stroke="#8512E0" stroke-width="2" stroke-miterlimit="10" stroke-linecap="round"/>
<path d="M68.4867 8.86365L67.3573 10.826" stroke="#8512E0" stroke-width="2" stroke-miterlimit="10" stroke-linecap="round"/>
<path d="M69.4741 9.42824L67.5117 8.29883" stroke="#8512E0" stroke-width="2" stroke-miterlimit="10" stroke-linecap="round"/>
<path d="M46.5043 8.86365L47.6338 10.826" stroke="#8512E0" stroke-width="2" stroke-miterlimit="10" stroke-linecap="round"/>
<path d="M45.531 9.42824L47.4792 8.29883" stroke="#8512E0" stroke-width="2" stroke-miterlimit="10" stroke-linecap="round"/>
<path d="M44.4115 37.7059L54.2939 30.6471" stroke="#8512E0" stroke-width="2" stroke-miterlimit="10" stroke-linecap="round"/>
<path d="M33.9901 2.63965H15.9941" stroke="#8512E0" stroke-width="2" stroke-miterlimit="10" stroke-linecap="round"/>
<path d="M24.9946 24.0099H1" stroke="#8512E0" stroke-width="2" stroke-miterlimit="10" stroke-linecap="round"/>
<path d="M33.2446 45.3801H9.25" stroke="#8512E0" stroke-width="2" stroke-miterlimit="10" stroke-linecap="round"/>
</svg>
