<svg width="16" height="16" viewBox="0 0 16 16" fill="none" xmlns="http://www.w3.org/2000/svg">
<path d="M1.40414 15.9997H11.8372C12.6124 15.9997 13.2414 15.3707 13.2414 14.5955V4.16244C13.2414 3.38727 12.6124 2.7583 11.8372 2.7583H1.40414C0.628966 2.7583 0 3.38727 0 4.16244V14.5955C0 15.3707 0.628966 15.9997 1.40414 15.9997ZM1.10345 4.16244C1.10345 3.99692 1.23862 3.86175 1.40414 3.86175H11.8372C12.0028 3.86175 12.1379 3.99692 12.1379 4.16244V14.5955C12.1379 14.7611 12.0028 14.8962 11.8372 14.8962H1.40414C1.23862 14.8962 1.10345 14.7611 1.10345 14.5955V4.16244Z" fill="#666666"/>
<path d="M14.596 0H4.16293C3.38775 0 2.75879 0.628966 2.75879 1.40414C2.75879 1.70759 3.00706 1.95586 3.31051 1.95586C3.61396 1.95586 3.86224 1.70759 3.86224 1.40414C3.86224 1.23862 3.99741 1.10345 4.16293 1.10345H14.596C14.7615 1.10345 14.8967 1.23862 14.8967 1.40414V11.8372C14.8967 12.0028 14.7615 12.1379 14.596 12.1379C14.2926 12.1379 14.0443 12.3862 14.0443 12.6897C14.0443 12.9931 14.2926 13.2414 14.596 13.2414C15.3712 13.2414 16.0002 12.6124 16.0002 11.8372V1.40414C16.0002 0.628966 15.3712 0 14.596 0Z" fill="#666666"/>
</svg>
