<svg width="56" height="56" viewBox="0 0 56 56" fill="none" xmlns="http://www.w3.org/2000/svg">
<path d="M10.8887 26.0488C11.9714 24.053 13.2497 21.7963 14.6977 19.2135C20.5416 8.89535 23.4505 3.74278 27.4552 2.41225C29.6597 1.68176 32.0207 1.68176 34.2252 2.41225C38.2299 3.74278 41.1388 8.89535 46.9697 19.2135C52.8006 29.5317 55.7225 34.6973 54.8486 38.8976C54.3659 41.2065 53.1789 43.3067 51.457 44.8851C48.3263 47.7548 42.4954 47.7548 30.8337 47.7548C29.2683 47.7548 27.8074 47.7548 26.4507 47.7548" stroke="#8512E0" stroke-width="2" stroke-linecap="round"/>
<path d="M30.8341 35.5192C31.5646 35.5192 32.1908 35.767 32.6995 36.2758C33.2082 36.7845 33.4561 37.3976 33.4561 38.115C33.4561 38.8325 33.1952 39.4456 32.6865 39.9543C32.1777 40.463 31.5516 40.7109 30.8341 40.7109C30.1167 40.7109 29.5166 40.463 29.0079 39.9543C28.4992 39.4456 28.2383 38.8325 28.2383 38.115C28.2383 37.3976 28.4861 36.7845 28.9949 36.2758C29.5036 35.767 30.1167 35.5192 30.8341 35.5192ZM29.9341 33.406L28.3557 14.8176C28.3035 14.2958 28.2774 13.9567 28.2774 13.8262C28.2774 12.8088 28.4992 12.0652 28.9427 11.5956C29.3862 11.126 30.0384 10.8782 30.8994 10.8782C31.6429 10.8782 32.256 11.113 32.7125 11.5695C33.1691 12.0261 33.4039 12.6392 33.4039 13.4218C33.4039 13.6697 33.3648 14.0871 33.2995 14.6741L31.6429 33.419H29.9341V33.406Z" fill="#8512E0"/>
<path d="M19.5098 48.8898L24.8841 54.2641" stroke="#8512E0" stroke-width="2" stroke-miterlimit="10" stroke-linecap="round"/>
<path d="M22.4843 41.1283C22.4843 35.193 17.6708 30.3796 11.7356 30.3796C5.80037 30.3796 1 35.193 1 41.1283C1 47.0635 5.81341 51.8769 11.7486 51.8769C17.6839 51.8769 22.4973 47.0635 22.4973 41.1283H22.4843Z" stroke="#8512E0" stroke-width="2" stroke-miterlimit="10" stroke-linecap="round"/>
</svg>
