<svg width="50" height="73" viewBox="0 0 50 73" fill="none" xmlns="http://www.w3.org/2000/svg">
<path d="M35.6722 55.2925C35.4262 55.695 33.4101 55.8962 32.7728 55.9447C30.4735 56.1161 16.1333 56.2055 15.0042 55.6503C13.711 55.013 13.6663 50.6007 12.7346 48.6404C11.0651 45.1411 6.28006 41.7834 4.18568 38.0828C-2.9695 25.4532 2.34471 8.89566 15.9582 3.64108C38.3815 -5.01221 57.9203 19.7179 44.7242 39.5027C42.4547 42.9088 38.2846 45.7113 36.7417 49.5386C36.1119 51.1 35.866 54.9869 35.6759 55.2925H35.6722Z" stroke="#8512E0" stroke-width="2" stroke-miterlimit="10"/>
<path d="M27.3661 35.1872C27.1909 35.3214 26.74 36.3611 26.5537 36.6593C26.0916 37.3971 26.099 37.4978 25.2046 37.6282C24.3102 37.7586 23.1363 37.8034 22.514 37.1475C22.1339 36.745 21.8022 35.6717 21.5264 35.3922C21.3252 35.191 19.1749 34.345 18.8842 34.2742C18.3811 34.1475 17.0507 34.9562 16.2495 34.7922C15.6905 34.6767 14.2073 33.2382 14.0768 32.7016C13.8942 31.9488 14.5874 30.8308 14.5501 30.1004C14.5464 29.9997 13.5439 27.6072 13.447 27.4917C12.9365 26.8843 11.375 26.7799 11.0806 25.6582C10.9278 25.0694 10.9949 23.534 11.2595 22.9974C11.5315 22.4495 13.1713 21.9166 13.4023 21.5141C13.5476 21.2607 14.2892 19.3974 14.375 19.0136C14.5799 18.0633 13.365 17.0496 14.2147 15.7416C14.3712 15.5031 15.5638 14.3739 15.8134 14.2733C16.6557 13.9453 17.7178 14.6571 18.5414 14.6795C18.6047 14.6795 20.8854 13.7478 21.1277 13.5876C21.6904 13.2037 21.873 11.8323 22.6407 11.3739C23.222 11.0273 25.0369 11.0795 25.6444 11.3665C26.4605 11.7503 26.658 13.2372 27.1276 13.5093C27.381 13.6546 29.1959 14.3702 29.6282 14.482C30.6157 14.7391 31.4617 13.4869 32.8964 14.3217C33.2654 14.5341 34.32 15.6484 34.443 16.0546C34.7672 17.113 33.9511 17.9105 34.007 18.6372C34.0293 18.9502 34.9871 21.1378 35.0952 21.3017C35.5014 21.9204 37.1895 21.8868 37.4802 23.2657C37.5697 23.6868 37.5659 25.3191 37.4057 25.6768C37.0777 26.3998 35.6914 26.724 35.2368 27.2756C35.1473 27.3836 34.1747 29.7091 34.1449 29.8619C34.0033 30.5438 34.9386 31.6805 34.6219 32.6121C34.4728 33.0556 33.053 34.4643 32.5946 34.5947C31.5586 34.8891 30.7014 34.0804 30.0567 34.1512C29.699 34.1922 27.4592 35.1351 27.3735 35.2021L27.3661 35.1872Z" stroke="#8512E0" stroke-width="2" stroke-miterlimit="10"/>
<path d="M24.297 29.0755C26.8697 29.0755 28.9553 26.9899 28.9553 24.4172C28.9553 21.8445 26.8697 19.7589 24.297 19.7589C21.7243 19.7589 19.6387 21.8445 19.6387 24.4172C19.6387 26.9899 21.7243 29.0755 24.297 29.0755Z" stroke="#8512E0" stroke-width="2" stroke-miterlimit="10"/>
<path d="M24.2965 26.6531C25.5314 26.6531 26.5325 25.652 26.5325 24.4171C26.5325 23.1822 25.5314 22.1812 24.2965 22.1812C23.0616 22.1812 22.0605 23.1822 22.0605 24.4171C22.0605 25.652 23.0616 26.6531 24.2965 26.6531Z" stroke="#8512E0" stroke-width="2" stroke-miterlimit="10"/>
<path d="M18 67.2196C18.0389 67.2824 18.0777 67.3522 18.1244 67.422C19.648 69.7187 22.1588 71.2196 24.9961 71.2196C27.8334 71.2196 30.4609 69.6489 31.9767 67.2545C31.9767 67.2405 31.9922 67.2336 32 67.2196" stroke="#8512E0" stroke-width="2" stroke-miterlimit="10" stroke-linecap="round"/>
<path d="M14 61.5236H35.5" stroke="#8512E0" stroke-width="2" stroke-linecap="round"/>
</svg>
