<svg width="77" height="77" viewBox="0 0 77 77" fill="none" xmlns="http://www.w3.org/2000/svg">
<path d="M39.5193 54.4916C48.0807 54.4916 55.0211 47.5512 55.0211 38.9898C55.0211 30.4284 48.0807 23.488 39.5193 23.488C30.958 23.488 24.0176 30.4284 24.0176 38.9898C24.0176 47.5512 30.958 54.4916 39.5193 54.4916Z" stroke="#8512E0" stroke-width="2" stroke-miterlimit="10"/>
<path d="M39.35 26.7739C46.1006 26.7739 51.5659 32.2504 51.5659 38.9898C51.5659 45.7292 46.0894 51.2057 39.35 51.2057C36.1982 51.2057 33.3147 50.0098 31.1465 48.0427" stroke="#8512E0" stroke-width="2" stroke-miterlimit="10" stroke-linecap="round"/>
<path d="M39.5197 41.0798C40.674 41.0798 41.6097 40.1441 41.6097 38.9898C41.6097 37.8355 40.674 36.8998 39.5197 36.8998C38.3654 36.8998 37.4297 37.8355 37.4297 38.9898C37.4297 40.1441 38.3654 41.0798 39.5197 41.0798Z" stroke="#8512E0" stroke-width="2" stroke-miterlimit="10"/>
<path d="M41.3396 16.4916H37.6961C36.727 16.4916 35.9414 17.2747 35.9414 18.2407C35.9414 19.2067 36.727 19.9898 37.6961 19.9898H41.3396C42.3087 19.9898 43.0943 19.2067 43.0943 18.2407C43.0943 17.2747 42.3087 16.4916 41.3396 16.4916Z" stroke="#8512E0" stroke-width="2" stroke-miterlimit="10" stroke-linecap="round"/>
<path d="M39.5176 20.2916V22.0799" stroke="#8512E0" stroke-width="2" stroke-miterlimit="10" stroke-linecap="round"/>
<path d="M48.2164 22.7167L47.3223 24.2702" stroke="#8512E0" stroke-width="2" stroke-miterlimit="10" stroke-linecap="round"/>
<path d="M48.9988 23.1636L47.4453 22.2695" stroke="#8512E0" stroke-width="2" stroke-miterlimit="10" stroke-linecap="round"/>
<path d="M30.8125 22.7167L31.7066 24.2702" stroke="#8512E0" stroke-width="2" stroke-miterlimit="10" stroke-linecap="round"/>
<path d="M30.041 23.1636L31.5834 22.2695" stroke="#8512E0" stroke-width="2" stroke-miterlimit="10" stroke-linecap="round"/>
<path d="M29.1582 45.5504L36.9817 39.9622" stroke="#8512E0" stroke-width="2" stroke-miterlimit="10" stroke-linecap="round"/>
<path d="M44.1852 5.87787C43.6404 5.78746 43.1254 6.15583 43.035 6.70067C42.9446 7.2455 43.3129 7.76047 43.8578 7.85089L44.1852 5.87787ZM69.4016 33.242C69.8555 33.5566 70.4785 33.4437 70.7931 32.9898L75.9197 25.5926C76.2343 25.1387 76.1213 24.5156 75.6674 24.2011C75.2135 23.8865 74.5905 23.9994 74.2759 24.4533L69.7189 31.0286L63.1436 26.4716C62.6897 26.1571 62.0667 26.27 61.7521 26.7239C61.4375 27.1779 61.5505 27.8009 62.0044 28.1155L69.4016 33.242ZM44.0215 6.86438L43.8578 7.85089C56.6026 9.96591 66.6921 19.9392 68.9872 32.5985L69.9712 32.4201L70.9552 32.2417C68.5095 18.7524 57.7644 8.13135 44.1852 5.87787L44.0215 6.86438Z" fill="#8512E0"/>
<path d="M33.7633 7.44587C34.0844 6.99656 33.9805 6.37198 33.5312 6.05083L26.2092 0.817397C25.7599 0.496248 25.1353 0.600145 24.8142 1.04946C24.493 1.49877 24.5969 2.12335 25.0462 2.4445L31.5547 7.09644L26.9027 13.6049C26.5816 14.0542 26.6855 14.6787 27.1348 14.9999C27.5841 15.321 28.2087 15.2172 28.5298 14.7678L33.7633 7.44587ZM6.01646 32.2395C5.91668 32.7827 6.27614 33.3039 6.81933 33.4037C7.36253 33.5035 7.88377 33.144 7.98354 32.6008L6.01646 32.2395ZM32.9497 6.86438L32.7856 5.87793C19.2371 8.13167 8.49379 18.7528 6.01646 32.2395L7 32.4201L7.98354 32.6008C10.3094 19.9388 20.4007 9.96559 33.1138 7.85083L32.9497 6.86438Z" fill="#8512E0"/>
<path d="M43.2082 69.2825C42.8868 69.7317 42.9905 70.3564 43.4397 70.6777L50.7596 75.9139C51.2088 76.2352 51.8335 76.1316 52.1548 75.6824C52.4761 75.2332 52.3724 74.6086 51.9232 74.2873L45.4166 69.6328L50.0711 63.1262C50.3924 62.677 50.2887 62.0524 49.8395 61.7311C49.3903 61.4097 48.7657 61.5134 48.4444 61.9626L43.2082 69.2825ZM70.9552 44.487C71.0537 43.9436 70.693 43.4232 70.1496 43.3246C69.6062 43.2261 69.0858 43.5868 68.9872 44.1302L70.9552 44.487ZM44.0215 69.8643L44.1852 70.8509C57.7644 68.5974 68.5095 57.9763 70.9552 44.487L69.9712 44.3086L68.9872 44.1302C66.6921 56.7895 56.6026 66.7628 43.8578 68.8778L44.0215 69.8643Z" fill="#8512E0"/>
<path d="M32.786 70.8509C33.3308 70.9413 33.8458 70.5729 33.9362 70.0281C34.0266 69.4832 33.6582 68.9683 33.1134 68.8778L32.786 70.8509ZM7.56962 43.4867C7.11569 43.1721 6.49268 43.285 6.17809 43.739L1.05151 51.1361C0.736916 51.5901 0.849869 52.2131 1.3038 52.5277C1.75772 52.8423 2.38073 52.7293 2.69532 52.2754L7.25229 45.7001L13.8276 50.2571C14.2815 50.5717 14.9045 50.4587 15.2191 50.0048C15.5337 49.5509 15.4207 48.9279 14.9668 48.6133L7.56962 43.4867ZM32.9497 69.8643L33.1134 68.8778C20.3686 66.7628 10.2791 56.7895 7.98396 44.1302L7 44.3086L6.01604 44.487C8.46169 57.9763 19.2068 68.5974 32.786 70.8509L32.9497 69.8643Z" fill="#8512E0"/>
</svg>
