<svg width="50" height="51" viewBox="0 0 50 51" fill="none" xmlns="http://www.w3.org/2000/svg">
<path d="M25.8729 32.4004L28.6336 29.6397C33.9262 31.9276 40.3017 30.9209 44.6181 26.5893C48.9346 22.2576 49.9565 15.8973 47.6686 10.6047L38.6849 19.5884L31.6688 19.0546L31.135 12.0384L40.1187 3.05476C34.8261 0.766899 28.4506 1.77356 24.1341 6.10525C19.8177 10.4369 18.7958 16.7972 21.0836 22.0898L2.56719 40.6062C0.477604 42.6958 0.477604 46.0666 2.56719 48.1562C4.65677 50.2458 8.02756 50.2458 10.1171 48.1562L13.7472 44.5261" stroke="#8512E0" stroke-width="2" stroke-miterlimit="10"/>
<path d="M27.3819 40.7129H18.2305" stroke="#8512E0" stroke-width="2" stroke-miterlimit="10" stroke-linecap="round"/>
<path d="M22.044 49.8643C27.0982 49.8643 31.1955 45.7671 31.1955 40.7129C31.1955 35.6586 27.0982 31.5614 22.044 31.5614C16.9898 31.5614 12.8926 35.6586 12.8926 40.7129C12.8926 45.7671 16.9898 49.8643 22.044 49.8643Z" stroke="#8512E0" stroke-width="2" stroke-miterlimit="10"/>
</svg>
