<svg width="80" height="80" viewBox="0 0 80 80" fill="none" xmlns="http://www.w3.org/2000/svg">
<path d="M44.6913 54.0943H42.9562C42.244 54.0943 41.5707 54.3792 41.0786 54.8972L39.3953 56.6581C38.9033 57.1761 38.23 57.4609 37.5178 57.4609H29.9559C29.2308 57.4609 28.5445 57.1631 28.0525 56.6193L26.4857 54.923C25.9937 54.3922 25.3074 54.0814 24.5823 54.0814H8.70752C7.94356 54.0296 7.38678 53.7318 7.06306 53.0196C6.93358 41.0812 7.05012 29.1038 7.01127 17.1524C7.01127 16.764 7.56805 16.1295 7.91766 16.0388L59.1935 16C59.8669 16.0647 60.5143 16.8934 60.4754 17.5668V33.5063" stroke="#1E1E1E" stroke-width="2" stroke-miterlimit="10" stroke-linecap="round"/>
<path d="M66.9102 57.4739L72.2449 62.8086" stroke="#1E1E1E" stroke-width="2" stroke-miterlimit="10" stroke-linecap="round"/>
<path d="M69.8625 49.7696C69.8625 43.8781 65.0845 39.1001 59.193 39.1001C53.3014 39.1001 48.5234 43.8781 48.5234 49.7696C48.5234 55.6612 53.3014 60.4391 59.193 60.4391C65.0845 60.4391 69.8625 55.6612 69.8625 49.7696Z" stroke="#1E1E1E" stroke-width="2" stroke-miterlimit="10" stroke-linecap="round"/>
<path d="M23 64H43.847" stroke="#1E1E1E" stroke-width="2" stroke-linecap="round" stroke-linejoin="bevel"/>
</svg>
