<svg width="68" height="51" viewBox="0 0 68 51" fill="none" xmlns="http://www.w3.org/2000/svg">
<path fill-rule="evenodd" clip-rule="evenodd" d="M35.3111 25.784L43.7093 2.71919C43.8442 2.2243 44.2941 1.86438 44.834 1.86438H61.4802C61.6752 1.86438 61.8702 1.92437 62.0501 2.01435C62.605 2.32928 62.8149 3.03412 62.5 3.60399L55.0467 16.801H65.5593C65.7993 16.801 66.0392 16.876 66.2492 17.041C66.7591 17.4309 66.879 18.1507 66.4891 18.6756L43.6943 49.3437C43.4243 49.7486 42.9144 49.9585 42.4045 49.8236C41.7897 49.6436 41.4148 48.9988 41.5947 48.3839L47.5034 27.3586H36.4059C36.2709 27.3586 36.136 27.3286 36.016 27.2837C35.4161 27.0587 35.1012 26.3989 35.3111 25.784Z" stroke="#8512E0" stroke-width="2" stroke-miterlimit="10"/>
<path d="M33.9901 3.00409H15.9941" stroke="#8512E0" stroke-width="2" stroke-miterlimit="10" stroke-linecap="round"/>
<path d="M24.9946 24.3743H1" stroke="#8512E0" stroke-width="2" stroke-miterlimit="10" stroke-linecap="round"/>
<path d="M33.2446 45.7445H9.25" stroke="#8512E0" stroke-width="2" stroke-miterlimit="10" stroke-linecap="round"/>
</svg>
