<svg width="68" height="51" viewBox="0 0 68 51" fill="none" xmlns="http://www.w3.org/2000/svg">
<path d="M38.6913 39.9587H36.9562C36.244 39.9587 35.5707 40.2436 35.0786 40.7615L33.3953 42.5225C32.9033 43.0405 32.23 43.3253 31.5178 43.3253H23.9559C23.2308 43.3253 22.5445 43.0275 22.0525 42.4837L20.4857 40.7874C19.9937 40.2565 19.3074 39.9458 18.5823 39.9458H2.70752C1.94356 39.894 1.38678 39.5962 1.06306 38.884C0.933579 26.9455 1.05012 14.9682 1.01127 3.01679C1.01127 2.62834 1.56805 1.99386 1.91766 1.90323L53.1935 1.86438C53.8669 1.92912 54.5143 2.75782 54.4754 3.43114V19.3707" stroke="#8512E0" stroke-width="2" stroke-miterlimit="10" stroke-linecap="round"/>
<path d="M60.9102 43.3383L66.2449 48.673" stroke="#8512E0" stroke-width="2" stroke-miterlimit="10" stroke-linecap="round"/>
<path d="M63.8625 35.634C63.8625 29.7425 59.0845 24.9645 53.193 24.9645C47.3014 24.9645 42.5234 29.7425 42.5234 35.634C42.5234 41.5255 47.3014 46.3035 53.193 46.3035C59.0845 46.3035 63.8625 41.5255 63.8625 35.634Z" stroke="#8512E0" stroke-width="2" stroke-miterlimit="10" stroke-linecap="round"/>
<path d="M17 49.8644H37.847" stroke="#8512E0" stroke-width="2" stroke-linecap="round" stroke-linejoin="bevel"/>
</svg>
