<svg width="1440" height="439" viewBox="0 0 1440 439" fill="none" xmlns="http://www.w3.org/2000/svg">
<mask id="mask0_635_3286" style="mask-type:luminance" maskUnits="userSpaceOnUse" x="0" y="0" width="1440" height="439">
<path d="M1440 0.0390625H0V438.837H1440V0.0390625Z" fill="white"/>
</mask>
<g mask="url(#mask0_635_3286)">
<path d="M1029.5 342.616L992.158 207.387L992.658 207.248L1029.55 340.865L1091.71 157.424L1142.24 247.265L1274.01 242.836L1274.03 243.351L1141.95 247.79L1141.87 247.656L1091.83 158.681L1029.5 342.616Z" fill="#556A9E" fill-opacity="0.4"/>
<path d="M1421.34 395.261L1420.67 394.571L1273.83 243.273L1274.2 242.913L1420.37 393.526L1394.33 290.295L1394.83 290.171L1421.34 395.261Z" fill="#556A9E" fill-opacity="0.4"/>
<path d="M522.021 351.057L564.999 196.54L585.173 275.107L584.689 275.23L584.812 275.333L522.016 351.057H522.021ZM564.979 198.533L523.169 348.873L584.421 275.009L584.668 275.215L564.979 198.539V198.533Z" fill="#556A9E" fill-opacity="0.4"/>
<path d="M46.4494 362.192L46.0371 361.883L99.978 290.599L159.067 180.343L159.222 181.007L183.572 285.67L340.777 198.137L425.299 228.585L425.124 229.069L340.824 198.703L183.227 286.453L158.877 181.79L100.411 290.877L46.4494 362.192Z" fill="#556A9E" fill-opacity="0.4"/>
<path d="M410.926 350.218L294.608 334.473L294.706 334.18L340.417 198.739L258.343 211.78L258.261 211.275L341.18 198.096L295.293 334.046L410.993 349.708L410.926 350.218Z" fill="#556A9E" fill-opacity="0.4"/>
<path d="M257.947 211.579L244.399 147.881L81.0292 158.676L80.9932 158.161L244.811 147.34L244.857 147.557L258.452 211.476L257.947 211.579Z" fill="#556A9E" fill-opacity="0.4"/>
<path d="M88.3206 436.345L99.9776 290.079L144.441 346.963L183.18 285.927L183.613 286.206L144.776 347.4L213.647 435.505L213.24 435.825L144.483 347.864L88.3154 436.355L88.3206 436.345ZM100.39 291.438L89.0009 434.315L144.148 347.421L100.385 291.438H100.39Z" fill="#556A9E" fill-opacity="0.4"/>
<path d="M144.497 110.412L144.155 110.798L258.028 211.729L258.37 211.344L144.497 110.412Z" fill="#556A9E" fill-opacity="0.4"/>
<path d="M992.21 207.484L945.425 152.218L857.979 119.241L858.165 118.757L945.734 151.78L945.775 151.831L992.606 207.15L992.21 207.484Z" fill="#556A9E" fill-opacity="0.4"/>
<path d="M1358.62 95.7063L1358.11 95.8011L1394.33 290.16L1394.84 290.066L1358.62 95.7063Z" fill="#556A9E" fill-opacity="0.4"/>
<path d="M1274.24 242.942L1273.78 243.161L1333.33 370.161L1333.8 369.943L1274.24 242.942Z" fill="#556A9E" fill-opacity="0.4"/>
<path d="M775.036 260.99L641.413 222.636L564.912 197.782L565.072 197.292L641.568 222.147L775.175 260.496L775.036 260.99Z" fill="#556A9E" fill-opacity="0.4"/>
<path d="M780.191 203.143L697.797 163.116L698.019 162.652L780.165 202.556L845.619 163.28L674.05 127.878L674.153 127.373L847.015 163.038L780.191 203.143Z" fill="#556A9E" fill-opacity="0.4"/>
<path d="M594.892 155.467L477.297 219.168L477.543 219.621L595.134 155.919L594.892 155.467Z" fill="#556A9E" fill-opacity="0.4"/>
<path d="M477.362 219.083L425.167 228.562L425.259 229.069L477.454 219.59L477.362 219.083Z" fill="#556A9E" fill-opacity="0.4"/>
<path d="M258.122 211.775L158.898 181.311L80.9414 158.666L81.0856 158.171L159.042 180.817L258.271 211.28L258.122 211.775Z" fill="#556A9E" fill-opacity="0.4"/>
<path d="M27.6182 136.994L27.1338 136.824L73.4993 2.45447L144.606 110.269L144.179 110.557L73.6435 3.60812L27.6182 136.994Z" fill="#556A9E" fill-opacity="0.4"/>
<path d="M213.462 436.247L183.216 286.458L46.0937 362.388L2.57812 233.452L3.0677 233.287L46.3875 361.641L183.582 285.665L183.624 285.876L295.36 334.159L295.149 334.422L213.457 436.247H213.462ZM183.747 286.489L213.745 435.062L294.536 334.36L183.747 286.489Z" fill="#556A9E" fill-opacity="0.4"/>
<path d="M477.286 219.567L340.736 150.858L244.599 147.866L244.614 147.351L340.865 150.348L340.916 150.374L477.518 219.109L477.286 219.567Z" fill="#556A9E" fill-opacity="0.4"/>
<path d="M2.35156 234.178L27.2014 136.561L80.9724 158.13L144.561 109.965L159.222 181.018L158.717 181.121L144.221 110.867L81.1785 158.614L2.35156 234.178ZM27.557 137.256L3.29464 232.561L80.5496 158.511L27.557 137.256Z" fill="#556A9E" fill-opacity="0.4"/>
<path d="M477.171 219.227L410.741 349.859L411.201 350.092L477.631 219.46L477.171 219.227Z" fill="#556A9E" fill-opacity="0.4"/>
<path d="M425.035 229.018L341.055 151.193V198.42H340.54V150.013L425.386 228.636L425.035 229.018Z" fill="#556A9E" fill-opacity="0.4"/>
<path d="M641.31 222.221L584.771 275.023L585.122 275.399L641.661 222.597L641.31 222.221Z" fill="#556A9E" fill-opacity="0.4"/>
<path d="M945.323 152.006L943.752 101.431L858.124 119.503L858.021 118.999L944.246 100.803L945.838 151.991L945.323 152.006Z" fill="#556A9E" fill-opacity="0.4"/>
<path d="M1029.41 341.972L896.174 274.144L896.138 274.061L846.083 163.265L846.552 163.054L896.571 273.768L1029.64 341.514L1029.41 341.972Z" fill="#556A9E" fill-opacity="0.4"/>
<path d="M1142.27 247.713L1141.91 247.347L1252.65 139.043L1176.17 131.622L1176.22 131.107L1253.11 138.564L1317.01 49.543L1317.12 49.5276L1386.21 40.2623L1358.56 96.07L1358.47 96.1061L1253.36 139.054L1142.27 247.708V247.713ZM1317.3 50.0271L1253.96 138.261L1358.19 95.6734L1385.32 40.9113L1317.3 50.0323V50.0271Z" fill="#556A9E" fill-opacity="0.4"/>
<path d="M1029.56 341.998L1029.49 341.488L1153.71 324.497L1141.84 247.569L1142.35 247.486L1154.29 324.94L1154.03 324.976L1029.56 341.998Z" fill="#556A9E" fill-opacity="0.4"/>
<path d="M945.302 151.894L896.205 273.897L896.684 274.089L945.781 152.086L945.302 151.894Z" fill="#556A9E" fill-opacity="0.4"/>
<path d="M846.103 163.301L799.437 92.8253L698.055 163.095L697.762 162.673L799.571 92.0991L846.531 163.018L846.103 163.301Z" fill="#556A9E" fill-opacity="0.4"/>
<path d="M774.804 261.376L774.85 260.856L779.897 203.148L641.521 222.647L641.449 222.137L780.464 202.545L775.406 260.377L945.441 151.78L945.719 152.218L774.804 261.376Z" fill="#556A9E" fill-opacity="0.4"/>
<path d="M477.467 219.587L477.338 219.088L564.834 197.308L594.798 155.514L595.215 155.812L565.143 197.766L565.051 197.787L477.467 219.587Z" fill="#556A9E" fill-opacity="0.4"/>
<path d="M697.694 163.028L674.003 127.934L595.092 155.905L594.922 155.421L674.204 127.316L674.318 127.481L698.122 162.74L697.694 163.028Z" fill="#556A9E" fill-opacity="0.4"/>
<path d="M1091.62 157.773L992.308 207.127L992.539 207.588L1091.85 158.234L1091.62 157.773Z" fill="#556A9E" fill-opacity="0.4"/>
<path d="M1154.14 324.93L1153.85 324.508L1273.74 242.975L1252.98 138.884L1253.48 138.786L1274.31 243.206L1274.17 243.304L1154.14 324.93Z" fill="#556A9E" fill-opacity="0.4"/>
<path d="M1241.61 424.865L1153.26 324.266L1154.06 324.472L1333.47 369.804L1394.24 290.248L1253.04 139.012L1253.41 138.662L1394.92 290.218L1394.78 290.388L1333.67 370.386L1333.51 370.345L1154.74 325.172L1242 424.525L1241.61 424.865Z" fill="#556A9E" fill-opacity="0.4"/>
<path d="M1176.13 131.156L1091.68 157.784L1091.83 158.275L1176.28 131.648L1176.13 131.156Z" fill="#556A9E" fill-opacity="0.4"/>
<path d="M1242.06 424.736L1241.55 424.648L1273.75 243.17L1175.79 131.297L1176.07 131.138L1317.21 49.4552L1358.57 95.6991L1358.18 96.0442L1317.11 50.1144L1176.6 131.426L1274.3 243.016L1274.28 243.139L1242.06 424.736Z" fill="#556A9E" fill-opacity="0.4"/>
<path d="M1394.48 290.47L1273.65 243.222L1358.24 95.5961L1430.9 104.805L1385.56 40.736L1385.98 40.4373L1432 105.464L1358.51 96.1472L1274.4 242.959L1394.67 289.991L1394.48 290.47Z" fill="#556A9E" fill-opacity="0.4"/>
<path d="M641.676 222.57L641.3 222.214L697.345 163.1L594.989 155.921L595.025 155.406L698.472 162.662L641.676 222.57Z" fill="#556A9E" fill-opacity="0.4"/>
<path d="M100.514 291.253L100.05 290.98L2.20215 233.303L87.4606 204.745L80.7561 158.455L81.266 158.382L87.9602 204.58L158.887 180.822L244.511 147.371L244.697 147.85L159.063 181.306L88.0328 205.1L100.514 291.253ZM3.43898 233.431L99.8546 290.259L87.543 205.26L3.43898 233.431Z" fill="#556A9E" fill-opacity="0.4"/>
<path d="M522.356 350.048L476.946 218.81L584.74 274.942L584.498 275.4L477.858 219.866L522.84 349.883L522.356 350.048Z" fill="#556A9E" fill-opacity="0.4"/>
<path d="M595.226 155.535L594.804 155.83L641.279 222.557L641.702 222.263L595.226 155.535Z" fill="#556A9E" fill-opacity="0.4"/>
<path d="M944.019 100.844L943.834 101.325L1091.6 158.249L1091.79 157.768L944.019 100.844Z" fill="#556A9E" fill-opacity="0.4"/>
<path d="M1274.07 243.397L1091.7 158.31L945.57 152.259L845.97 163.455L857.769 119.395L799.396 92.6966L799.613 92.2279L858.377 119.107L858.32 119.318L846.665 162.863L945.549 151.744L1091.83 157.795L1091.87 157.821L1273.98 242.789L1431.28 104.944L1431.62 105.33L1274.07 243.397Z" fill="#556A9E" fill-opacity="0.4"/>
<path d="M1029.69 341.941L1029.36 341.545L1141.87 247.378L1175.95 131.292L1176.44 131.436L1142.32 247.677L1142.26 247.723L1029.69 341.941Z" fill="#556A9E" fill-opacity="0.4"/>
<path d="M73.828 3.01782L73.3135 3.04242L80.755 158.432L81.2695 158.407L73.828 3.01782Z" fill="#556A9E" fill-opacity="0.4"/>
<path d="M340.655 150.426L258.045 211.338L258.351 211.753L340.961 150.841L340.655 150.426Z" fill="#556A9E" fill-opacity="0.4"/>
<path d="M425.407 228.654L425.005 228.976L522.392 350.114L522.794 349.791L425.407 228.654Z" fill="#556A9E" fill-opacity="0.4"/>
<path d="M896.38 274.262L896.236 274.175L780.047 203.066L780.315 202.628L896.364 273.649L992.261 207.109L992.555 207.531L896.38 274.262Z" fill="#556A9E" fill-opacity="0.4"/>
<path d="M1253.19 138.47L1091.74 157.824L1091.8 158.334L1253.25 138.981L1253.19 138.47Z" fill="#556A9E" fill-opacity="0.4"/>
<path d="M411.111 350.903L373.955 270.647L294.814 334.705L258.075 212.017L183.582 286.247L183.216 285.881L258.322 211.043L295.087 333.819L373.728 270.163L340.082 197.488L400.892 248.176L425.541 228.225L421.202 265.105L522.762 349.764L522.433 350.161L421.129 265.718L411.106 350.897L411.111 350.903ZM374.367 270.312L410.812 349.028L420.66 265.327L400.892 248.846L374.372 270.312H374.367ZM341.514 199.352L374.146 269.833L400.485 248.511L341.514 199.352ZM401.299 248.516L420.732 264.714L424.886 229.425L401.299 248.516Z" fill="#556A9E" fill-opacity="0.4"/>
<path d="M698.132 162.758L697.726 163.076L774.922 261.077L775.324 260.758L698.132 162.758Z" fill="#556A9E" fill-opacity="0.4"/>
<path d="M565.056 197.787L564.922 197.287L697.875 162.626H697.911L846.314 162.899V163.414L697.942 163.141L565.056 197.787Z" fill="#556A9E" fill-opacity="0.4"/>
<path d="M46.4803 361.871L46.0342 362.129L88.4571 435.443L88.9031 435.185L46.4803 361.871Z" fill="#556A9E" fill-opacity="0.4"/>
<path d="M1142.07 247.143L896.359 273.689L896.416 274.201L1142.13 247.655L1142.07 247.143Z" fill="#556A9E" fill-opacity="0.4"/>
<path d="M1385.77 43.5789C1387.42 43.5789 1388.77 42.2392 1388.77 40.5866C1388.77 38.9341 1387.42 37.5944 1385.77 37.5944C1384.12 37.5944 1382.78 38.9341 1382.78 40.5866C1382.78 42.2392 1384.12 43.5789 1385.77 43.5789Z" fill="#556A9E" fill-opacity="0.4"/>
<path d="M1317.16 52.7773C1318.81 52.7773 1320.15 51.4375 1320.15 49.7849C1320.15 48.1323 1318.81 46.7926 1317.16 46.7926C1315.51 46.7926 1314.17 48.1323 1314.17 49.7849C1314.17 51.4375 1315.51 52.7773 1317.16 52.7773Z" fill="#556A9E" fill-opacity="0.4"/>
<path d="M1176.2 134.357C1177.85 134.357 1179.19 133.017 1179.19 131.364C1179.19 129.712 1177.85 128.372 1176.2 128.372C1174.54 128.372 1173.2 129.712 1173.2 131.364C1173.2 133.017 1174.54 134.357 1176.2 134.357Z" fill="#556A9E" fill-opacity="0.4"/>
<path d="M945.58 154.994C947.233 154.994 948.573 153.654 948.573 152.001C948.573 150.349 947.233 149.009 945.58 149.009C943.927 149.009 942.588 150.349 942.588 152.001C942.588 153.654 943.927 154.994 945.58 154.994Z" fill="#556A9E" fill-opacity="0.4"/>
<path d="M697.221 165.799C699.399 166.288 701.31 164.377 700.821 162.199C700.574 161.102 699.688 160.216 698.591 159.969C696.412 159.479 694.496 161.39 694.991 163.569C695.238 164.666 696.124 165.557 697.221 165.799Z" fill="#556A9E" fill-opacity="0.4"/>
<path d="M941.805 103.193C944.998 105.644 948.639 102.003 946.187 98.815C942.999 96.3635 939.353 100.005 941.805 103.193Z" fill="#556A9E" fill-opacity="0.4"/>
<path d="M340.798 201.413C342.451 201.413 343.792 200.073 343.792 198.42C343.792 196.768 342.451 195.428 340.798 195.428C339.144 195.428 337.804 196.768 337.804 198.42C337.804 200.073 339.144 201.413 340.798 201.413Z" fill="#556A9E" fill-opacity="0.4"/>
<path d="M158.97 184.056C160.619 184.056 161.964 182.712 161.964 181.064C161.964 179.416 160.619 178.072 158.97 178.072C157.321 178.072 155.976 179.416 155.976 181.064C155.976 182.712 157.321 184.056 158.97 184.056Z" fill="#556A9E" fill-opacity="0.4"/>
<path d="M775.103 263.735C776.756 263.735 778.1 262.396 778.1 260.743C778.1 259.09 776.756 257.751 775.103 257.751C773.449 257.751 772.11 259.09 772.11 260.743C772.11 262.396 773.449 263.735 775.103 263.735Z" fill="#556A9E" fill-opacity="0.4"/>
<path d="M2.82032 236.362C4.47394 236.362 5.81447 235.022 5.81447 233.369C5.81447 231.717 4.47394 230.377 2.82032 230.377C1.16669 230.377 -0.173828 231.717 -0.173828 233.369C-0.173828 235.022 1.16669 236.362 2.82032 236.362Z" fill="#556A9E" fill-opacity="0.4"/>
<path d="M212.761 438.569C214.941 439.059 216.853 437.148 216.364 434.969C216.116 433.872 215.229 432.987 214.132 432.739C211.952 432.25 210.04 434.161 210.529 436.339C210.777 437.436 211.663 438.327 212.761 438.569Z" fill="#556A9E" fill-opacity="0.4"/>
<path d="M100.185 293.751C101.838 293.751 103.179 292.411 103.179 290.758C103.179 289.106 101.838 287.766 100.185 287.766C98.531 287.766 97.1904 289.106 97.1904 290.758C97.1904 292.411 98.531 293.751 100.185 293.751Z" fill="#556A9E" fill-opacity="0.4"/>
<path d="M425.211 231.819C426.865 231.819 428.205 230.48 428.205 228.827C428.205 227.174 426.865 225.835 425.211 225.835C423.557 225.835 422.217 227.174 422.217 228.827C422.217 230.48 423.557 231.819 425.211 231.819Z" fill="#556A9E" fill-opacity="0.4"/>
<path d="M584.926 278.161C586.579 278.161 587.923 276.821 587.923 275.169C587.923 273.516 586.579 272.176 584.926 272.176C583.273 272.176 581.934 273.516 581.934 275.169C581.934 276.821 583.273 278.161 584.926 278.161Z" fill="#556A9E" fill-opacity="0.4"/>
<path d="M846.315 166.149C847.968 166.149 849.307 164.809 849.307 163.157C849.307 161.504 847.968 160.164 846.315 160.164C844.661 160.164 843.322 161.504 843.322 163.157C843.322 164.809 844.661 166.149 846.315 166.149Z" fill="#556A9E" fill-opacity="0.4"/>
<path d="M799.504 95.452C801.157 95.452 802.501 94.1124 802.501 92.4597C802.501 90.807 801.157 89.4674 799.504 89.4674C797.851 89.4674 796.512 90.807 796.512 92.4597C796.512 94.1124 797.851 95.452 799.504 95.452Z" fill="#556A9E" fill-opacity="0.4"/>
<path d="M674.102 130.618C675.755 130.618 677.094 129.278 677.094 127.625C677.094 125.973 675.755 124.633 674.102 124.633C672.448 124.633 671.109 125.973 671.109 127.625C671.109 129.278 672.448 130.618 674.102 130.618Z" fill="#556A9E" fill-opacity="0.4"/>
<path d="M780.181 205.842C781.834 205.842 783.173 204.502 783.173 202.849C783.173 201.197 781.834 199.857 780.181 199.857C778.527 199.857 777.188 201.197 777.188 202.849C777.188 204.502 778.527 205.842 780.181 205.842Z" fill="#556A9E" fill-opacity="0.4"/>
<path d="M1029.53 344.733C1031.18 344.733 1032.52 343.388 1032.52 341.74C1032.52 340.092 1031.18 338.748 1029.53 338.748C1027.88 338.748 1026.54 340.092 1026.54 341.74C1026.54 343.388 1027.88 344.733 1029.53 344.733Z" fill="#556A9E" fill-opacity="0.4"/>
<path d="M1274.02 246.085C1275.67 246.085 1277.01 244.741 1277.01 243.093C1277.01 241.445 1275.67 240.101 1274.02 240.101C1272.37 240.101 1271.02 241.445 1271.02 243.093C1271.02 244.741 1272.37 246.085 1274.02 246.085Z" fill="#556A9E" fill-opacity="0.4"/>
<path d="M1394.58 293.225C1396.23 293.225 1397.57 291.886 1397.57 290.233C1397.57 288.58 1396.23 287.241 1394.58 287.241C1392.92 287.241 1391.58 288.58 1391.58 290.233C1391.58 291.886 1392.92 293.225 1394.58 293.225Z" fill="#556A9E" fill-opacity="0.4"/>
<path d="M46.2432 365.004C47.8923 365.004 49.2373 363.66 49.2373 362.012C49.2373 360.363 47.8923 359.019 46.2432 359.019C44.5941 359.019 43.249 360.363 43.249 362.012C43.249 363.66 44.5941 365.004 46.2432 365.004Z" fill="#556A9E" fill-opacity="0.4"/>
<path d="M641.485 225.382C643.139 225.382 644.478 224.042 644.478 222.389C644.478 220.737 643.139 219.397 641.485 219.397C639.832 219.397 638.493 220.737 638.493 222.389C638.493 224.042 639.832 225.382 641.485 225.382Z" fill="#556A9E" fill-opacity="0.4"/>
<path d="M858.072 122.243C859.726 122.243 861.07 120.904 861.07 119.251C861.07 117.598 859.726 116.259 858.072 116.259C856.419 116.259 855.08 117.598 855.08 119.251C855.08 120.904 856.419 122.243 858.072 122.243Z" fill="#556A9E" fill-opacity="0.4"/>
<path d="M1154 327.711C1155.65 327.711 1157 326.372 1157 324.719C1157 323.066 1155.65 321.727 1154 321.727C1152.35 321.727 1151.01 323.066 1151.01 324.719C1151.01 326.372 1152.35 327.711 1154 327.711Z" fill="#556A9E" fill-opacity="0.4"/>
<path d="M1333.57 373.09C1335.22 373.09 1336.56 371.746 1336.56 370.098C1336.56 368.449 1335.22 367.105 1333.57 367.105C1331.92 367.105 1330.58 368.449 1330.58 370.098C1330.58 371.746 1331.92 373.09 1333.57 373.09Z" fill="#556A9E" fill-opacity="0.4"/>
<path d="M1241.8 427.687C1243.46 427.687 1244.8 426.348 1244.8 424.695C1244.8 423.042 1243.46 421.703 1241.8 421.703C1240.15 421.703 1238.81 423.042 1238.81 424.695C1238.81 426.348 1240.15 427.687 1241.8 427.687Z" fill="#556A9E" fill-opacity="0.4"/>
<path d="M1420.85 397.383C1422.51 397.383 1423.85 396.044 1423.85 394.391C1423.85 392.738 1422.51 391.399 1420.85 391.399C1419.19 391.399 1417.86 392.738 1417.86 394.391C1417.86 396.044 1419.19 397.383 1420.85 397.383Z" fill="#556A9E" fill-opacity="0.4"/>
<path d="M894.18 276.147C897.368 278.599 901.015 274.958 898.558 271.77C895.37 269.318 891.724 272.959 894.18 276.147Z" fill="#556A9E" fill-opacity="0.4"/>
<path d="M992.442 210.312C994.095 210.312 995.434 208.972 995.434 207.32C995.434 205.667 994.095 204.328 992.442 204.328C990.789 204.328 989.444 205.667 989.444 207.32C989.444 208.972 990.789 210.312 992.442 210.312Z" fill="#556A9E" fill-opacity="0.4"/>
<path d="M1091.76 161.045C1093.41 161.045 1094.76 159.701 1094.76 158.053C1094.76 156.405 1093.41 155.061 1091.76 155.061C1090.12 155.061 1088.77 156.405 1088.77 158.053C1088.77 159.701 1090.12 161.045 1091.76 161.045Z" fill="#556A9E" fill-opacity="0.4"/>
<path d="M1142.09 250.52C1143.74 250.52 1145.08 249.18 1145.08 247.527C1145.08 245.875 1143.74 244.535 1142.09 244.535C1140.44 244.535 1139.09 245.875 1139.09 247.527C1139.09 249.18 1140.44 250.52 1142.09 250.52Z" fill="#556A9E" fill-opacity="0.4"/>
<path d="M1253.23 141.83C1254.88 141.83 1256.22 140.49 1256.22 138.837C1256.22 137.185 1254.88 135.845 1253.23 135.845C1251.57 135.845 1250.24 137.185 1250.24 138.837C1250.24 140.49 1251.57 141.83 1253.23 141.83Z" fill="#556A9E" fill-opacity="0.4"/>
<path d="M1358.38 98.8614C1360.03 98.8614 1361.37 97.5218 1361.37 95.8691C1361.37 94.2164 1360.03 92.8768 1358.38 92.8768C1356.72 92.8768 1355.38 94.2164 1355.38 95.8691C1355.38 97.5218 1356.72 98.8614 1358.38 98.8614Z" fill="#556A9E" fill-opacity="0.4"/>
<path d="M1431.45 108.127C1433.1 108.127 1434.44 106.787 1434.44 105.134C1434.44 103.482 1433.1 102.142 1431.45 102.142C1429.79 102.142 1428.45 103.482 1428.45 105.134C1428.45 106.787 1429.79 108.127 1431.45 108.127Z" fill="#556A9E" fill-opacity="0.4"/>
<path d="M258.198 214.52C259.852 214.52 261.193 213.18 261.193 211.527C261.193 209.875 259.852 208.535 258.198 208.535C256.545 208.535 255.204 209.875 255.204 211.527C255.204 213.18 256.545 214.52 258.198 214.52Z" fill="#556A9E" fill-opacity="0.4"/>
<path d="M244.605 150.606C246.258 150.606 247.599 149.266 247.599 147.613C247.599 145.961 246.258 144.621 244.605 144.621C242.951 144.621 241.61 145.961 241.61 147.613C241.61 149.266 242.951 150.606 244.605 150.606Z" fill="#556A9E" fill-opacity="0.4"/>
<path d="M81.4969 161.369C83.129 161.105 84.2373 159.567 83.9726 157.936C83.7073 156.305 82.1695 155.197 80.5374 155.462C78.9048 155.727 77.7964 157.264 78.0617 158.895C78.3264 160.526 79.8642 161.634 81.4969 161.369Z" fill="#556A9E" fill-opacity="0.4"/>
<path d="M27.376 139.898C29.0296 139.898 30.3701 138.559 30.3701 136.906C30.3701 135.253 29.0296 133.914 27.376 133.914C25.7224 133.914 24.3818 135.253 24.3818 136.906C24.3818 138.559 25.7224 139.898 27.376 139.898Z" fill="#556A9E" fill-opacity="0.4"/>
<path d="M88.6613 438.322C90.3145 438.322 91.6551 436.983 91.6551 435.33C91.6551 433.677 90.3145 432.338 88.6613 432.338C87.0076 432.338 85.667 433.677 85.667 435.33C85.667 436.983 87.0076 438.322 88.6613 438.322Z" fill="#556A9E" fill-opacity="0.4"/>
<path d="M410.962 352.957C412.611 352.957 413.956 351.613 413.956 349.965C413.956 348.317 412.611 346.973 410.962 346.973C409.312 346.973 407.968 348.317 407.968 349.965C407.968 351.613 409.312 352.957 410.962 352.957Z" fill="#556A9E" fill-opacity="0.4"/>
<path d="M595.01 158.655C596.663 158.655 598.007 157.316 598.007 155.663C598.007 154.01 596.663 152.671 595.01 152.671C593.357 152.671 592.018 154.01 592.018 155.663C592.018 157.316 593.357 158.655 595.01 158.655Z" fill="#556A9E" fill-opacity="0.4"/>
<path d="M564.99 200.527C566.643 200.527 567.982 199.187 567.982 197.534C567.982 195.882 566.643 194.542 564.99 194.542C563.336 194.542 561.992 195.882 561.992 197.534C561.992 199.187 563.336 200.527 564.99 200.527Z" fill="#556A9E" fill-opacity="0.4"/>
<path d="M340.798 153.598C342.451 153.598 343.792 152.258 343.792 150.606C343.792 148.953 342.451 147.613 340.798 147.613C339.144 147.613 337.804 148.953 337.804 150.606C337.804 152.258 339.144 153.598 340.798 153.598Z" fill="#556A9E" fill-opacity="0.4"/>
<path d="M144.396 113.406C146.045 113.406 147.39 112.061 147.39 110.413C147.39 108.765 146.045 107.421 144.396 107.421C142.747 107.421 141.401 108.765 141.401 110.413C141.401 112.061 142.747 113.406 144.396 113.406Z" fill="#556A9E" fill-opacity="0.4"/>
<path d="M72.8865 5.94636C75.0666 6.43563 76.9784 4.52488 76.4891 2.34634C76.2414 1.24934 75.355 0.363508 74.2575 0.116298C72.0774 -0.372973 70.1657 1.53775 70.6555 3.7163C70.9027 4.81329 71.789 5.69915 72.8865 5.94636Z" fill="#556A9E" fill-opacity="0.4"/>
<path d="M183.396 289.054C185.05 289.054 186.39 287.714 186.39 286.061C186.39 284.409 185.05 283.069 183.396 283.069C181.743 283.069 180.402 284.409 180.402 286.061C180.402 287.714 181.743 289.054 183.396 289.054Z" fill="#556A9E" fill-opacity="0.4"/>
<path d="M294.953 337.255C296.602 337.255 297.947 335.91 297.947 334.262C297.947 332.614 296.602 331.27 294.953 331.27C293.304 331.27 291.959 332.614 291.959 334.262C291.959 335.91 293.304 337.255 294.953 337.255Z" fill="#556A9E" fill-opacity="0.4"/>
<path d="M522.598 352.957C524.251 352.957 525.59 351.618 525.59 349.965C525.59 348.312 524.251 346.973 522.598 346.973C520.945 346.973 519.601 348.312 519.601 349.965C519.601 351.618 520.945 352.957 522.598 352.957Z" fill="#556A9E" fill-opacity="0.4"/>
<path d="M477.4 222.389C479.054 222.389 480.394 221.05 480.394 219.397C480.394 217.744 479.054 216.405 477.4 216.405C475.747 216.405 474.406 217.744 474.406 219.397C474.406 221.05 475.747 222.389 477.4 222.389Z" fill="#556A9E" fill-opacity="0.4"/>
<path d="M404.768 96.0699L442.11 231.299L441.615 231.438L404.716 97.821L342.566 281.266L292.026 191.421L160.258 195.85L160.237 195.34L292.325 190.896L292.397 191.035L342.447 280.005L404.768 96.0699Z" fill="#556A9E" fill-opacity="0.4"/>
<path d="M12.9316 43.4246L13.6016 44.1147L160.433 195.418L160.062 195.773L13.9056 45.1653L39.9357 148.391L39.4358 148.52L12.9316 43.4246Z" fill="#556A9E" fill-opacity="0.4"/>
<path d="M912.243 87.6288L869.269 242.146L849.091 163.579L849.575 163.455L849.451 163.352L912.248 87.6288H912.243ZM869.29 240.152L911.099 89.8125L849.843 163.677L849.596 163.471L869.29 240.147V240.152Z" fill="#556A9E" fill-opacity="0.4"/>
<path d="M1387.82 76.494L1388.24 76.8082L1334.29 148.087L1275.2 258.348L1275.04 257.679L1250.69 153.021L1093.49 240.549L1008.97 210.101L1009.14 209.617L1093.45 239.988L1251.04 152.238L1275.39 256.896L1333.85 147.809L1387.82 76.494Z" fill="#556A9E" fill-opacity="0.4"/>
<path d="M1023.34 88.4683L1139.66 104.212L1139.56 104.511L1093.85 239.946L1175.93 226.906L1176.01 227.416L1093.09 240.59L1138.97 104.64L1023.27 88.9781L1023.34 88.4683Z" fill="#556A9E" fill-opacity="0.4"/>
<path d="M1176.32 227.107L1189.87 290.805L1353.23 280.01L1353.27 280.525L1189.46 291.351L1189.41 291.129L1175.82 227.215L1176.32 227.107Z" fill="#556A9E" fill-opacity="0.4"/>
<path d="M1345.95 2.34131L1334.29 148.607L1289.83 91.7232L1251.09 152.758L1250.65 152.48L1289.49 91.2854L1220.62 3.19109L1221.02 2.87179L1289.78 90.8322L1345.95 2.34131H1345.95ZM1333.88 147.253L1345.27 4.37565L1290.12 91.27L1333.89 147.253H1333.88Z" fill="#556A9E" fill-opacity="0.4"/>
<path d="M1176.25 226.987L1175.91 227.372L1289.78 328.303L1290.13 327.918L1176.25 226.987Z" fill="#556A9E" fill-opacity="0.4"/>
<path d="M442.057 231.201L488.84 286.473L576.283 319.445L576.103 319.929L488.537 286.906L488.49 286.855L441.666 231.536L442.057 231.201Z" fill="#556A9E" fill-opacity="0.4"/>
<path d="M39.95 148.401L39.4434 148.495L75.6638 342.854L76.1706 342.76L39.95 148.401Z" fill="#556A9E" fill-opacity="0.4"/>
<path d="M100.927 68.4783L100.46 68.6966L160.015 195.697L160.482 195.479L100.927 68.4783Z" fill="#556A9E" fill-opacity="0.4"/>
<path d="M659.233 177.696L792.85 216.049L869.362 240.904L869.202 241.394L792.701 216.544L659.089 178.19L659.233 177.696Z" fill="#556A9E" fill-opacity="0.4"/>
<path d="M654.078 235.548L736.476 275.576L736.25 276.039L654.104 236.13L588.655 275.411L760.214 310.808L760.111 311.313L587.254 275.648L654.078 235.548Z" fill="#556A9E" fill-opacity="0.4"/>
<path d="M956.751 219.178L839.161 282.88L839.408 283.332L956.998 219.631L956.751 219.178Z" fill="#556A9E" fill-opacity="0.4"/>
<path d="M1009.01 209.599L956.817 219.078L956.91 219.585L1009.11 210.106L1009.01 209.599Z" fill="#556A9E" fill-opacity="0.4"/>
<path d="M1176.14 226.911L1275.37 257.375L1353.32 280.02L1353.18 280.515L1275.22 257.869L1176 227.406L1176.14 226.911Z" fill="#556A9E" fill-opacity="0.4"/>
<path d="M1406.65 301.697L1407.13 301.862L1360.77 436.236L1289.66 328.417L1290.09 328.133L1360.62 435.078L1406.65 301.697Z" fill="#556A9E" fill-opacity="0.4"/>
<path d="M1220.8 2.43909L1251.05 152.228L1388.17 76.2982L1431.69 205.234L1431.2 205.399L1387.89 77.045L1250.69 153.021L1250.65 152.81L1138.91 104.527L1139.12 104.264L1220.8 2.43909ZM1250.52 152.197L1220.52 3.62364L1139.73 104.326L1250.52 152.197Z" fill="#556A9E" fill-opacity="0.4"/>
<path d="M956.977 219.119L1093.53 287.828L1189.67 290.82L1189.65 291.335L1093.4 288.338L1093.35 288.312L956.745 219.582L956.977 219.119Z" fill="#556A9E" fill-opacity="0.4"/>
<path d="M1431.92 204.508L1407.07 302.125L1353.3 280.556L1289.71 328.721L1275.05 257.668L1275.55 257.565L1290.05 327.819L1353.09 280.072L1431.92 204.508H1431.92ZM1406.71 301.43L1430.98 206.125L1353.72 280.175L1406.71 301.43Z" fill="#556A9E" fill-opacity="0.4"/>
<path d="M1023.09 88.6196L956.658 219.252L957.117 219.485L1023.55 88.8529L1023.09 88.6196Z" fill="#556A9E" fill-opacity="0.4"/>
<path d="M1009.23 209.673L1093.21 287.493V240.271H1093.73V288.672L1008.88 210.049L1009.23 209.673Z" fill="#556A9E" fill-opacity="0.4"/>
<path d="M849.173 163.346L792.634 216.148L792.984 216.525L849.523 163.723L849.173 163.346Z" fill="#556A9E" fill-opacity="0.4"/>
<path d="M488.949 286.679L490.515 337.255L576.139 319.188L576.247 319.687L490.02 337.883L488.434 286.695L488.949 286.679Z" fill="#556A9E" fill-opacity="0.4"/>
<path d="M404.855 96.7189L538.094 164.542L538.136 164.624L588.191 275.421L587.717 275.632L537.698 164.918L404.623 97.1772L404.855 96.7189Z" fill="#556A9E" fill-opacity="0.4"/>
<path d="M291.995 190.978L292.356 191.344L181.613 299.648L258.095 307.069L258.044 307.584L181.155 300.127L117.252 389.148L117.144 389.163L48.0518 398.429L75.7052 342.621L75.7927 342.585L180.902 299.637L291.995 190.983V190.978ZM116.964 388.659L180.304 300.425L76.076 343.012L48.9433 397.775L116.964 388.654V388.659Z" fill="#556A9E" fill-opacity="0.4"/>
<path d="M404.706 96.6931L404.773 97.203L280.564 114.188L292.427 191.122L291.918 191.2L279.972 113.745L280.235 113.715L404.706 96.6931Z" fill="#556A9E" fill-opacity="0.4"/>
<path d="M537.616 164.623L488.516 286.625L488.994 286.817L538.095 164.815L537.616 164.623Z" fill="#556A9E" fill-opacity="0.4"/>
<path d="M588.17 275.385L634.831 345.866L736.213 275.596L736.506 276.018L634.692 346.587L587.737 275.668L588.17 275.385Z" fill="#556A9E" fill-opacity="0.4"/>
<path d="M659.465 177.309L659.418 177.835L654.376 235.538L792.742 216.039L792.814 216.549L653.805 236.14L658.857 178.309L488.825 286.906L488.552 286.473L659.465 177.309Z" fill="#556A9E" fill-opacity="0.4"/>
<path d="M956.802 219.098L956.926 219.598L869.434 241.378L839.465 283.172L839.048 282.873L869.125 240.925L869.218 240.899L956.802 219.098Z" fill="#556A9E" fill-opacity="0.4"/>
<path d="M736.574 275.663L760.265 310.752L839.171 282.781L839.341 283.265L760.059 311.37L759.951 311.205L736.146 275.951L736.574 275.663Z" fill="#556A9E" fill-opacity="0.4"/>
<path d="M441.725 231.09L342.414 280.444L342.644 280.906L441.954 231.552L441.725 231.09Z" fill="#556A9E" fill-opacity="0.4"/>
<path d="M280.122 113.756L280.415 114.178L160.531 195.711L181.289 299.802L180.784 299.9L159.959 195.479L160.103 195.382L280.122 113.756Z" fill="#556A9E" fill-opacity="0.4"/>
<path d="M192.658 13.8262L281.008 114.42L280.204 114.219L100.798 68.882L40.0235 148.437L181.228 299.673L180.851 300.029L39.3535 148.473L39.4823 148.298L100.592 68.3L100.757 68.3412L279.529 113.514L192.271 14.1661L192.658 13.8262Z" fill="#556A9E" fill-opacity="0.4"/>
<path d="M342.432 280.422L257.979 307.05L258.134 307.54L342.587 280.913L342.432 280.422Z" fill="#556A9E" fill-opacity="0.4"/>
<path d="M192.209 13.95L192.719 14.0375L160.521 195.521L258.472 307.388L258.204 307.548L117.056 389.23L75.7002 342.987L76.0813 342.647L117.159 388.571L257.673 307.26L159.969 195.67L159.995 195.551L192.209 13.95Z" fill="#556A9E" fill-opacity="0.4"/>
<path d="M39.7811 148.216L160.619 195.464L76.0303 343.095L3.37209 333.881L48.7069 397.955L48.2894 398.248L2.27441 333.222L75.7522 342.539L159.877 195.727L39.5956 148.695L39.7811 148.216Z" fill="#556A9E" fill-opacity="0.4"/>
<path d="M792.592 216.121L792.963 216.472L736.924 275.586L839.274 282.765L839.238 283.28L735.796 276.024L792.592 216.121Z" fill="#556A9E" fill-opacity="0.4"/>
<path d="M1333.75 147.438L1334.22 147.711L1432.06 205.383L1346.81 233.941L1353.51 280.231L1353 280.303L1346.31 234.106L1275.38 257.864L1189.76 291.315L1189.57 290.836L1275.2 257.38L1346.24 233.586L1333.75 147.433V147.438ZM1430.83 205.255L1334.41 148.427L1346.72 233.426L1430.82 205.255H1430.83Z" fill="#556A9E" fill-opacity="0.4"/>
<path d="M911.918 88.6382L957.317 219.876L849.528 163.744L849.765 163.291L956.411 218.82L911.429 88.8081L911.918 88.6382Z" fill="#556A9E" fill-opacity="0.4"/>
<path d="M792.999 216.174L792.577 216.468L839.053 283.196L839.475 282.902L792.999 216.174Z" fill="#556A9E" fill-opacity="0.4"/>
<path d="M342.577 280.366L342.392 280.847L490.159 337.771L490.344 337.29L342.577 280.366Z" fill="#556A9E" fill-opacity="0.4"/>
<path d="M160.206 195.289L342.566 280.381L488.702 286.432L588.299 275.23L576.495 319.296L634.867 345.989L634.656 346.458L575.887 319.579L575.944 319.373L587.604 275.828L488.717 286.942L342.442 280.891L342.396 280.87L160.289 195.902L2.99052 333.747L2.65039 333.356L160.206 195.289Z" fill="#556A9E" fill-opacity="0.4"/>
<path d="M404.577 96.7498L404.907 97.1412L292.402 191.308L258.317 307.399L257.822 307.254L291.949 191.014L292.01 190.963L404.577 96.7498Z" fill="#556A9E" fill-opacity="0.4"/>
<path d="M1353.51 280.254L1353 280.279L1360.44 435.668L1360.95 435.643L1353.51 280.254Z" fill="#556A9E" fill-opacity="0.4"/>
<path d="M1175.95 227.035L1093.34 287.947L1093.65 288.361L1176.26 227.449L1175.95 227.035Z" fill="#556A9E" fill-opacity="0.4"/>
<path d="M911.856 88.5408L911.454 88.8637L1008.84 210.001L1009.25 209.678L911.856 88.5408Z" fill="#556A9E" fill-opacity="0.4"/>
<path d="M537.884 164.424L538.028 164.511L654.227 235.62L653.954 236.058L537.904 165.036L442.006 231.582L441.713 231.155L537.884 164.424Z" fill="#556A9E" fill-opacity="0.4"/>
<path d="M342.477 280.302L181.028 299.656L181.09 300.167L342.539 280.813L342.477 280.302Z" fill="#556A9E" fill-opacity="0.4"/>
<path d="M1023.16 87.7883L1060.32 168.044L1139.45 103.986L1176.2 226.674L1250.69 152.444L1251.05 152.81L1175.95 227.648L1139.18 104.872L1060.54 168.528L1094.19 241.203L1033.38 190.515L1008.73 210.466L1013.07 173.586L911.511 88.9265L911.84 88.53L1013.14 172.973L1023.16 87.7935L1023.16 87.7883ZM1059.9 168.374L1023.45 89.6579L1013.6 173.359L1033.38 189.84L1059.89 168.374H1059.9ZM1092.75 239.339L1060.12 168.858L1033.78 190.18L1092.75 239.339ZM1032.97 190.175L1013.54 173.977L1009.39 209.266L1032.97 190.175Z" fill="#556A9E" fill-opacity="0.4"/>
<path d="M659.382 177.687L658.976 178.006L736.172 276.007L736.579 275.688L659.382 177.687Z" fill="#556A9E" fill-opacity="0.4"/>
<path d="M869.218 240.899L869.346 241.399L736.394 276.065H736.363L587.954 275.787V275.272L736.327 275.55L869.218 240.899Z" fill="#556A9E" fill-opacity="0.4"/>
<path d="M1345.79 3.16736L1345.34 3.42518L1387.77 76.7392L1388.21 76.4816L1345.79 3.16736Z" fill="#556A9E" fill-opacity="0.4"/>
<path d="M537.873 164.385L292.162 190.931L292.217 191.443L537.93 164.897L537.873 164.385Z" fill="#556A9E" fill-opacity="0.4"/>
<path d="M48.5 401.091C50.1536 401.091 51.4942 399.752 51.4942 398.099C51.4942 396.447 50.1536 395.107 48.5 395.107C46.8464 395.107 45.5059 396.447 45.5059 398.099C45.5059 399.752 46.8464 401.091 48.5 401.091Z" fill="#556A9E" fill-opacity="0.4"/>
<path d="M117.108 391.893C118.761 391.893 120.102 390.553 120.102 388.901C120.102 387.248 118.761 385.908 117.108 385.908C115.454 385.908 114.113 387.248 114.113 388.901C114.113 390.553 115.454 391.893 117.108 391.893Z" fill="#556A9E" fill-opacity="0.4"/>
<path d="M258.07 310.319C259.723 310.319 261.064 308.979 261.064 307.327C261.064 305.674 259.723 304.334 258.07 304.334C256.416 304.334 255.075 305.674 255.075 307.327C255.075 308.979 256.416 310.319 258.07 310.319Z" fill="#556A9E" fill-opacity="0.4"/>
<path d="M488.692 289.682C490.345 289.682 491.685 288.342 491.685 286.69C491.685 285.037 490.345 283.698 488.692 283.698C487.038 283.698 485.697 285.037 485.697 286.69C485.697 288.342 487.038 289.682 488.692 289.682Z" fill="#556A9E" fill-opacity="0.4"/>
<path d="M737.048 272.887C734.864 272.398 732.953 274.309 733.442 276.487C733.69 277.584 734.576 278.47 735.673 278.717C737.856 279.206 739.767 277.296 739.278 275.117C739.03 274.02 738.145 273.134 737.048 272.887Z" fill="#556A9E" fill-opacity="0.4"/>
<path d="M492.459 335.498C489.269 333.047 485.625 336.688 488.078 339.876C491.268 342.327 494.911 338.686 492.459 335.498Z" fill="#556A9E" fill-opacity="0.4"/>
<path d="M1093.47 243.263C1095.12 243.263 1096.46 241.924 1096.46 240.271C1096.46 238.618 1095.12 237.279 1093.47 237.279C1091.81 237.279 1090.47 238.618 1090.47 240.271C1090.47 241.924 1091.81 243.263 1093.47 243.263Z" fill="#556A9E" fill-opacity="0.4"/>
<path d="M1275.3 254.63C1273.65 254.63 1272.3 255.974 1272.3 257.622C1272.3 259.27 1273.65 260.614 1275.3 260.614C1276.95 260.614 1278.29 259.27 1278.29 257.622C1278.29 255.974 1276.95 254.63 1275.3 254.63Z" fill="#556A9E" fill-opacity="0.4"/>
<path d="M659.161 180.935C660.814 180.935 662.159 179.596 662.159 177.943C662.159 176.29 660.814 174.951 659.161 174.951C657.508 174.951 656.169 176.29 656.169 177.943C656.169 179.596 657.508 180.935 659.161 180.935Z" fill="#556A9E" fill-opacity="0.4"/>
<path d="M1431.45 208.309C1433.1 208.309 1434.44 206.969 1434.44 205.316C1434.44 203.664 1433.1 202.324 1431.45 202.324C1429.79 202.324 1428.45 203.664 1428.45 205.316C1428.45 206.969 1429.79 208.309 1431.45 208.309Z" fill="#556A9E" fill-opacity="0.4"/>
<path d="M1221.51 0.116298C1219.33 -0.372973 1217.42 1.53775 1217.91 3.7163C1218.15 4.81329 1219.04 5.69915 1220.14 5.94636C1222.32 6.43563 1224.23 4.52488 1223.74 2.34634C1223.5 1.24934 1222.61 0.358358 1221.51 0.116298Z" fill="#556A9E" fill-opacity="0.4"/>
<path d="M1334.08 150.925C1335.74 150.925 1337.07 149.585 1337.07 147.933C1337.07 146.28 1335.74 144.94 1334.08 144.94C1332.43 144.94 1331.09 146.28 1331.09 147.933C1331.09 149.585 1332.43 150.925 1334.08 150.925Z" fill="#556A9E" fill-opacity="0.4"/>
<path d="M1009.06 212.851C1010.71 212.851 1012.05 211.511 1012.05 209.859C1012.05 208.206 1010.71 206.866 1009.06 206.866C1007.4 206.866 1006.06 208.206 1006.06 209.859C1006.06 211.511 1007.4 212.851 1009.06 212.851Z" fill="#556A9E" fill-opacity="0.4"/>
<path d="M849.343 166.509C850.996 166.509 852.34 165.17 852.34 163.517C852.34 161.864 850.996 160.525 849.343 160.525C847.69 160.525 846.351 161.864 846.351 163.517C846.351 165.17 847.69 166.509 849.343 166.509Z" fill="#556A9E" fill-opacity="0.4"/>
<path d="M587.954 278.521C589.608 278.521 590.947 277.182 590.947 275.529C590.947 273.876 589.608 272.537 587.954 272.537C586.296 272.537 584.957 273.876 584.957 275.529C584.957 277.182 586.296 278.521 587.954 278.521Z" fill="#556A9E" fill-opacity="0.4"/>
<path d="M634.759 349.218C636.412 349.218 637.756 347.879 637.756 346.226C637.756 344.573 636.412 343.234 634.759 343.234C633.106 343.234 631.767 344.573 631.767 346.226C631.767 347.879 633.106 349.218 634.759 349.218Z" fill="#556A9E" fill-opacity="0.4"/>
<path d="M760.162 314.053C761.821 314.053 763.16 312.713 763.16 311.061C763.16 309.408 761.821 308.068 760.162 308.068C758.509 308.068 757.17 309.408 757.17 311.061C757.17 312.713 758.509 314.053 760.162 314.053Z" fill="#556A9E" fill-opacity="0.4"/>
<path d="M654.093 238.834C655.746 238.834 657.085 237.494 657.085 235.842C657.085 234.189 655.746 232.849 654.093 232.849C652.435 232.849 651.096 234.189 651.096 235.842C651.096 237.494 652.435 238.834 654.093 238.834Z" fill="#556A9E" fill-opacity="0.4"/>
<path d="M404.742 93.9532C403.093 93.9532 401.748 95.2975 401.748 96.9455C401.748 98.5936 403.093 99.9378 404.742 99.9378C406.391 99.9378 407.736 98.5936 407.736 96.9455C407.736 95.2975 406.391 93.9532 404.742 93.9532Z" fill="#556A9E" fill-opacity="0.4"/>
<path d="M160.248 192.6C158.599 192.6 157.254 193.945 157.254 195.593C157.254 197.241 158.599 198.585 160.248 198.585C161.897 198.585 163.242 197.241 163.242 195.593C163.242 193.945 161.897 192.6 160.248 192.6Z" fill="#556A9E" fill-opacity="0.4"/>
<path d="M39.6885 151.445C41.3421 151.445 42.6826 150.105 42.6826 148.453C42.6826 146.8 41.3421 145.46 39.6885 145.46C38.0348 145.46 36.6943 146.8 36.6943 148.453C36.6943 150.105 38.0348 151.445 39.6885 151.445Z" fill="#556A9E" fill-opacity="0.4"/>
<path d="M1388.03 73.682C1386.38 73.682 1385.03 75.0262 1385.03 76.6743C1385.03 78.3223 1386.38 79.6666 1388.03 79.6666C1389.68 79.6666 1391.02 78.3223 1391.02 76.6743C1391.02 75.0262 1389.68 73.682 1388.03 73.682Z" fill="#556A9E" fill-opacity="0.4"/>
<path d="M792.778 219.289C794.432 219.289 795.776 217.949 795.776 216.296C795.776 214.644 794.432 213.304 792.778 213.304C791.125 213.304 789.786 214.644 789.786 216.296C789.786 217.949 791.125 219.289 792.778 219.289Z" fill="#556A9E" fill-opacity="0.4"/>
<path d="M576.192 322.432C577.845 322.432 579.184 321.093 579.184 319.44C579.184 317.787 577.845 316.448 576.192 316.448C574.538 316.448 573.199 317.787 573.199 319.44C573.199 321.093 574.538 322.432 576.192 322.432Z" fill="#556A9E" fill-opacity="0.4"/>
<path d="M280.271 116.959C281.924 116.959 283.265 115.62 283.265 113.967C283.265 112.314 281.924 110.975 280.271 110.975C278.617 110.975 277.276 112.314 277.276 113.967C277.276 115.62 278.617 116.959 280.271 116.959Z" fill="#556A9E" fill-opacity="0.4"/>
<path d="M100.695 65.6013C99.0454 65.6013 97.7002 66.9455 97.7002 68.5936C97.7002 70.2417 99.0454 71.5859 100.695 71.5859C102.344 71.5859 103.688 70.2417 103.688 68.5936C103.688 66.9455 102.344 65.6013 100.695 65.6013Z" fill="#556A9E" fill-opacity="0.4"/>
<path d="M192.462 16.9885C194.115 16.9885 195.456 15.6488 195.456 13.9962C195.456 12.3436 194.115 11.0039 192.462 11.0039C190.808 11.0039 189.468 12.3436 189.468 13.9962C189.468 15.6488 190.808 16.9885 192.462 16.9885Z" fill="#556A9E" fill-opacity="0.4"/>
<path d="M13.4209 47.2872C15.0745 47.2872 16.4151 45.9475 16.4151 44.2949C16.4151 42.6423 15.0745 41.3026 13.4209 41.3026C11.7673 41.3026 10.4268 42.6423 10.4268 44.2949C10.4268 45.9475 11.7673 47.2872 13.4209 47.2872Z" fill="#556A9E" fill-opacity="0.4"/>
<path d="M540.088 162.544C536.895 160.092 533.254 163.733 535.706 166.921C538.899 169.373 542.54 165.732 540.088 162.544Z" fill="#556A9E" fill-opacity="0.4"/>
<path d="M441.826 234.363C443.48 234.363 444.821 233.024 444.821 231.371C444.821 229.718 443.48 228.379 441.826 228.379C440.173 228.379 438.832 229.718 438.832 231.371C438.832 233.024 440.173 234.363 441.826 234.363Z" fill="#556A9E" fill-opacity="0.4"/>
<path d="M342.504 277.641C340.854 277.641 339.51 278.985 339.51 280.633C339.51 282.281 340.854 283.625 342.504 283.625C344.153 283.625 345.498 282.281 345.498 280.633C345.498 278.985 344.153 277.641 342.504 277.641Z" fill="#556A9E" fill-opacity="0.4"/>
<path d="M292.175 194.151C293.829 194.151 295.17 192.811 295.17 191.158C295.17 189.506 293.829 188.166 292.175 188.166C290.522 188.166 289.182 189.506 289.182 191.158C289.182 192.811 290.522 194.151 292.175 194.151Z" fill="#556A9E" fill-opacity="0.4"/>
<path d="M181.036 302.846C182.69 302.846 184.03 301.506 184.03 299.854C184.03 298.201 182.69 296.861 181.036 296.861C179.383 296.861 178.042 298.201 178.042 299.854C178.042 301.506 179.383 302.846 181.036 302.846Z" fill="#556A9E" fill-opacity="0.4"/>
<path d="M75.8908 345.809C77.544 345.809 78.8846 344.469 78.8846 342.817C78.8846 341.164 77.544 339.824 75.8908 339.824C74.2371 339.824 72.8965 341.164 72.8965 342.817C72.8965 344.469 74.2371 345.809 75.8908 345.809Z" fill="#556A9E" fill-opacity="0.4"/>
<path d="M2.82032 336.544C4.47394 336.544 5.81447 335.204 5.81447 333.551C5.81447 331.899 4.47394 330.559 2.82032 330.559C1.16669 330.559 -0.173828 331.899 -0.173828 333.551C-0.173828 335.204 1.16669 336.544 2.82032 336.544Z" fill="#556A9E" fill-opacity="0.4"/>
<path d="M1176.07 230.151C1177.73 230.151 1179.06 228.811 1179.06 227.158C1179.06 225.506 1177.73 224.166 1176.07 224.166C1174.42 224.166 1173.08 225.506 1173.08 227.158C1173.08 228.811 1174.42 230.151 1176.07 230.151Z" fill="#556A9E" fill-opacity="0.4"/>
<path d="M1189.66 294.07C1191.32 294.07 1192.66 292.73 1192.66 291.078C1192.66 289.425 1191.32 288.085 1189.66 288.085C1188.01 288.085 1186.67 289.425 1186.67 291.078C1186.67 292.73 1188.01 294.07 1189.66 294.07Z" fill="#556A9E" fill-opacity="0.4"/>
<path d="M1353.74 283.161C1355.37 282.897 1356.48 281.36 1356.21 279.728C1355.95 278.097 1354.41 276.989 1352.78 277.254C1351.14 277.519 1350.04 279.056 1350.3 280.687C1350.57 282.318 1352.11 283.426 1353.74 283.161Z" fill="#556A9E" fill-opacity="0.4"/>
<path d="M1406.89 304.772C1408.54 304.772 1409.88 303.433 1409.88 301.78C1409.88 300.127 1408.54 298.788 1406.89 298.788C1405.24 298.788 1403.9 300.127 1403.9 301.78C1403.9 303.433 1405.24 304.772 1406.89 304.772Z" fill="#556A9E" fill-opacity="0.4"/>
<path d="M1345.6 6.3533C1347.26 6.3533 1348.6 5.01364 1348.6 3.36105C1348.6 1.70846 1347.26 0.368774 1345.6 0.368774C1343.95 0.368774 1342.61 1.70846 1342.61 3.36105C1342.61 5.01364 1343.95 6.3533 1345.6 6.3533Z" fill="#556A9E" fill-opacity="0.4"/>
<path d="M1023.31 85.7283C1021.66 85.7283 1020.31 87.0725 1020.31 88.7205C1020.31 90.3686 1021.66 91.7128 1023.31 91.7128C1024.96 91.7128 1026.3 90.3686 1026.3 88.7205C1026.3 87.0725 1024.96 85.7283 1023.31 85.7283Z" fill="#556A9E" fill-opacity="0.4"/>
<path d="M839.259 286.015C840.912 286.015 842.251 284.675 842.251 283.023C842.251 281.37 840.912 280.031 839.259 280.031C837.606 280.031 836.267 281.37 836.267 283.023C836.267 284.675 837.606 286.015 839.259 286.015Z" fill="#556A9E" fill-opacity="0.4"/>
<path d="M869.28 244.144C870.933 244.144 872.272 242.804 872.272 241.151C872.272 239.499 870.933 238.159 869.28 238.159C867.626 238.159 866.282 239.499 866.282 241.151C866.282 242.804 867.626 244.144 869.28 244.144Z" fill="#556A9E" fill-opacity="0.4"/>
<path d="M1093.47 291.078C1095.12 291.078 1096.46 289.738 1096.46 288.085C1096.46 286.433 1095.12 285.093 1093.47 285.093C1091.81 285.093 1090.47 286.433 1090.47 288.085C1090.47 289.738 1091.81 291.078 1093.47 291.078Z" fill="#556A9E" fill-opacity="0.4"/>
<path d="M1289.88 325.28C1288.23 325.28 1286.88 326.624 1286.88 328.273C1286.88 329.921 1288.23 331.265 1289.88 331.265C1291.52 331.265 1292.87 329.921 1292.87 328.273C1292.87 326.624 1291.52 325.28 1289.88 325.28Z" fill="#556A9E" fill-opacity="0.4"/>
<path d="M1361.38 432.739C1359.2 432.25 1357.29 434.161 1357.78 436.339C1358.02 437.436 1358.91 438.322 1360.01 438.569C1362.18 439.059 1364.1 437.148 1363.61 434.969C1363.36 433.872 1362.47 432.987 1361.38 432.739Z" fill="#556A9E" fill-opacity="0.4"/>
<path d="M1250.87 155.622C1252.52 155.622 1253.86 154.282 1253.86 152.63C1253.86 150.977 1252.52 149.637 1250.87 149.637C1249.22 149.637 1247.88 150.977 1247.88 152.63C1247.88 154.282 1249.22 155.622 1250.87 155.622Z" fill="#556A9E" fill-opacity="0.4"/>
<path d="M1139.32 101.437C1137.67 101.437 1136.32 102.781 1136.32 104.429C1136.32 106.077 1137.67 107.421 1139.32 107.421C1140.97 107.421 1142.31 106.077 1142.31 104.429C1142.31 102.781 1140.97 101.437 1139.32 101.437Z" fill="#556A9E" fill-opacity="0.4"/>
<path d="M911.671 91.7128C913.325 91.7128 914.664 90.3732 914.664 88.7205C914.664 87.0678 913.325 85.7283 911.671 85.7283C910.018 85.7283 908.674 87.0678 908.674 88.7205C908.674 90.3732 910.018 91.7128 911.671 91.7128Z" fill="#556A9E" fill-opacity="0.4"/>
<path d="M956.864 222.281C958.518 222.281 959.862 220.942 959.862 219.289C959.862 217.636 958.518 216.297 956.864 216.297C955.211 216.297 953.872 217.636 953.872 219.289C953.872 220.942 955.211 222.281 956.864 222.281Z" fill="#556A9E" fill-opacity="0.4"/>
</g>
</svg>
