<svg width="55" height="53" viewBox="0 0 55 53" fill="none" xmlns="http://www.w3.org/2000/svg">
<path d="M53.21 13.6258C53.21 12.3558 53.15 11.0758 53.15 9.92582C53.15 9.01582 52.42 8.22582 51.45 8.22582C44.29 8.22582 38.78 6.16582 34.23 1.73582C33.56 1.12582 32.53 1.12582 31.86 1.73582C27.31 6.16582 21.85 8.22582 14.64 8.22582C13.73 8.22582 12.94 8.95582 12.94 9.92582C12.94 11.0758 12.94 12.3558 12.88 13.6258C12.64 25.6958 12.33 42.1858 32.41 49.1658C32.59 49.2258 32.77 49.2858 32.96 49.2858C33.15 49.2858 33.32 49.2858 33.51 49.1658C53.7 42.1958 53.4 25.6958 53.22 13.6258H53.21Z" stroke="black" stroke-width="2" stroke-miterlimit="10"/>
<path d="M36.6799 12.0059H29.3799C27.69 12.0059 26.3199 13.3759 26.3199 15.0659V35.5059C26.3199 37.1959 27.69 38.5659 29.3799 38.5659H36.6799C38.3699 38.5659 39.7399 37.1959 39.7399 35.5059V15.0659C39.7399 13.3759 38.3699 12.0059 36.6799 12.0059Z" fill="white"/>
<path d="M36.6799 12.0059H29.3799C27.69 12.0059 26.3199 13.3759 26.3199 15.0659V35.5059C26.3199 37.1959 27.69 38.5659 29.3799 38.5659H36.6799C38.3699 38.5659 39.7399 37.1959 39.7399 35.5059V15.0659C39.7399 13.3759 38.3699 12.0059 36.6799 12.0059Z" stroke="black" stroke-width="2" stroke-miterlimit="10" stroke-dasharray="2.95 0.98"/>
<path d="M31.22 40.8557C31.22 40.0157 30.82 39.2657 30.21 38.7757C30.82 38.2857 31.22 37.5357 31.22 36.6957C31.22 35.2357 30.03 34.0457 28.57 34.0457H21.71C22.33 32.6057 22.95 30.7457 23.04 28.9257C23.15 26.5557 22.28 24.8357 20.53 23.9557C19.96 23.6657 19.44 23.6157 18.99 23.8057C18.17 24.1557 17.86 25.1657 17.53 26.2457C17.44 26.5557 17.34 26.8657 17.23 27.1657C16.12 30.2157 13.59 32.7357 10.67 33.7757C10.59 32.6957 10.67 49.8757 10.67 49.8757C10.67 49.8757 11.74 50.2757 12.31 50.5057C13.92 51.1557 15.59 51.8357 17.42 51.8357H26.51C27.97 51.8357 29.16 50.6457 29.16 49.1857C29.16 48.6257 28.98 48.1057 28.68 47.6757C30.09 47.6157 31.21 46.4457 31.21 45.0257C31.21 44.1857 30.81 43.4357 30.2 42.9457C30.81 42.4557 31.2 41.6157 31.21 40.8657L31.22 40.8557Z" fill="white" stroke="black" stroke-width="2" stroke-miterlimit="10"/>
<path d="M23.9301 38.7959H29.8401" stroke="black" stroke-width="2" stroke-miterlimit="10" stroke-linecap="round"/>
<path d="M23.9301 42.7959H29.8401" stroke="black" stroke-width="2" stroke-miterlimit="10" stroke-linecap="round"/>
<path d="M22.9301 47.7959H28.8401" stroke="black" stroke-width="2" stroke-miterlimit="10" stroke-linecap="round"/>
<path d="M2 31.6758H8.7C9.8 31.6758 10.7 32.5758 10.7 33.6758V49.8358C10.7 50.9358 9.8 51.8358 8.7 51.8358H2C1.45 51.8358 1 51.3858 1 50.8358V32.6758C1 32.1258 1.45 31.6758 2 31.6758Z" fill="white" stroke="black" stroke-width="2" stroke-miterlimit="10"/>
<path d="M5.94996 48.8157C6.84466 48.8157 7.56996 48.0904 7.56996 47.1957C7.56996 46.301 6.84466 45.5757 5.94996 45.5757C5.05525 45.5757 4.32996 46.301 4.32996 47.1957C4.32996 48.0904 5.05525 48.8157 5.94996 48.8157Z" fill="white" stroke="black" stroke-width="0.5" stroke-miterlimit="10"/>
<path d="M5.94997 47.6758C6.21507 47.6758 6.42997 47.4609 6.42997 47.1958C6.42997 46.9307 6.21507 46.7158 5.94997 46.7158C5.68487 46.7158 5.46997 46.9307 5.46997 47.1958C5.46997 47.4609 5.68487 47.6758 5.94997 47.6758Z" fill="white" stroke="black" stroke-width="0.5" stroke-miterlimit="10"/>
</svg>
