<svg width="36" height="49" viewBox="0 0 36 49" fill="none" xmlns="http://www.w3.org/2000/svg">
<g clip-path="url(#clip0_78_1516)">
<path d="M18.0923 4.52442C18.5063 4.52442 18.8056 4.23092 18.8106 3.8429C18.8106 3.46483 18.5063 3.16138 18.1272 3.16138C17.7082 3.16138 17.4089 3.45488 17.4089 3.8429C17.4089 4.23092 17.7132 4.52442 18.0923 4.52442Z" fill="black"/>
<path d="M26.0136 26.2833V18.4135C26.0136 18.0354 25.7093 17.7319 25.3302 17.7319H21.6789C21.2998 17.7319 20.9955 18.0354 20.9955 18.4135V19.4482H18.0225C17.6434 19.4482 17.3391 19.7516 17.3391 20.1297V21.0003H14.3661C13.987 21.0003 13.6827 21.3037 13.6827 21.6818V22.4379H10.7098C10.3306 22.4379 10.0264 22.7414 10.0264 23.1194V26.2883C10.0264 26.6663 10.3306 26.9698 10.7098 26.9698H25.3252C25.7044 26.9698 26.0086 26.6663 26.0086 26.2883L26.0136 26.2833ZM13.6927 25.6018H11.4031V23.791H13.6927V25.6018ZM17.3441 25.6018H15.0545V22.3533H17.3441V25.6018ZM20.9955 25.6018H18.7059V20.8062H20.9955V25.6018ZM24.6468 25.6018H22.3573V19.09H24.6468V25.6018Z" fill="black"/>
<path d="M10.9243 19.4333C10.5601 19.5229 10.3356 19.891 10.4304 20.2591C10.5202 20.6223 10.8893 20.8461 11.2585 20.7516C14.017 20.0651 16.4213 18.7667 18.232 16.6326L18.3018 17.1699C18.3467 17.543 18.6909 17.8017 19.06 17.7569C19.4292 17.7121 19.6936 17.3689 19.6487 17.0007L19.3643 14.7771C19.3194 14.404 18.9752 14.1453 18.6061 14.1901L16.3764 14.4736C16.0023 14.5184 15.7429 14.8617 15.7878 15.2298C15.8327 15.6029 16.1769 15.8616 16.546 15.8168L17.2144 15.7322C15.5882 17.6524 13.4184 18.8115 10.9292 19.4333H10.9243Z" fill="black"/>
<path d="M21.2399 37.5857H17.8977C17.5186 37.5857 17.2144 37.8891 17.2144 38.2672C17.2144 38.6453 17.5186 38.9487 17.8977 38.9487H21.2399C21.619 38.9487 21.9232 38.6453 21.9232 38.2672C21.9232 37.8891 21.619 37.5857 21.2399 37.5857Z" fill="black"/>
<path d="M10.7148 29.8203H21.2349C21.614 29.8203 21.9183 29.5169 21.9183 29.1388C21.9183 28.7607 21.614 28.4573 21.2349 28.4573H10.7148C10.3357 28.4573 10.0314 28.7607 10.0314 29.1388C10.0314 29.5169 10.3357 29.8203 10.7148 29.8203Z" fill="black"/>
<path d="M21.2399 34.6707H17.8977C17.5186 34.6707 17.2144 34.9741 17.2144 35.3522C17.2144 35.7302 17.5186 36.0337 17.8977 36.0337H21.2399C21.619 36.0337 21.9232 35.7302 21.9232 35.3522C21.9232 34.9741 21.619 34.6707 21.2399 34.6707Z" fill="black"/>
<path d="M10.7198 34.4617C10.3456 34.4617 10.0364 34.7701 10.0364 35.1432V38.4762C10.0364 38.8542 10.3407 39.1577 10.7198 39.1577H14.0619C14.441 39.1577 14.7453 38.8542 14.7453 38.4762V35.1432C14.7453 34.7651 14.441 34.4617 14.0619 34.4617H10.7198ZM13.3785 37.7947H11.4031V35.8247H13.3785V37.7947Z" fill="black"/>
<path d="M21.9233 32.059C21.9233 31.6809 21.619 31.3774 21.2399 31.3774H10.7198C10.3407 31.3774 10.0364 31.6809 10.0364 32.059C10.0364 32.437 10.3407 32.7405 10.7198 32.7405H21.2399C21.619 32.7405 21.9233 32.437 21.9233 32.059Z" fill="black"/>
<path d="M36 42.2423H34.6233V45.5902C34.6233 46.4408 33.9199 47.1423 33.0669 47.1423H2.9231C2.07011 47.1423 1.36677 46.4408 1.36677 45.5902V7.33544C1.36677 6.48478 2.07011 5.78336 2.9231 5.78336H9.33795V8.82782H5.09796C4.71886 8.82782 4.41458 9.13127 4.41458 9.50934V43.4163C4.41458 43.7943 4.71886 44.0978 5.09796 44.0978H30.8921C31.2712 44.0978 31.5754 43.7943 31.5754 43.4163V42.2423H30.2137V42.7397H5.78135V10.1859H9.44271C9.6971 10.8873 10.3655 11.3698 11.1287 11.3698H25.0957C25.8639 11.3698 26.5324 10.8823 26.7818 10.1859H30.2087V42.4711H31.5705V9.50437C31.5705 9.1263 31.2662 8.82285 30.8871 8.82285H26.8815V5.77839H33.0669C33.9199 5.77839 34.6233 6.47981 34.6233 7.33046V42.4661H35.985V7.33544C35.985 5.73361 34.6731 4.42032 33.0619 4.42032H26.7219C26.4376 3.78854 25.8041 3.3657 25.0908 3.3657H21.594C21.4593 2.65931 21.1102 2.02753 20.6213 1.54002C18.6011 -0.474698 15.1592 0.604793 14.6205 3.3657H11.1237C10.4054 3.3657 9.77193 3.79352 9.4876 4.42032H2.9231C1.31689 4.42032 0 5.72864 0 7.33544V45.5902C0 47.192 1.3119 48.5003 2.9231 48.5003H33.0719C34.6781 48.5003 35.995 47.187 35.995 45.5852V43.5655C35.995 43.5655 36.005 43.5655 36.01 43.5655V42.2423H36ZM10.6997 5.15159C10.6997 4.92275 10.8943 4.72377 11.1287 4.72377H15.244C15.6231 4.72377 15.9274 4.42032 15.9274 4.04225C15.9274 3.44032 16.1718 2.89311 16.5709 2.49514C17.9476 1.12215 20.312 2.10215 20.312 4.04225C20.312 4.42032 20.6163 4.72377 20.9954 4.72377H25.1057C25.3302 4.72377 25.5148 4.89788 25.5347 5.13666V9.58396C25.5347 9.81279 25.3402 10.0118 25.1057 10.0118H11.1387C10.9092 10.0118 10.7097 9.81777 10.7097 9.58396V5.15159H10.6997Z" fill="black"/>
</g>
<defs>
<clipPath id="clip0_78_1516">
<rect width="36" height="48" fill="white" transform="translate(0 0.5)"/>
</clipPath>
</defs>
</svg>
