<svg width="48" height="34" viewBox="0 0 48 34" fill="none" xmlns="http://www.w3.org/2000/svg">
<path d="M27.2874 24.6637C27.9092 24.6637 28.4124 25.168 28.4124 25.7913C28.4124 26.4145 27.9093 26.9188 27.2874 26.9188H24.517V31.2449H26.5948C27.2166 31.2449 27.7198 31.7492 27.7198 32.3724C27.7198 32.9957 27.2167 33.5 26.5948 33.5H11.7131C11.0912 33.5 10.588 32.9957 10.588 32.3724C10.588 31.7492 11.0912 31.2449 11.7131 31.2449H13.7909V26.9188H1.12503C0.503226 26.9188 0 26.4145 0 25.7913V1.62755C0 1.00435 0.503177 0.5 1.12503 0.5H37.183C37.8048 0.5 38.3081 1.0043 38.3081 1.62755V11.5988C38.3081 12.222 37.8049 12.7263 37.183 12.7263C36.5612 12.7263 36.058 12.222 36.058 11.5988V2.75467H2.25017V24.6612H27.2895L27.2874 24.6637ZM42.9901 27.5861L43.0015 27.5746C44.1399 26.4279 44.8459 24.8497 44.8459 23.1047C44.8459 21.3558 44.1399 19.7758 42.9958 18.629C41.8517 17.4823 40.2751 16.7747 38.5302 16.7747C36.7852 16.7747 35.2087 17.4823 34.0645 18.629C32.9204 19.7757 32.2144 21.3558 32.2144 23.1047C32.2144 24.8535 32.9204 26.4336 34.0645 27.5803C35.2086 28.727 36.7852 29.4346 38.5302 29.4346C40.2713 29.4346 41.8478 28.7271 42.9901 27.5861ZM45.33 28.3263L47.67 30.6715C48.11 31.1125 48.11 31.824 47.67 32.265C47.2299 32.706 46.5181 32.706 46.0781 32.265L43.7381 29.9198C42.2955 31.0301 40.4894 31.6897 38.5281 31.6897C36.1632 31.6897 34.0223 30.729 32.4707 29.1758C30.9209 27.6225 29.9623 25.4767 29.9623 23.1048C29.9623 20.7347 30.9228 18.5889 32.4707 17.0338C34.0205 15.4805 36.1614 14.5198 38.5281 14.5198C40.8929 14.5198 43.0339 15.4805 44.5855 17.0338C46.1353 18.5871 47.0938 20.7328 47.0938 23.1048C47.0938 25.0684 46.4356 26.8786 45.3279 28.3265L45.33 28.3263ZM22.2651 31.2448V26.9188H16.0392V31.2448H22.2651Z" fill="black"/>
</svg>
