<svg width="50" height="43" viewBox="0 0 50 43" fill="none" xmlns="http://www.w3.org/2000/svg">
<path d="M42.1845 14.5364C42.6349 13.4893 42.8572 12.3661 42.8572 11.2428C42.8572 6.75001 39.3384 3.08236 34.9184 3.08236C33.4208 3.08236 31.9231 3.53281 30.6508 4.35473C28.1791 2.10831 24.9587 0.835938 21.6651 0.835938C14.3262 0.835938 8.26297 6.90246 8.03758 14.4635C4.14439 14.6887 1 18.0583 1 22.1769C1.07605 26.5177 4.44571 29.963 8.56444 29.963H15.1545V31.835C15.1545 37.8255 24.4382 41.4931 24.889 41.6459L25.0382 41.7219L25.1874 41.6459C25.5618 41.4967 34.9218 37.8258 34.9218 31.835V29.963H41.5119C45.6304 29.963 49 26.5173 49 22.1769C49 18.2076 46.0046 14.9107 42.1845 14.5364ZM33.9476 29.0647V31.8347C33.9476 36.778 26.2341 40.2206 25.0383 40.744C23.7659 40.2204 16.129 36.8508 16.129 31.8347V22.3983C21.2215 22.2491 24.0678 19.6283 25.0383 18.5051C26.0123 19.6283 28.8584 22.2491 33.9476 22.3983V29.0647ZM41.512 29.0647H34.9219V21.5003H34.4715C28.2558 21.5003 25.4858 17.531 25.4858 17.531L25.0383 16.9343L24.6639 17.4579C24.6639 17.5339 21.8178 21.4272 15.6782 21.4272H15.2277V28.9916L8.56457 28.9887C4.96971 28.9887 1.97448 25.9174 1.97448 22.1733C1.97448 18.4293 4.89363 15.358 8.56457 15.358H9.01503V14.9076C9.01503 7.64474 14.7072 1.80345 21.6684 1.80345C24.8888 1.80345 27.884 3.07582 30.2796 5.32224L30.578 5.62059L30.8763 5.39537C32.0756 4.4974 33.4211 4.04692 34.9187 4.04692C38.7388 4.04692 41.8832 7.26738 41.8832 11.2367C41.8832 12.4359 41.5848 13.6322 40.9852 14.7554L40.6108 15.4282L41.5117 15.437C45.1066 15.437 48.1018 18.5083 48.1018 22.2523C48.0257 25.9934 45.1069 29.0647 41.512 29.0647Z" fill="black" stroke="black"/>
<path d="M21.8935 25.924V27.1233H20.4719V28.697L20.469 29.2176V30.7152C20.469 33.1869 22.4171 34.8337 25.1871 34.8337C27.9571 34.8337 29.9051 33.1108 29.9051 30.7152V27.1935H28.4836V25.9942C28.4836 24.1983 26.986 22.7007 25.1901 22.7007C23.3912 22.7036 21.8935 24.1251 21.8935 25.924ZM28.931 28.0943V30.7151C28.931 32.8855 27.059 33.9356 25.187 33.9356C23.315 33.9356 21.443 32.9616 21.443 30.7151V28.0914L28.931 28.0943ZM27.5095 25.924V27.1233H22.7914V25.924C22.7914 24.6516 23.8386 23.6015 25.1139 23.6015C26.4594 23.6015 27.5095 24.6486 27.5095 25.924Z" fill="black" stroke="black"/>
</svg>
