<svg width="48" height="49" viewBox="0 0 48 49" fill="none" xmlns="http://www.w3.org/2000/svg">
<path d="M18.5168 41.3331C19.743 40.7494 21.0379 40.048 22.3525 39.2974L22.6125 45.5173L22.615 45.5148C22.6395 46.2899 22.9583 47.0306 23.5053 47.5775C23.8143 47.8865 24.1846 48.1244 24.5868 48.2814C25.737 48.74 27.0492 48.4629 27.9149 47.5825L34.6517 40.8455C37.7345 37.7625 38.5217 33.0609 36.6014 29.1442C38.0778 27.8688 39.4979 26.5811 40.7829 25.296C46.9142 19.1645 48.4715 12.2703 47.8854 7.86293C47.3777 4.08832 44.4102 1.1207 40.6381 0.61546C36.2285 0.0268352 29.3345 1.5842 23.2032 7.71569C21.9181 9.00087 20.6305 10.4209 19.3552 11.8974C15.4386 9.97697 10.7371 10.7643 7.65431 13.8471L0.91753 20.5842C0.0370901 21.4499 -0.24003 22.762 0.218611 23.9123C0.375573 24.3146 0.615917 24.6874 0.9225 24.994C1.47432 25.5409 2.21005 25.8597 2.98754 25.8867L9.2022 26.1467C8.45175 27.4612 7.7503 28.7563 7.16661 29.9826C6.92625 30.4927 7.03172 31.0985 7.42905 31.4958L17.0037 41.0708C17.401 41.4681 18.0066 41.5734 18.5168 41.3331ZM32.7682 38.9616L26.0314 45.6986C25.9088 45.8262 25.7199 45.8678 25.558 45.7992C25.3864 45.7403 25.2735 45.5833 25.2735 45.4018L24.9523 37.7423L24.9547 37.7448C28.2558 35.6699 31.4318 33.3963 34.4581 30.934C35.5323 33.7103 34.87 36.8548 32.7682 38.9616ZM40.2854 3.25418C42.8678 3.60001 44.8985 5.63078 45.2443 8.21333C45.7446 11.9903 44.3442 17.9674 38.8998 23.412C34.4068 27.8119 29.4672 31.7314 24.1625 35.1036L13.3962 24.3369C16.7685 19.0319 20.6877 14.0923 25.0875 9.59916C30.5321 4.15436 36.5087 2.75359 40.2854 3.25418ZM3.09745 23.226C2.91596 23.226 2.759 23.1132 2.70014 22.9415C2.63147 22.7796 2.67316 22.5908 2.80069 22.4681L9.53747 15.7311C11.6442 13.6292 14.7883 12.9671 17.5621 14.0388C15.1023 17.0678 12.8264 20.2415 10.754 23.545L3.09745 23.226ZM9.98383 30.2843C10.5626 29.1218 11.2444 27.9102 11.9679 26.6765L21.8219 36.5309C20.5907 37.252 19.3768 37.9362 18.2143 38.515L9.98383 30.2843Z" fill="black"/>
<path d="M24.7684 23.7304C26.419 25.381 28.9009 25.8765 31.0567 24.9813C33.2149 24.0885 34.6227 21.9841 34.6227 19.6493C34.6226 17.3145 33.215 15.2101 31.0567 14.3174C28.9009 13.4222 26.419 13.9177 24.7684 15.5683C22.5171 17.8246 22.5171 21.4741 24.7684 23.7304ZM31.0469 17.4517C31.9347 18.3396 32.202 19.6763 31.7213 20.8388C31.2382 21.9989 30.1076 22.7568 28.8494 22.7592C27.5913 22.7568 26.4607 21.9989 25.9775 20.8388C25.4968 19.6763 25.7641 18.3396 26.652 17.4517C27.8684 16.2402 29.8304 16.2402 31.0469 17.4517Z" fill="black"/>
<path d="M6.875 43.5082L10.0142 40.3689C10.5342 39.8489 10.5342 39.0052 10.0142 38.4853C9.49429 37.9653 8.65062 37.9653 8.13069 38.4853L4.99146 41.6246C4.47153 42.1446 4.47153 42.9883 4.99146 43.5082C5.51139 44.0282 6.35506 44.0282 6.875 43.5082Z" fill="black"/>
<path d="M10.4851 42.4094L8.91549 43.9791C8.39556 44.4991 8.39556 45.3428 8.91549 45.8627C9.43542 46.3827 10.2791 46.3827 10.799 45.8627L12.3686 44.293C12.8886 43.7731 12.8886 42.9294 12.3686 42.4094C11.8487 41.8895 11.005 41.8895 10.4851 42.4094Z" fill="black"/>
<path d="M4.52058 39.584L6.09019 38.0144C6.61012 37.4944 6.61012 36.6507 6.09019 36.1308C5.57026 35.6108 4.72658 35.6108 4.20665 36.1308L2.63704 37.7004C2.11711 38.2204 2.11711 39.0641 2.63704 39.584C3.15697 40.104 4.00064 40.104 4.52058 39.584Z" fill="black"/>
</svg>
