<svg width="36" height="33" viewBox="0 0 36 33" fill="none" xmlns="http://www.w3.org/2000/svg">
<path d="M35.3338 19.0844C35.3338 18.7999 35.121 18.5866 34.8374 18.5866H29.6256H27.4628C27.321 18.5866 27.2147 18.6577 27.1083 18.7288L25.0519 20.7911C24.9456 20.8977 24.9101 21.0044 24.9101 21.1466V25.0222H22.9601V19.1199C22.9601 18.8355 22.7474 18.6222 22.4638 18.6222H18.2447V15.4577H24.7328C25.0165 15.4577 25.2292 15.2444 25.2292 14.9599V12.8977C25.2292 12.1511 24.6265 11.5111 23.8465 11.5111H23.3856V6.46217C23.3856 3.36884 20.8683 0.808838 17.7483 0.808838C14.6283 0.808838 12.111 3.33328 12.111 6.46217V11.5111H11.6501C10.9056 11.5111 10.2674 12.1155 10.2674 12.8977V14.9599C10.2674 15.2444 10.4801 15.4577 10.7638 15.4577H17.2519V18.6222H15.0892C14.9474 18.6222 14.841 18.6933 14.7347 18.7644L12.6783 20.8266C12.5719 20.9333 12.5365 21.0399 12.5365 21.1822V25.0577H10.5865V19.1555C10.5865 18.8711 10.3737 18.6577 10.0901 18.6577H3.85011H2.71557C2.57375 18.6577 2.46739 18.7288 2.36102 18.7999L0.30466 20.8622C0.198296 20.9688 0.162842 21.0755 0.162842 21.2177V31.9911C0.162842 32.2755 0.375569 32.4888 0.659205 32.4888H10.0901C10.3737 32.4888 10.5865 32.2755 10.5865 31.9911V26.0888H12.5365V31.9911C12.5365 32.2755 12.7492 32.4888 13.0328 32.4888H22.4638C22.7474 32.4888 22.9601 32.2755 22.9601 31.9911V26.0888H24.9101V31.9911C24.9101 32.2755 25.1228 32.4888 25.4065 32.4888H34.8374C35.121 32.4888 35.3338 32.2755 35.3338 31.9911V19.1555V19.0844ZM2.68011 19.7955V21.1111H1.3683L2.68011 19.7955ZM9.59375 19.5822V31.4222H1.15557V22.1066H3.17648C3.46011 22.1066 3.67284 21.8933 3.67284 21.6088V19.5822H9.59375ZM13.1038 6.46217C13.1038 3.90217 15.1956 1.80439 17.7483 1.80439C20.301 1.80439 22.3928 3.90217 22.3928 6.46217V11.5111H19.4856V7.70662C19.4856 6.74662 18.7056 5.96439 17.7483 5.96439C16.791 5.96439 16.011 6.74662 16.011 7.70662V11.5111H13.1038V6.46217ZM18.4928 7.70662V11.5111H17.0392V7.70662C17.0392 7.3155 17.3583 6.95995 17.7838 6.95995C18.2092 6.95995 18.5283 7.27995 18.5283 7.70662H18.4928ZM11.2601 14.4266V12.8622C11.2601 12.6488 11.4374 12.4711 11.6501 12.4711H23.8465C24.0592 12.4711 24.2365 12.6488 24.2365 12.8622V14.4266H11.2601ZM15.0538 19.7955V21.1111H13.7419L15.0538 19.7955ZM21.9674 19.5822V31.4222H13.5292V22.1066H15.5501C15.8338 22.1066 16.0465 21.8933 16.0465 21.6088V19.5822H21.9674ZM27.4628 19.7955V21.1111H26.151L27.4628 19.7955ZM34.341 19.5822V31.4222H25.9028V22.1066H27.9238C28.2074 22.1066 28.4201 21.8933 28.4201 21.6088V19.5822H34.341Z" fill="black"/>
</svg>
