<svg width="48" height="48" viewBox="0 0 48 48" fill="none" xmlns="http://www.w3.org/2000/svg">
<path d="M46.4586 6.93579H28.0182C27.2476 6.93579 26.587 7.5413 26.587 8.36698V13.7615C26.587 14.6422 27.4127 15.1927 28.1283 15.1376C29.7797 15.0275 30.7705 15.7431 31.1008 16.789C31.8164 18.8257 29.8898 20.5321 28.2384 20.0917C27.3577 19.8716 26.532 20.4771 26.532 21.3578V26.5871H21.3026C20.4219 26.5871 19.7613 27.4128 20.0366 28.2936C20.4769 29.9449 18.7705 31.8165 16.7338 31.1559C15.798 30.8257 15.0824 29.9449 15.0824 28.7339C15.0824 27.5229 15.1925 27.7982 14.8623 27.3578C14.587 26.9174 14.2017 26.6422 13.7063 26.6422H8.31181C7.54117 26.6422 6.88062 27.2477 6.88062 28.0734V46.5688C6.88062 47.3394 7.48612 48 8.31181 48C9.13749 48 47.009 48 46.4586 48C47.2292 48 47.8897 47.3945 47.8897 46.5688V8.42203C47.8897 7.54129 47.2842 6.93579 46.4586 6.93579ZM32.9173 17.6147C32.9173 15.4679 31.2659 13.3762 28.2384 13.4312V8.53212H46.2384V26.5321H41.5595C41.1742 24.5505 39.4127 23.0642 37.2659 23.0642C35.1191 23.0642 33.3576 24.5505 32.9723 26.5321H28.2384V21.7431C30.4402 22.1284 32.9173 20.2569 32.9173 17.6147ZM26.9723 39.9633C25.7063 39.7431 24.7705 38.6422 24.7705 37.266C24.7705 35.8899 25.7063 34.789 26.9723 34.5688C27.6879 34.4587 28.2384 33.7981 28.2384 33.0826V28.2385H33.0824C33.8531 28.2385 34.4586 27.6881 34.5687 26.9725C34.7888 25.7064 35.8898 24.7706 37.2659 24.7706C38.642 24.7706 39.743 25.7064 39.9631 26.9725C40.0732 27.6881 40.6787 28.2385 41.4494 28.2385H46.2384V46.2385H28.2384V41.4495C28.2384 40.7339 27.6879 40.0734 26.9723 39.9633ZM17.6145 32.9174C20.2567 32.9174 22.1283 30.4404 21.743 28.2385H26.587V32.9725C24.6054 33.3578 23.1191 35.1192 23.1191 37.266C23.1191 39.4128 24.6054 41.1743 26.587 41.5596V46.2385H8.58704V28.2385H13.4861C13.376 31.211 15.4127 32.9174 17.6145 32.9174Z" fill="black"/>
<path d="M6.33027 21.3027C6.71559 23.2844 8.47705 24.7706 10.6238 24.7706C12.7706 24.7706 14.5321 23.2844 14.9174 21.3027H19.9266C20.6972 21.3027 21.3578 20.6972 21.3578 19.8715V14.8624C23.3394 14.477 24.8257 12.7156 24.8257 10.5688C24.8257 8.42201 23.3394 6.66054 21.3578 6.27522V1.43119C21.3578 0.66055 20.7523 0 19.9266 0H1.43119C0.66055 0 0 0.605504 0 1.43119V19.9266C0 20.6972 0.605504 21.3578 1.43119 21.3578H6.33027V21.3027ZM23.1192 10.6238C23.1192 12 22.1835 13.1009 20.9174 13.3211C20.2018 13.4312 19.6514 14.0917 19.6514 14.8073V19.6514H14.8073C14.0367 19.6514 13.4312 20.2018 13.3211 20.9174C13.1009 22.1835 12 23.1192 10.6238 23.1192C9.2477 23.1192 8.14678 22.1835 7.9266 20.9174C7.81651 20.2018 7.211 19.6514 6.44036 19.6514H1.65137V1.65137H19.6514V6.44036C19.6514 7.211 20.2018 7.8165 20.9174 7.9266C22.1835 8.09173 23.1192 9.24769 23.1192 10.6238Z" fill="black"/>
</svg>
