<svg width="48" height="49" viewBox="0 0 48 49" fill="none" xmlns="http://www.w3.org/2000/svg">
<path d="M4.80021 6.09994C4.80021 5.65795 5.1582 5.29995 5.6002 5.29995H10.4001C11.7261 5.29995 12.8001 4.22594 12.8001 2.89997C12.8001 1.57401 11.7261 0.5 10.4001 0.5H5.6002C2.50821 0.5 0 3.00795 0 6.1002V10.9001C0 12.2261 1.07401 13.3001 2.39997 13.3001C3.72594 13.3001 4.79995 12.2261 4.79995 10.9001L4.80021 6.09994Z" fill="black"/>
<path d="M43.1997 6.09994C43.1997 5.65795 42.8417 5.29995 42.3998 5.29995H37.5998C36.2738 5.29995 35.1998 4.22594 35.1998 2.89997C35.1998 1.57401 36.2738 0.5 37.5998 0.5H42.3998C45.4917 0.5 48 3.00795 48 6.1002V10.9001C48 12.2261 46.9259 13.3001 45.6 13.3001C44.274 13.3001 43.2 12.2261 43.2 10.9001L43.1997 6.09994Z" fill="black"/>
<path d="M42.4 43.6999C42.842 43.6999 43.2 43.3419 43.2 42.8999V38.0999C43.2 36.774 44.274 35.7 45.6 35.7C46.9259 35.7 48 36.774 48 38.0999V42.8999C48 45.9919 45.492 48.5001 42.3998 48.5001H37.5998C36.2738 48.5001 35.1998 47.4261 35.1998 46.1001C35.1998 44.7741 36.2738 43.7001 37.5998 43.7001L42.4 43.6999Z" fill="black"/>
<path d="M4.80021 42.9001C4.80021 43.3421 5.1582 43.7001 5.6002 43.7001H10.4001C11.7261 43.7001 12.8001 44.7741 12.8001 46.1001C12.8001 47.4261 11.7261 48.5001 10.4001 48.5001H5.6002C2.50821 48.5001 0 45.9921 0 42.8999V38.0999C0 36.774 1.07401 35.7 2.39997 35.7C3.72594 35.7 4.79995 36.774 4.79995 38.0999L4.80021 42.9001Z" fill="black"/>
<path d="M0.000244141 24.5001C0.000244141 23.1741 1.07426 22.1001 2.40022 22.1001H45.5998C46.9257 22.1001 47.9997 23.1741 47.9997 24.5001C47.9997 25.826 46.9257 26.9 45.5998 26.9H2.40022C1.07426 26.9 0.000244141 25.826 0.000244141 24.5001Z" fill="black"/>
<path d="M36.7999 29.3V28.5H38.3999V29.3C38.3999 36.6958 32.8238 42.79 25.6461 43.6077C25.1881 43.6597 24.8002 43.2897 24.8002 42.8297C24.8002 42.4057 25.1302 42.0577 25.5522 42.0057C31.8902 41.2397 36.7999 35.8438 36.7999 29.3Z" fill="black"/>
<path d="M35.1999 29.3V28.5H33.6V29.3C33.6 34.6017 29.302 38.8999 24.0001 38.8999C18.6981 38.8999 14.4002 34.602 14.4002 29.3V28.5H12.8002V29.3C12.8002 35.4859 17.8141 40.4999 24.0001 40.4999C30.186 40.4999 35.1999 35.4859 35.1999 29.3Z" fill="black"/>
<path d="M38.3998 19.7001V20.5001H36.7998V19.7001C36.7998 12.63 31.0701 6.90028 23.9999 6.90028C16.9298 6.90028 11.2001 12.63 11.2001 19.7001V20.5001H9.6001V19.7001C9.6001 11.7484 16.0482 5.30029 23.9999 5.30029C31.9517 5.30029 38.3998 11.7484 38.3998 19.7001Z" fill="black"/>
<path d="M16.0001 29.3V28.5H17.6001V29.3C17.6001 29.506 17.6101 29.71 17.6281 29.912C17.6761 30.418 17.3061 30.9 16.7961 30.9C16.4261 30.9 16.1021 30.64 16.0581 30.272C16.0201 29.954 16.0001 29.628 16.0001 29.3Z" fill="black"/>
<path d="M19.2001 29.3V28.5H20.8001V29.3C20.8001 31.068 22.2321 32.5 24 32.5C25.768 32.5 27.2 31.068 27.2 29.3V28.5H28.8V29.3C28.8 31.95 26.65 34.0999 24 34.0999C21.35 34.0999 19.2001 31.95 19.2001 29.3Z" fill="black"/>
<path d="M28.8 20.5004H27.2V19.7004C27.2 18.4384 26.468 17.3464 25.406 16.8244C25.064 16.6584 24.8 16.3344 24.8 15.9544C24.8 15.4365 25.268 15.0404 25.7501 15.2284C27.536 15.9284 28.8 17.6664 28.8 19.7004V20.5004Z" fill="black"/>
<path d="M30.4 20.5003H32V19.7004C32 15.2824 28.418 11.7004 24 11.7004C19.5821 11.7004 16.0001 15.2824 16.0001 19.7004V20.5003H17.6001V19.7004C17.6001 16.1664 20.4661 13.3004 24 13.3004C27.534 13.3004 30.4 16.1664 30.4 19.7004V20.5003Z" fill="black"/>
<path d="M34.3996 19.7C33.9576 19.7 33.5996 20.0579 33.5996 20.4999H35.1996C35.1996 20.0579 34.8416 19.7 34.3996 19.7Z" fill="black"/>
<path d="M14.4002 19.7001V20.5001H12.8002V19.7001C12.8002 13.5142 17.8141 8.50024 24.0001 8.50024C29.3202 8.50024 33.774 12.2082 34.9158 17.1821C35.0258 17.6621 34.6458 18.1001 34.1518 18.1001C33.7578 18.1001 33.4218 17.8121 33.3298 17.4282C32.3098 13.2222 28.5198 10.1005 23.9997 10.1005C18.698 10.1005 14.4002 14.3982 14.4002 19.7001Z" fill="black"/>
<path d="M20.8001 20.5004H19.2001V19.7004C19.2001 17.6664 20.4641 15.9284 22.25 15.2284C22.732 15.0404 23.2 15.4364 23.2 15.9544C23.2 16.3344 22.936 16.6584 22.594 16.8244C21.5321 17.3464 20.8001 18.4384 20.8001 19.7004V20.5004Z" fill="black"/>
<path d="M31.9999 29.3V28.5H30.3999V29.3C30.3999 32.8339 27.5339 35.6999 24 35.6999C21.806 35.6999 19.872 34.596 18.7182 32.914C18.5462 32.664 18.2702 32.5 17.9662 32.5C17.3522 32.5 16.9482 33.128 17.2803 33.644C18.7063 35.844 21.1842 37.2999 24.0002 37.2999C28.4181 37.2999 31.9999 33.7179 31.9999 29.3Z" fill="black"/>
<path d="M11.2001 29.3V28.5H9.6001V29.3C9.6001 36.6958 15.1762 42.79 22.3539 43.6077C22.8119 43.6597 23.1999 43.2897 23.1999 42.8297C23.1999 42.4057 22.8699 42.0577 22.4478 42.0057C16.1099 41.2397 11.2001 35.8438 11.2001 29.3Z" fill="black"/>
</svg>
