<svg width="471" height="474" viewBox="0 0 471 474" fill="none" xmlns="http://www.w3.org/2000/svg">
<ellipse cx="218.368" cy="254.675" rx="216.829" ry="217.373" stroke="white" stroke-width="3" stroke-linecap="round" stroke-linejoin="round" stroke-dasharray="10 10"/>
<ellipse cx="218.368" cy="254.675" rx="142.439" ry="142.797" stroke="white" stroke-width="3" stroke-linecap="round" stroke-linejoin="round" stroke-dasharray="10 10"/>
<path d="M306.069 233.494L308.502 232.909C308.313 232.091 308.136 231.273 307.889 230.47L305.475 231.121C305.715 231.902 305.888 232.698 306.069 233.494Z" fill="white"/>
<g style="mix-blend-mode:multiply">
<path d="M306.069 233.494L308.502 232.909C308.313 232.091 308.136 231.273 307.889 230.47L305.475 231.121C305.715 231.902 305.888 232.698 306.069 233.494Z" fill="white"/>
</g>
<path d="M297.306 210.872L299.491 209.658L298.24 207.478L296.088 208.751L297.306 210.872Z" fill="white"/>
<g style="mix-blend-mode:multiply">
<path d="M297.306 210.872L299.491 209.658L298.24 207.478L296.088 208.751L297.306 210.872Z" fill="white"/>
</g>
<path d="M302.448 221.888L304.777 220.978L303.858 218.639L301.551 219.613L302.448 221.888Z" fill="white"/>
<g style="mix-blend-mode:multiply">
<path d="M302.448 221.888L304.777 220.978L303.858 218.639L301.551 219.613L302.448 221.888Z" fill="white"/>
</g>
<path d="M298.72 213.566L300.946 212.426C300.562 211.682 300.193 210.931 299.794 210.191L297.598 211.394C297.985 212.111 298.343 212.844 298.716 213.566H298.72Z" fill="white"/>
<g style="mix-blend-mode:multiply">
<path d="M298.72 213.566L300.946 212.426C300.562 211.682 300.193 210.931 299.794 210.191L297.598 211.394C297.985 212.111 298.343 212.844 298.716 213.566H298.72Z" fill="white"/>
</g>
<path d="M300.063 216.293L302.326 215.227C301.998 214.458 301.606 213.714 301.223 212.97L298.989 214.095C299.362 214.82 299.742 215.542 300.06 216.293H300.063Z" fill="white"/>
<g style="mix-blend-mode:multiply">
<path d="M300.063 216.293L302.326 215.227C301.998 214.458 301.606 213.714 301.223 212.97L298.989 214.095C299.362 214.82 299.742 215.542 300.06 216.293H300.063Z" fill="white"/>
</g>
<path d="M305.313 230.548L307.723 229.882L307.037 227.462L304.645 228.194L305.313 230.548Z" fill="white"/>
<g style="mix-blend-mode:multiply">
<path d="M305.313 230.548L307.723 229.882L307.037 227.462L304.645 228.194L305.313 230.548Z" fill="white"/>
</g>
<path d="M304.474 227.624L306.862 226.877L306.058 224.494L303.691 225.304L304.474 227.624Z" fill="white"/>
<g style="mix-blend-mode:multiply">
<path d="M304.474 227.624L306.862 226.877L306.058 224.494L303.691 225.304L304.474 227.624Z" fill="white"/>
</g>
<path d="M303.113 223.583L303.504 224.742L305.863 223.913L305.46 222.721L305.003 221.548L302.666 222.444L303.113 223.583Z" fill="white"/>
<g style="mix-blend-mode:multiply">
<path d="M303.113 223.583L303.504 224.742L305.863 223.913L305.46 222.721L305.003 221.548L302.666 222.444L303.113 223.583Z" fill="white"/>
</g>
<path d="M301.315 219.065L303.614 218.077L302.581 215.786L300.311 216.837L301.315 219.065Z" fill="white"/>
<g style="mix-blend-mode:multiply">
<path d="M301.315 219.065L303.614 218.077L302.581 215.786L300.311 216.837L301.315 219.065Z" fill="white"/>
</g>
<path d="M295.793 208.233L297.937 206.945C297.531 206.213 297.048 205.524 296.605 204.814L294.493 206.161C294.921 206.853 295.394 207.519 295.789 208.233H295.793Z" fill="white"/>
<g style="mix-blend-mode:multiply">
<path d="M295.793 208.233L297.937 206.945C297.531 206.213 297.048 205.524 296.605 204.814L294.493 206.161C294.921 206.853 295.394 207.519 295.789 208.233H295.793Z" fill="white"/>
</g>
<path d="M288.856 198.253L290.809 196.687C290.296 196.025 289.779 195.366 289.218 194.745L287.306 196.362C287.852 196.969 288.354 197.609 288.852 198.253H288.856Z" fill="white"/>
<g style="mix-blend-mode:multiply">
<path d="M288.856 198.253L290.809 196.687C290.296 196.025 289.779 195.366 289.218 194.745L287.306 196.362C287.852 196.969 288.354 197.609 288.852 198.253H288.856Z" fill="white"/>
</g>
<path d="M286.919 195.91L288.82 194.278L287.177 192.376L285.32 194.06L286.919 195.91Z" fill="white"/>
<g style="mix-blend-mode:multiply">
<path d="M286.919 195.91L288.82 194.278L287.177 192.376L285.32 194.06L286.919 195.91Z" fill="white"/>
</g>
<path d="M284.918 193.62L286.763 191.925L285.032 190.104L283.234 191.847L284.918 193.62Z" fill="white"/>
<g style="mix-blend-mode:multiply">
<path d="M284.918 193.62L286.763 191.925L285.032 190.104L283.234 191.847L284.918 193.62Z" fill="white"/>
</g>
<path d="M294.176 205.658L296.276 204.296C295.815 203.596 295.398 202.867 294.895 202.194L292.832 203.611C293.319 204.266 293.722 204.977 294.172 205.654L294.176 205.658Z" fill="white"/>
<g style="mix-blend-mode:multiply">
<path d="M294.176 205.658L296.276 204.296C295.815 203.596 295.398 202.867 294.895 202.194L292.832 203.611C293.319 204.266 293.722 204.977 294.172 205.654L294.176 205.658Z" fill="white"/>
</g>
<path d="M290.728 200.647L292.732 199.148L291.185 197.168L289.222 198.723L290.728 200.647Z" fill="white"/>
<g style="mix-blend-mode:multiply">
<path d="M290.728 200.647L292.732 199.148L291.185 197.168L289.222 198.723L290.728 200.647Z" fill="white"/>
</g>
<path d="M292.489 203.13L294.541 201.698L293.087 199.648L291.075 201.135L292.489 203.13Z" fill="white"/>
<g style="mix-blend-mode:multiply">
<path d="M292.489 203.13L294.541 201.698L293.087 199.648L291.075 201.135L292.489 203.13Z" fill="white"/>
</g>
<path d="M260.82 175.046C264.803 177.207 268.635 179.646 272.282 182.34C275.892 185.086 279.31 188.076 282.507 191.296L284.393 189.43C275.759 180.623 265.342 173.57 253.958 168.848C255.176 169.821 256.335 170.879 257.494 171.875C258.642 172.896 259.731 173.999 260.824 175.042L260.82 175.046Z" fill="white"/>
<g style="mix-blend-mode:multiply">
<path d="M260.82 175.046C264.803 177.207 268.635 179.646 272.282 182.34C275.892 185.086 279.31 188.076 282.507 191.296L284.393 189.43C275.759 180.623 265.342 173.57 253.958 168.848C255.176 169.821 256.335 170.879 257.494 171.875C258.642 172.896 259.731 173.999 260.824 175.042L260.82 175.046Z" fill="white"/>
</g>
<path d="M267.295 330.494L268.653 332.599C269.351 332.137 270.078 331.719 270.75 331.215L269.336 329.147C268.683 329.635 267.974 330.039 267.299 330.49L267.295 330.494Z" fill="white"/>
<g style="mix-blend-mode:multiply">
<path d="M267.295 330.494L268.653 332.599C269.351 332.137 270.078 331.719 270.75 331.215L269.336 329.147C268.683 329.635 267.974 330.039 267.299 330.49L267.295 330.494Z" fill="white"/>
</g>
<path d="M272.293 327.041L273.792 329.051L275.767 327.5L274.216 325.531L272.293 327.041Z" fill="white"/>
<g style="mix-blend-mode:multiply">
<path d="M272.293 327.041L273.792 329.051L275.767 327.5L274.216 325.531L272.293 327.041Z" fill="white"/>
</g>
<path d="M269.82 328.803L271.249 330.864L273.294 329.406L271.81 327.385L269.82 328.803Z" fill="white"/>
<g style="mix-blend-mode:multiply">
<path d="M269.82 328.803L271.249 330.864L273.294 329.406L271.81 327.385L269.82 328.803Z" fill="white"/>
</g>
<path d="M274.686 325.165L276.247 327.123C276.908 326.608 277.565 326.09 278.185 325.528L276.572 323.611C275.966 324.158 275.328 324.662 274.686 325.161V325.165Z" fill="white"/>
<g style="mix-blend-mode:multiply">
<path d="M274.686 325.165L276.247 327.123C276.908 326.608 277.565 326.09 278.185 325.528L276.572 323.611C275.966 324.158 275.328 324.662 274.686 325.161V325.165Z" fill="white"/>
</g>
<path d="M264.727 332.115L266.011 334.265C266.742 333.858 267.429 333.373 268.137 332.929L266.794 330.812C266.103 331.241 265.439 331.715 264.727 332.111V332.115Z" fill="white"/>
<g style="mix-blend-mode:multiply">
<path d="M264.727 332.115L266.011 334.265C266.742 333.858 267.429 333.373 268.137 332.929L266.794 330.812C266.103 331.241 265.439 331.715 264.727 332.111V332.115Z" fill="white"/>
</g>
<path d="M259.41 335.053L260.547 337.284C261.289 336.899 262.042 336.529 262.777 336.13L261.577 333.928C260.861 334.316 260.13 334.675 259.41 335.053Z" fill="white"/>
<g style="mix-blend-mode:multiply">
<path d="M259.41 335.053L260.547 337.284C261.289 336.899 262.042 336.529 262.777 336.13L261.577 333.928C260.861 334.316 260.13 334.675 259.41 335.053Z" fill="white"/>
</g>
<path d="M277.022 323.222L278.65 325.128L280.548 323.481L278.868 321.62L277.022 323.222Z" fill="white"/>
<g style="mix-blend-mode:multiply">
<path d="M277.022 323.222L278.65 325.128L280.548 323.481L278.868 321.62L277.022 323.222Z" fill="white"/>
</g>
<path d="M306.748 236.461L309.2 235.962L308.638 233.508L306.202 234.075L306.748 236.461Z" fill="white"/>
<g style="mix-blend-mode:multiply">
<path d="M306.748 236.461L309.2 235.962L308.638 233.508L306.202 234.075L306.748 236.461Z" fill="white"/>
</g>
<path d="M262.094 333.632L263.308 335.826L265.482 334.572L264.213 332.411L262.094 333.632Z" fill="white"/>
<g style="mix-blend-mode:multiply">
<path d="M262.094 333.632L263.308 335.826L265.482 334.572L264.213 332.411L262.094 333.632Z" fill="white"/>
</g>
<path d="M307.734 242.467L310.214 242.134C310.104 241.302 310.022 240.469 309.856 239.644L307.387 240.044C307.549 240.843 307.627 241.657 307.734 242.464V242.467Z" fill="white"/>
<g style="mix-blend-mode:multiply">
<path d="M307.734 242.467L310.214 242.134C310.104 241.302 310.022 240.469 309.856 239.644L307.387 240.044C307.549 240.843 307.627 241.657 307.734 242.464V242.467Z" fill="white"/>
</g>
<path d="M279.307 321.216L280.997 323.067L282.81 321.331L281.075 319.525L279.307 321.216Z" fill="white"/>
<g style="mix-blend-mode:multiply">
<path d="M279.307 321.216L280.997 323.067L282.81 321.331L281.075 319.525L279.307 321.216Z" fill="white"/>
</g>
<path d="M307.28 239.459L309.749 239.041L309.306 236.565L306.852 237.05L307.28 239.459Z" fill="white"/>
<g style="mix-blend-mode:multiply">
<path d="M307.28 239.459L309.749 239.041L309.306 236.565L306.852 237.05L307.28 239.459Z" fill="white"/>
</g>
<path d="M308.11 245.487L310.598 245.236L310.288 242.741L307.808 243.056L308.11 245.487Z" fill="white"/>
<g style="mix-blend-mode:multiply">
<path d="M308.11 245.487L310.598 245.236L310.288 242.741L307.808 243.056L308.11 245.487Z" fill="white"/>
</g>
<path d="M297.834 297.059C295.678 301.052 293.245 304.893 290.558 308.549C287.819 312.168 284.836 315.595 281.625 318.8L283.485 320.691C292.271 312.035 299.307 301.592 304.017 290.179C303.046 291.401 301.99 292.563 300.997 293.725C299.978 294.875 298.878 295.967 297.837 297.063L297.834 297.059Z" fill="white"/>
<g style="mix-blend-mode:multiply">
<path d="M297.834 297.059C295.678 301.052 293.245 304.893 290.558 308.549C287.819 312.168 284.836 315.595 281.625 318.8L283.485 320.691C292.271 312.035 299.307 301.592 304.017 290.179C303.046 291.401 301.99 292.563 300.997 293.725C299.978 294.875 298.878 295.967 297.837 297.063L297.834 297.059Z" fill="white"/>
</g>
<path d="M308.491 251.56L310.99 251.479C310.964 250.642 310.964 249.802 310.883 248.966L308.388 249.118C308.469 249.932 308.469 250.746 308.491 251.564V251.56Z" fill="white"/>
<g style="mix-blend-mode:multiply">
<path d="M308.491 251.56L310.99 251.479C310.964 250.642 310.964 249.802 310.883 248.966L308.388 249.118C308.469 249.932 308.469 250.746 308.491 251.564V251.56Z" fill="white"/>
</g>
<path d="M308.339 248.522L310.838 248.355L310.646 245.846L308.154 246.079L308.339 248.522Z" fill="white"/>
<g style="mix-blend-mode:multiply">
<path d="M308.339 248.522L310.838 248.355L310.646 245.846L308.154 246.079L308.339 248.522Z" fill="white"/>
</g>
<path d="M311.004 252.089L308.505 252.156L308.568 254.602H308.42C308.398 268.239 305.309 281.86 299.336 294.113C300.373 292.999 301.348 291.83 302.37 290.66C303.359 289.476 304.286 288.244 305.257 287.004C309.088 276.657 311.034 265.63 311.067 254.598L311.004 252.085V252.089Z" fill="white"/>
<g style="mix-blend-mode:multiply">
<path d="M311.004 252.089L308.505 252.156L308.568 254.602H308.42C308.398 268.239 305.309 281.86 299.336 294.113C300.373 292.999 301.348 291.83 302.37 290.66C303.359 289.476 304.286 288.244 305.257 287.004C309.088 276.657 311.034 265.63 311.067 254.598L311.004 252.085V252.089Z" fill="white"/>
</g>
<path d="M256.69 336.4L257.754 338.668C258.521 338.339 259.263 337.947 260.005 337.562L258.883 335.323C258.16 335.697 257.44 336.078 256.69 336.396V336.4Z" fill="white"/>
<g style="mix-blend-mode:multiply">
<path d="M256.69 336.4L257.754 338.668C258.521 338.339 259.263 337.947 260.005 337.562L258.883 335.323C258.16 335.697 257.44 336.078 256.69 336.396V336.4Z" fill="white"/>
</g>
<path d="M194.48 167.549L193.816 165.132L191.401 165.821L192.132 168.219L194.48 167.549Z" fill="white"/>
<g style="mix-blend-mode:multiply">
<path d="M194.48 167.549L193.816 165.132L191.401 165.821L192.132 168.219L194.48 167.549Z" fill="white"/>
</g>
<path d="M187.529 169.754L188.685 169.362L187.858 166.994L186.669 167.397L185.503 167.86L186.393 170.202L187.529 169.754Z" fill="white"/>
<g style="mix-blend-mode:multiply">
<path d="M187.529 169.754L188.685 169.362L187.858 166.994L186.669 167.397L185.503 167.86L186.393 170.202L187.529 169.754Z" fill="white"/>
</g>
<path d="M197.418 166.79L196.835 164.351C196.019 164.54 195.203 164.718 194.402 164.966L195.052 167.386C195.831 167.145 196.625 166.971 197.418 166.79Z" fill="white"/>
<g style="mix-blend-mode:multiply">
<path d="M197.418 166.79L196.835 164.351C196.019 164.54 195.203 164.718 194.402 164.966L195.052 167.386C195.831 167.145 196.625 166.971 197.418 166.79Z" fill="white"/>
</g>
<path d="M191.56 168.385L190.815 165.994L188.438 166.798L189.25 169.17L191.56 168.385Z" fill="white"/>
<g style="mix-blend-mode:multiply">
<path d="M191.56 168.385L190.815 165.994L188.438 166.798L189.25 169.17L191.56 168.385Z" fill="white"/>
</g>
<path d="M174.853 175.575L173.638 173.385L171.464 174.635L172.734 176.797L174.853 175.575Z" fill="white"/>
<g style="mix-blend-mode:multiply">
<path d="M174.853 175.575L173.638 173.385L171.464 174.635L172.734 176.797L174.853 175.575Z" fill="white"/>
</g>
<path d="M172.221 177.093L170.937 174.943C170.206 175.35 169.519 175.834 168.811 176.278L170.154 178.395C170.844 177.966 171.509 177.492 172.221 177.096V177.093Z" fill="white"/>
<g style="mix-blend-mode:multiply">
<path d="M172.221 177.093L170.937 174.943C170.206 175.35 169.519 175.834 168.811 176.278L170.154 178.395C170.844 177.966 171.509 177.492 172.221 177.096V177.093Z" fill="white"/>
</g>
<path d="M185.839 170.42L184.934 168.082L182.598 169.007L183.568 171.316L185.839 170.42Z" fill="white"/>
<g style="mix-blend-mode:multiply">
<path d="M185.839 170.42L184.934 168.082L182.598 169.007L183.568 171.316L185.839 170.42Z" fill="white"/>
</g>
<path d="M169.652 178.713L168.294 176.608C167.596 177.07 166.869 177.489 166.197 177.992L167.611 180.06C168.264 179.572 168.973 179.169 169.649 178.717L169.652 178.713Z" fill="white"/>
<g style="mix-blend-mode:multiply">
<path d="M169.652 178.713L168.294 176.608C167.596 177.07 166.869 177.489 166.197 177.992L167.611 180.06C168.264 179.572 168.973 179.169 169.649 178.717L169.652 178.713Z" fill="white"/>
</g>
<path d="M167.127 180.405L165.698 178.347L163.653 179.801L165.137 181.822L167.127 180.405Z" fill="white"/>
<g style="mix-blend-mode:multiply">
<path d="M167.127 180.405L165.698 178.347L163.653 179.801L165.137 181.822L167.127 180.405Z" fill="white"/>
</g>
<path d="M183.022 171.557L182.04 169.251L179.751 170.287L180.799 172.563L183.022 171.557Z" fill="white"/>
<g style="mix-blend-mode:multiply">
<path d="M183.022 171.557L182.04 169.251L179.751 170.287L180.799 172.563L183.022 171.557Z" fill="white"/>
</g>
<path d="M180.257 172.807L179.194 170.539C178.426 170.868 177.684 171.26 176.942 171.645L178.065 173.884C178.788 173.51 179.508 173.129 180.257 172.811V172.807Z" fill="white"/>
<g style="mix-blend-mode:multiply">
<path d="M180.257 172.807L179.194 170.539C178.426 170.868 177.684 171.26 176.942 171.645L178.065 173.884C178.788 173.51 179.508 173.129 180.257 172.811V172.807Z" fill="white"/>
</g>
<path d="M177.536 174.154L176.399 171.923C175.658 172.308 174.908 172.678 174.17 173.077L175.37 175.279C176.086 174.891 176.817 174.532 177.536 174.158V174.154Z" fill="white"/>
<g style="mix-blend-mode:multiply">
<path d="M177.536 174.154L176.399 171.923C175.658 172.308 174.908 172.678 174.17 173.077L175.37 175.279C176.086 174.891 176.817 174.532 177.536 174.158V174.154Z" fill="white"/>
</g>
<path d="M227.569 344.467L227.82 346.962L230.308 346.651L229.991 344.164L227.569 344.467Z" fill="white"/>
<g style="mix-blend-mode:multiply">
<path d="M227.569 344.467L227.82 346.962L230.308 346.651L229.991 344.164L227.569 344.467Z" fill="white"/>
</g>
<path d="M164.654 182.17L163.156 180.16L161.181 181.707L162.731 183.676L164.654 182.17Z" fill="white"/>
<g style="mix-blend-mode:multiply">
<path d="M164.654 182.17L163.156 180.16L161.181 181.707L162.731 183.676L164.654 182.17Z" fill="white"/>
</g>
<path d="M224.542 344.697L224.708 347.198L227.211 347.01L226.975 344.512L224.542 344.697Z" fill="white"/>
<g style="mix-blend-mode:multiply">
<path d="M224.542 344.697L224.708 347.198L227.211 347.01L226.975 344.512L224.542 344.697Z" fill="white"/>
</g>
<path d="M221.512 344.848L221.593 347.354C222.427 347.328 223.265 347.328 224.099 347.246L223.948 344.745C223.136 344.826 222.324 344.826 221.508 344.848H221.512Z" fill="white"/>
<g style="mix-blend-mode:multiply">
<path d="M221.512 344.848L221.593 347.354C222.427 347.328 223.265 347.328 224.099 347.246L223.948 344.745C223.136 344.826 222.324 344.826 221.508 344.848H221.512Z" fill="white"/>
</g>
<path d="M230.581 344.09L230.913 346.577C231.744 346.466 232.574 346.384 233.398 346.218L232.999 343.742C232.202 343.905 231.389 343.982 230.585 344.09H230.581Z" fill="white"/>
<g style="mix-blend-mode:multiply">
<path d="M230.581 344.09L230.913 346.577C231.744 346.466 232.574 346.384 233.398 346.218L232.999 343.742C232.202 343.905 231.389 343.982 230.585 344.09H230.581Z" fill="white"/>
</g>
<path d="M233.582 343.635L233.999 346.107L236.469 345.666L235.985 343.205L233.582 343.635Z" fill="white"/>
<g style="mix-blend-mode:multiply">
<path d="M233.582 343.635L233.999 346.107L236.469 345.666L235.985 343.205L233.582 343.635Z" fill="white"/>
</g>
<path d="M236.572 343.102L237.071 345.555L239.518 344.996L238.949 342.554L236.572 343.102Z" fill="white"/>
<g style="mix-blend-mode:multiply">
<path d="M236.572 343.102L237.071 345.555L239.518 344.996L238.949 342.554L236.572 343.102Z" fill="white"/>
</g>
<path d="M209.378 164.744L209.127 162.246L206.639 162.557L206.956 165.043L209.378 164.744Z" fill="white"/>
<g style="mix-blend-mode:multiply">
<path d="M209.378 164.744L209.127 162.246L206.639 162.557L206.956 165.043L209.378 164.744Z" fill="white"/>
</g>
<path d="M215.439 164.363L215.358 161.857C214.524 161.883 213.686 161.883 212.852 161.965L213.003 164.466C213.815 164.385 214.627 164.385 215.443 164.363H215.439Z" fill="white"/>
<g style="mix-blend-mode:multiply">
<path d="M215.439 164.363L215.358 161.857C214.524 161.883 213.686 161.883 212.852 161.965L213.003 164.466C213.815 164.385 214.627 164.385 215.443 164.363H215.439Z" fill="white"/>
</g>
<path d="M253.925 337.654L254.91 339.96L257.195 338.924L256.147 336.644L253.925 337.654Z" fill="white"/>
<g style="mix-blend-mode:multiply">
<path d="M253.925 337.654L254.91 339.96L257.195 338.924L256.147 336.644L253.925 337.654Z" fill="white"/>
</g>
<path d="M218.473 164.285V164.433C232.076 164.455 245.664 167.552 257.886 173.54C256.775 172.5 255.608 171.523 254.445 170.498C253.264 169.506 252.035 168.578 250.798 167.604C240.477 163.763 229.477 161.813 218.473 161.78L215.967 161.842L216.033 164.348L218.473 164.285Z" fill="white"/>
<g style="mix-blend-mode:multiply">
<path d="M218.473 164.285V164.433C232.076 164.455 245.664 167.552 257.886 173.54C256.775 172.5 255.608 171.523 254.445 170.498C253.264 169.506 252.035 168.578 250.798 167.604C240.477 163.763 229.477 161.813 218.473 161.78L215.967 161.842L216.033 164.348L218.473 164.285Z" fill="white"/>
</g>
<path d="M212.405 164.511L212.239 162.009L209.74 162.201L209.973 164.696L212.405 164.511Z" fill="white"/>
<g style="mix-blend-mode:multiply">
<path d="M212.405 164.511L212.239 162.009L209.74 162.201L209.973 164.696L212.405 164.511Z" fill="white"/>
</g>
<path d="M203.365 165.573L202.948 163.101L200.479 163.545L200.962 166.006L203.365 165.573Z" fill="white"/>
<g style="mix-blend-mode:multiply">
<path d="M203.365 165.573L202.948 163.101L200.479 163.545L200.962 166.006L203.365 165.573Z" fill="white"/>
</g>
<path d="M206.366 165.121L206.034 162.634C205.204 162.745 204.373 162.827 203.55 162.993L203.948 165.469C204.746 165.306 205.558 165.228 206.363 165.121H206.366Z" fill="white"/>
<g style="mix-blend-mode:multiply">
<path d="M206.366 165.121L206.034 162.634C205.204 162.745 204.373 162.827 203.55 162.993L203.948 165.469C204.746 165.306 205.558 165.228 206.363 165.121H206.366Z" fill="white"/>
</g>
<path d="M200.375 166.109L199.877 163.652L197.43 164.215L197.998 166.657L200.375 166.109Z" fill="white"/>
<g style="mix-blend-mode:multiply">
<path d="M200.375 166.109L199.877 163.652L197.43 164.215L197.998 166.657L200.375 166.109Z" fill="white"/>
</g>
<path d="M144.459 306.081L142.406 307.509L143.861 309.559L145.876 308.076L144.459 306.081Z" fill="white"/>
<g style="mix-blend-mode:multiply">
<path d="M144.459 306.081L142.406 307.509L143.861 309.559L145.876 308.076L144.459 306.081Z" fill="white"/>
</g>
<path d="M146.219 308.56L144.215 310.059L145.762 312.043L147.725 310.488L146.219 308.56Z" fill="white"/>
<g style="mix-blend-mode:multiply">
<path d="M146.219 308.56L144.215 310.059L145.762 312.043L147.725 310.488L146.219 308.56Z" fill="white"/>
</g>
<path d="M142.775 303.55L140.675 304.912C141.136 305.611 141.553 306.34 142.055 307.013L144.119 305.596C143.632 304.941 143.229 304.231 142.779 303.553L142.775 303.55Z" fill="white"/>
<g style="mix-blend-mode:multiply">
<path d="M142.775 303.55L140.675 304.912C141.136 305.611 141.553 306.34 142.055 307.013L144.119 305.596C143.632 304.941 143.229 304.231 142.779 303.553L142.775 303.55Z" fill="white"/>
</g>
<path d="M148.09 310.958L146.138 312.524C146.651 313.186 147.168 313.845 147.729 314.47L149.641 312.853C149.094 312.246 148.592 311.606 148.094 310.962L148.09 310.958Z" fill="white"/>
<g style="mix-blend-mode:multiply">
<path d="M148.09 310.958L146.138 312.524C146.651 313.186 147.168 313.845 147.729 314.47L149.641 312.853C149.094 312.246 148.592 311.606 148.094 310.962L148.09 310.958Z" fill="white"/>
</g>
<path d="M150.029 313.301L148.128 314.929L149.771 316.831L151.627 315.151L150.029 313.301Z" fill="white"/>
<g style="mix-blend-mode:multiply">
<path d="M150.029 313.301L148.128 314.929L149.771 316.831L151.627 315.151L150.029 313.301Z" fill="white"/>
</g>
<path d="M138.228 295.645L136.002 296.785C136.386 297.529 136.755 298.28 137.154 299.02L139.35 297.817C138.962 297.1 138.604 296.367 138.228 295.645Z" fill="white"/>
<g style="mix-blend-mode:multiply">
<path d="M138.228 295.645L136.002 296.785C136.386 297.529 136.755 298.28 137.154 299.02L139.35 297.817C138.962 297.1 138.604 296.367 138.228 295.645Z" fill="white"/>
</g>
<path d="M136.884 292.918L134.621 293.984C134.95 294.753 135.341 295.497 135.725 296.241L137.958 295.116C137.585 294.391 137.205 293.669 136.888 292.918H136.884Z" fill="white"/>
<g style="mix-blend-mode:multiply">
<path d="M136.884 292.918L134.621 293.984C134.95 294.753 135.341 295.497 135.725 296.241L137.958 295.116C137.585 294.391 137.205 293.669 136.888 292.918H136.884Z" fill="white"/>
</g>
<path d="M141.158 300.974L139.014 302.262C139.42 302.995 139.903 303.683 140.346 304.393L142.458 303.046C142.029 302.354 141.557 301.688 141.162 300.974H141.158Z" fill="white"/>
<g style="mix-blend-mode:multiply">
<path d="M141.158 300.974L139.014 302.262C139.42 302.995 139.903 303.683 140.346 304.393L142.458 303.046C142.029 302.354 141.557 301.688 141.162 300.974H141.158Z" fill="white"/>
</g>
<path d="M139.645 298.336L137.456 299.553L138.707 301.733L140.859 300.456L139.645 298.336Z" fill="white"/>
<g style="mix-blend-mode:multiply">
<path d="M139.645 298.336L137.456 299.553L138.707 301.733L140.859 300.456L139.645 298.336Z" fill="white"/>
</g>
<path d="M245.387 340.822L246.132 343.216L248.51 342.41L247.698 340.038L245.387 340.822Z" fill="white"/>
<g style="mix-blend-mode:multiply">
<path d="M245.387 340.822L246.132 343.216L248.51 342.41L247.698 340.038L245.387 340.822Z" fill="white"/>
</g>
<path d="M249.418 339.457L248.263 339.845L249.09 342.214L250.278 341.81L251.445 341.351L250.555 339.009L249.418 339.457Z" fill="white"/>
<g style="mix-blend-mode:multiply">
<path d="M249.418 339.457L248.263 339.845L249.09 342.214L250.278 341.81L251.445 341.351L250.555 339.009L249.418 339.457Z" fill="white"/>
</g>
<path d="M152.029 315.588L150.184 317.283L151.915 319.103L153.713 317.36L152.029 315.588Z" fill="white"/>
<g style="mix-blend-mode:multiply">
<path d="M152.029 315.588L150.184 317.283L151.915 319.103L153.713 317.36L152.029 315.588Z" fill="white"/>
</g>
<path d="M242.467 341.659L243.135 344.075L245.545 343.39L244.818 340.992L242.467 341.659Z" fill="white"/>
<g style="mix-blend-mode:multiply">
<path d="M242.467 341.659L243.135 344.075L245.545 343.39L244.818 340.992L242.467 341.659Z" fill="white"/>
</g>
<path d="M251.108 338.791L252.013 341.126L254.349 340.204L253.379 337.891L251.108 338.791Z" fill="white"/>
<g style="mix-blend-mode:multiply">
<path d="M251.108 338.791L252.013 341.126L254.349 340.204L253.379 337.891L251.108 338.791Z" fill="white"/>
</g>
<path d="M176.127 334.165C172.144 332.004 168.312 329.565 164.665 326.871C161.055 324.125 157.637 321.131 154.44 317.915L152.554 319.781C161.188 328.588 171.605 335.641 182.989 340.363C181.771 339.39 180.612 338.332 179.453 337.336C178.305 336.315 177.216 335.212 176.123 334.169L176.127 334.165Z" fill="white"/>
<g style="mix-blend-mode:multiply">
<path d="M176.127 334.165C172.144 332.004 168.312 329.565 164.665 326.871C161.055 324.125 157.637 321.131 154.44 317.915L152.554 319.781C161.188 328.588 171.605 335.641 182.989 340.363C181.771 339.39 180.612 338.332 179.453 337.336C178.305 336.315 177.216 335.212 176.123 334.169L176.127 334.165Z" fill="white"/>
</g>
<path d="M239.529 342.417L240.113 344.856C240.928 344.667 241.744 344.49 242.545 344.242L241.895 341.821C241.117 342.062 240.323 342.236 239.529 342.417Z" fill="white"/>
<g style="mix-blend-mode:multiply">
<path d="M239.529 342.417L240.113 344.856C240.928 344.667 241.744 344.49 242.545 344.242L241.895 341.821C241.117 342.062 240.323 342.236 239.529 342.417Z" fill="white"/>
</g>
<path d="M218.474 344.922V344.774C204.871 344.752 191.284 341.655 179.062 335.667C180.173 336.707 181.339 337.684 182.506 338.709C183.687 339.701 184.916 340.63 186.153 341.603C196.474 345.444 207.474 347.394 218.478 347.428L220.984 347.365L220.918 344.86L218.478 344.922H218.474Z" fill="white"/>
<g style="mix-blend-mode:multiply">
<path d="M218.474 344.922V344.774C204.871 344.752 191.284 341.655 179.062 335.667C180.173 336.707 181.339 337.684 182.506 338.709C183.687 339.701 184.916 340.63 186.153 341.603C196.474 345.444 207.474 347.394 218.478 347.428L220.984 347.365L220.918 344.86L218.478 344.922H218.474Z" fill="white"/>
</g>
<path d="M162.262 184.046L160.7 182.088C160.04 182.603 159.383 183.121 158.759 183.683L160.372 185.6C160.977 185.053 161.616 184.549 162.258 184.05L162.262 184.046Z" fill="white"/>
<g style="mix-blend-mode:multiply">
<path d="M162.262 184.046L160.7 182.088C160.04 182.603 159.383 183.121 158.759 183.683L160.372 185.6C160.977 185.053 161.616 184.549 162.258 184.05L162.262 184.046Z" fill="white"/>
</g>
<path d="M128.608 260.689L126.112 260.856L126.301 263.361L128.792 263.128L128.608 260.689Z" fill="white"/>
<g style="mix-blend-mode:multiply">
<path d="M128.608 260.689L126.112 260.856L126.301 263.361L128.792 263.128L128.608 260.689Z" fill="white"/>
</g>
<path d="M128.457 257.647L125.958 257.733C125.984 258.569 125.984 259.409 126.065 260.245L128.56 260.093C128.479 259.279 128.479 258.465 128.457 257.647Z" fill="white"/>
<g style="mix-blend-mode:multiply">
<path d="M128.457 257.647L125.958 257.733C125.984 258.569 125.984 259.409 126.065 260.245L128.56 260.093C128.479 259.279 128.479 258.465 128.457 257.647Z" fill="white"/>
</g>
<path d="M128.837 263.724L126.349 263.972L126.659 266.47L129.139 266.151L128.837 263.724Z" fill="white"/>
<g style="mix-blend-mode:multiply">
<path d="M128.837 263.724L126.349 263.972L126.659 266.47L129.139 266.151L128.837 263.724Z" fill="white"/>
</g>
<path d="M129.213 266.743L126.732 267.077C126.843 267.909 126.924 268.742 127.09 269.567L129.56 269.167C129.398 268.368 129.32 267.554 129.213 266.747V266.743Z" fill="white"/>
<g style="mix-blend-mode:multiply">
<path d="M129.213 266.743L126.732 267.077C126.843 267.909 126.924 268.742 127.09 269.567L129.56 269.167C129.398 268.368 129.32 267.554 129.213 266.747V266.743Z" fill="white"/>
</g>
<path d="M128.379 254.606H128.527C128.549 240.969 131.638 227.347 137.611 215.094C136.574 216.208 135.599 217.377 134.577 218.543C133.587 219.727 132.661 220.96 131.69 222.199C127.858 232.546 125.913 243.574 125.88 254.606L125.943 257.118L128.442 257.052L128.379 254.606Z" fill="white"/>
<g style="mix-blend-mode:multiply">
<path d="M128.379 254.606H128.527C128.549 240.969 131.638 227.347 137.611 215.094C136.574 216.208 135.599 217.377 134.577 218.543C133.587 219.727 132.661 220.96 131.69 222.199C127.858 232.546 125.913 243.574 125.88 254.606L125.943 257.118L128.442 257.052L128.379 254.606Z" fill="white"/>
</g>
<path d="M139.114 212.152C141.269 208.159 143.702 204.318 146.389 200.662C149.128 197.043 152.111 193.616 155.322 190.411L153.462 188.52C144.677 197.176 137.641 207.619 132.931 219.032C133.901 217.81 134.957 216.648 135.95 215.486C136.969 214.332 138.069 213.244 139.11 212.148L139.114 212.152Z" fill="white"/>
<g style="mix-blend-mode:multiply">
<path d="M139.114 212.152C141.269 208.159 143.702 204.318 146.389 200.662C149.128 197.043 152.111 193.616 155.322 190.411L153.462 188.52C144.677 197.176 137.641 207.619 132.931 219.032C133.901 217.81 134.957 216.648 135.95 215.486C136.969 214.332 138.069 213.244 139.11 212.148L139.114 212.152Z" fill="white"/>
</g>
<path d="M159.925 185.989L158.297 184.083L156.403 185.73L158.079 187.588L159.925 185.989Z" fill="white"/>
<g style="mix-blend-mode:multiply">
<path d="M159.925 185.989L158.297 184.083L156.403 185.73L158.079 187.588L159.925 185.989Z" fill="white"/>
</g>
<path d="M157.64 187.991L155.953 186.144L154.137 187.88L155.875 189.682L157.64 187.991Z" fill="white"/>
<g style="mix-blend-mode:multiply">
<path d="M157.64 187.991L155.953 186.144L154.137 187.88L155.875 189.682L157.64 187.991Z" fill="white"/>
</g>
<path d="M134.499 287.319L132.17 288.229L133.089 290.568L135.396 289.598L134.499 287.319Z" fill="white"/>
<g style="mix-blend-mode:multiply">
<path d="M134.499 287.319L132.17 288.229L133.089 290.568L135.396 289.598L134.499 287.319Z" fill="white"/>
</g>
<path d="M133.835 285.628L133.444 284.469L131.085 285.298L131.487 286.49L131.945 287.659L134.282 286.764L133.835 285.628Z" fill="white"/>
<g style="mix-blend-mode:multiply">
<path d="M133.835 285.628L133.444 284.469L131.085 285.298L131.487 286.49L131.945 287.659L134.282 286.764L133.835 285.628Z" fill="white"/>
</g>
<path d="M135.633 290.142L133.333 291.13L134.367 293.425L136.637 292.374L135.633 290.142Z" fill="white"/>
<g style="mix-blend-mode:multiply">
<path d="M135.633 290.142L133.333 291.13L134.367 293.425L136.637 292.374L135.633 290.142Z" fill="white"/>
</g>
<path d="M132.472 281.587L130.084 282.334L130.889 284.717L133.255 283.903L132.472 281.587Z" fill="white"/>
<g style="mix-blend-mode:multiply">
<path d="M132.472 281.587L130.084 282.334L130.889 284.717L133.255 283.903L132.472 281.587Z" fill="white"/>
</g>
<path d="M130.199 272.746L127.748 273.249L128.309 275.699L130.745 275.133L130.199 272.746Z" fill="white"/>
<g style="mix-blend-mode:multiply">
<path d="M130.199 272.746L127.748 273.249L128.309 275.699L130.745 275.133L130.199 272.746Z" fill="white"/>
</g>
<path d="M129.667 269.752L127.201 270.17L127.64 272.646L130.095 272.161L129.667 269.752Z" fill="white"/>
<g style="mix-blend-mode:multiply">
<path d="M129.667 269.752L127.201 270.17L127.64 272.646L130.095 272.161L129.667 269.752Z" fill="white"/>
</g>
<path d="M131.635 278.659L129.225 279.326L129.911 281.746L132.303 281.013L131.635 278.659Z" fill="white"/>
<g style="mix-blend-mode:multiply">
<path d="M131.635 278.659L129.225 279.326L129.911 281.746L132.303 281.013L131.635 278.659Z" fill="white"/>
</g>
<path d="M130.878 275.714L128.445 276.298C128.634 277.116 128.811 277.934 129.058 278.737L131.472 278.086C131.232 277.305 131.059 276.509 130.878 275.714Z" fill="white"/>
<g style="mix-blend-mode:multiply">
<path d="M130.878 275.714L128.445 276.298C128.634 277.116 128.811 277.934 129.058 278.737L131.472 278.086C131.232 277.305 131.059 276.509 130.878 275.714Z" fill="white"/>
</g>
<path d="M213.397 181.811L213.874 188.679" stroke="white" stroke-width="2" stroke-miterlimit="10"/>
<path d="M208.344 182.344L209.3 189.16" stroke="white" stroke-width="2" stroke-miterlimit="10"/>
<path d="M203.339 183.228L204.767 189.963" stroke="white" stroke-width="2" stroke-miterlimit="10"/>
<path d="M198.41 184.461L200.304 191.077" stroke="white" stroke-width="2" stroke-miterlimit="10"/>
<path d="M193.578 186.033L195.926 192.502" stroke="white" stroke-width="2" stroke-miterlimit="10"/>
<path d="M188.868 187.943L191.659 194.23" stroke="white" stroke-width="2" stroke-miterlimit="10"/>
<path d="M184.303 190.174L187.525 196.254" stroke="white" stroke-width="2" stroke-miterlimit="10"/>
<path d="M179.902 192.72L183.542 198.56" stroke="white" stroke-width="2" stroke-miterlimit="10"/>
<path d="M175.69 195.57L179.725 201.139" stroke="white" stroke-width="2" stroke-miterlimit="10"/>
<path d="M171.686 198.704L176.1 203.977" stroke="white" stroke-width="2" stroke-miterlimit="10"/>
<path d="M167.909 202.112L172.682 207.068" stroke="white" stroke-width="2" stroke-miterlimit="10"/>
<path d="M164.38 205.776L169.485 210.383" stroke="white" stroke-width="2" stroke-miterlimit="10"/>
<path d="M161.117 209.68L166.529 213.917" stroke="white" stroke-width="2" stroke-miterlimit="10"/>
<path d="M158.131 213.799L163.823 217.648" stroke="white" stroke-width="2" stroke-miterlimit="10"/>
<path d="M155.436 218.118L161.382 221.563" stroke="white" stroke-width="2" stroke-miterlimit="10"/>
<path d="M153.052 222.617L159.224 225.633" stroke="white" stroke-width="2" stroke-miterlimit="10"/>
<path d="M150.984 227.269L157.352 229.848" stroke="white" stroke-width="2" stroke-miterlimit="10"/>
<path d="M149.249 232.054L155.779 234.182" stroke="white" stroke-width="2" stroke-miterlimit="10"/>
<path d="M147.847 236.95L154.51 238.615" stroke="white" stroke-width="2" stroke-miterlimit="10"/>
<path d="M146.791 241.935L153.554 243.13" stroke="white" stroke-width="2" stroke-miterlimit="10"/>
<path d="M146.086 246.979L152.915 247.696" stroke="white" stroke-width="2" stroke-miterlimit="10"/>
<path d="M145.731 252.056L152.594 252.296" stroke="white" stroke-width="2" stroke-miterlimit="10"/>
<path d="M145.731 257.151L152.594 256.911" stroke="white" stroke-width="2" stroke-miterlimit="10"/>
<path d="M146.086 262.232L152.915 261.511" stroke="white" stroke-width="2" stroke-miterlimit="10"/>
<path d="M146.791 267.276L153.554 266.081" stroke="white" stroke-width="2" stroke-miterlimit="10"/>
<path d="M147.847 272.257L154.51 270.592" stroke="white" stroke-width="2" stroke-miterlimit="10"/>
<path d="M149.249 277.153L155.779 275.025" stroke="white" stroke-width="2" stroke-miterlimit="10"/>
<path d="M150.984 281.938L157.352 279.359" stroke="white" stroke-width="2" stroke-miterlimit="10"/>
<path d="M153.052 286.594L159.224 283.574" stroke="white" stroke-width="2" stroke-miterlimit="10"/>
<path d="M155.436 291.09L161.382 287.648" stroke="white" stroke-width="2" stroke-miterlimit="10"/>
<path d="M158.131 295.408L163.823 291.56" stroke="white" stroke-width="2" stroke-miterlimit="10"/>
<path d="M161.117 299.531L166.529 295.29" stroke="white" stroke-width="2" stroke-miterlimit="10"/>
<path d="M164.38 303.431L169.485 298.824" stroke="white" stroke-width="2" stroke-miterlimit="10"/>
<path d="M167.909 307.095L172.682 302.143" stroke="white" stroke-width="2" stroke-miterlimit="10"/>
<path d="M171.686 310.503L176.1 305.23" stroke="white" stroke-width="2" stroke-miterlimit="10"/>
<path d="M175.69 313.638L179.725 308.068" stroke="white" stroke-width="2" stroke-miterlimit="10"/>
<path d="M179.902 316.487L183.542 310.647" stroke="white" stroke-width="2" stroke-miterlimit="10"/>
<path d="M184.303 319.033L187.525 312.957" stroke="white" stroke-width="2" stroke-miterlimit="10"/>
<path d="M188.868 321.264L191.659 314.977" stroke="white" stroke-width="2" stroke-miterlimit="10"/>
<path d="M193.578 323.174L195.926 316.705" stroke="white" stroke-width="2" stroke-miterlimit="10"/>
<path d="M198.41 324.747L200.304 318.13" stroke="white" stroke-width="2" stroke-miterlimit="10"/>
<path d="M203.339 325.979L204.767 319.248" stroke="white" stroke-width="2" stroke-miterlimit="10"/>
<path d="M208.344 326.864L209.3 320.047" stroke="white" stroke-width="2" stroke-miterlimit="10"/>
<path d="M213.397 327.396L213.874 320.528" stroke="white" stroke-width="2" stroke-miterlimit="10"/>
<path d="M218.473 327.574V320.691" stroke="white" stroke-width="2" stroke-miterlimit="10"/>
<path d="M223.552 327.396L223.072 320.528" stroke="white" stroke-width="2" stroke-miterlimit="10"/>
<path d="M228.603 326.864L227.646 320.047" stroke="white" stroke-width="2" stroke-miterlimit="10"/>
<path d="M233.607 325.979L232.179 319.248" stroke="white" stroke-width="2" stroke-miterlimit="10"/>
<path d="M238.535 324.747L236.642 318.13" stroke="white" stroke-width="2" stroke-miterlimit="10"/>
<path d="M243.367 323.174L241.02 316.705" stroke="white" stroke-width="2" stroke-miterlimit="10"/>
<path d="M248.078 321.264L245.287 314.977" stroke="white" stroke-width="2" stroke-miterlimit="10"/>
<path d="M252.643 319.033L249.421 312.957" stroke="white" stroke-width="2" stroke-miterlimit="10"/>
<path d="M257.044 316.487L253.404 310.647" stroke="white" stroke-width="2" stroke-miterlimit="10"/>
<path d="M261.255 313.638L257.221 308.068" stroke="white" stroke-width="2" stroke-miterlimit="10"/>
<path d="M265.261 310.503L260.846 305.23" stroke="white" stroke-width="2" stroke-miterlimit="10"/>
<path d="M218.473 181.633V188.516" stroke="white" stroke-width="2" stroke-miterlimit="10"/>
<path d="M269.037 307.095L264.264 302.143" stroke="white" stroke-width="2" stroke-miterlimit="10"/>
<path d="M272.565 303.431L267.46 298.824" stroke="white" stroke-width="2" stroke-miterlimit="10"/>
<path d="M275.829 299.531L270.421 295.29" stroke="white" stroke-width="2" stroke-miterlimit="10"/>
<path d="M278.815 295.408L273.123 291.56" stroke="white" stroke-width="2" stroke-miterlimit="10"/>
<path d="M281.51 291.09L275.563 287.648" stroke="white" stroke-width="2" stroke-miterlimit="10"/>
<path d="M283.895 286.594L277.723 283.574" stroke="white" stroke-width="2" stroke-miterlimit="10"/>
<path d="M285.961 281.938L279.594 279.359" stroke="white" stroke-width="2" stroke-miterlimit="10"/>
<path d="M287.696 277.153L281.166 275.025" stroke="white" stroke-width="2" stroke-miterlimit="10"/>
<path d="M289.099 272.257L282.437 270.592" stroke="white" stroke-width="2" stroke-miterlimit="10"/>
<path d="M290.155 267.276L283.393 266.081" stroke="white" stroke-width="2" stroke-miterlimit="10"/>
<path d="M290.864 262.232L284.031 261.511" stroke="white" stroke-width="2" stroke-miterlimit="10"/>
<path d="M291.218 257.151L284.353 256.911" stroke="white" stroke-width="2" stroke-miterlimit="10"/>
<path d="M291.218 252.056L284.353 252.296" stroke="white" stroke-width="2" stroke-miterlimit="10"/>
<path d="M290.864 246.979L284.031 247.696" stroke="white" stroke-width="2" stroke-miterlimit="10"/>
<path d="M290.155 241.935L283.393 243.13" stroke="white" stroke-width="2" stroke-miterlimit="10"/>
<path d="M289.099 236.95L282.437 238.615" stroke="white" stroke-width="2" stroke-miterlimit="10"/>
<path d="M287.696 232.054L281.166 234.182" stroke="white" stroke-width="2" stroke-miterlimit="10"/>
<path d="M285.961 227.269L279.594 229.848" stroke="white" stroke-width="2" stroke-miterlimit="10"/>
<path d="M283.895 222.617L277.723 225.633" stroke="white" stroke-width="2" stroke-miterlimit="10"/>
<path d="M281.51 218.118L275.563 221.563" stroke="white" stroke-width="2" stroke-miterlimit="10"/>
<path d="M278.815 213.799L273.123 217.648" stroke="white" stroke-width="2" stroke-miterlimit="10"/>
<path d="M275.829 209.68L270.421 213.917" stroke="white" stroke-width="2" stroke-miterlimit="10"/>
<path d="M272.565 205.776L267.46 210.383" stroke="white" stroke-width="2" stroke-miterlimit="10"/>
<path d="M269.037 202.112L264.264 207.068" stroke="white" stroke-width="2" stroke-miterlimit="10"/>
<path d="M265.261 198.704L260.846 203.977" stroke="white" stroke-width="2" stroke-miterlimit="10"/>
<path d="M261.255 195.57L257.221 201.139" stroke="white" stroke-width="2" stroke-miterlimit="10"/>
<path d="M257.044 192.72L253.404 198.56" stroke="white" stroke-width="2" stroke-miterlimit="10"/>
<path d="M252.643 190.174L249.421 196.254" stroke="white" stroke-width="2" stroke-miterlimit="10"/>
<path d="M248.077 187.943L245.286 194.23" stroke="white" stroke-width="2" stroke-miterlimit="10"/>
<path d="M243.367 186.033L241.02 192.502" stroke="white" stroke-width="2" stroke-miterlimit="10"/>
<path d="M238.535 184.461L236.642 191.077" stroke="white" stroke-width="2" stroke-miterlimit="10"/>
<path d="M233.607 183.228L232.179 189.963" stroke="white" stroke-width="2" stroke-miterlimit="10"/>
<path d="M228.602 182.344L227.646 189.16" stroke="white" stroke-width="2" stroke-miterlimit="10"/>
<path d="M223.552 181.811L223.072 188.679" stroke="white" stroke-width="2" stroke-miterlimit="10"/>
<path d="M96.8105 155.981V133.144V132.634H119.59" stroke="white" stroke-width="3" stroke-miterlimit="10"/>
<path d="M316.848 132.634H339.627H340.136V155.47" stroke="white" stroke-width="3" stroke-miterlimit="10"/>
<path d="M340.137 353.219V376.056V376.566H317.357" stroke="white" stroke-width="3" stroke-miterlimit="10"/>
<path d="M120.099 376.566H97.32H96.8105V353.73" stroke="white" stroke-width="3" stroke-miterlimit="10"/>
<path d="M218.473 207.737L216.646 204.562L214.818 201.387H218.473H222.131L220.3 204.562L218.473 207.737Z" fill="white"/>
<path d="M218.473 301.47L220.3 304.645L222.131 307.82H218.473H214.818L216.646 304.645L218.473 301.47Z" fill="white"/>
<path d="M265.224 254.605L268.391 252.77L271.554 250.938V254.605V258.269L268.391 256.437L265.224 254.605Z" fill="white"/>
<path d="M171.722 254.605L168.559 256.437L165.392 258.269V254.605V250.938L168.559 252.77L171.722 254.605Z" fill="white"/>
<path d="M210.404 150.456H216.875H226.543" stroke="white" stroke-width="2" stroke-miterlimit="10"/>
<path d="M211.704 115.333H217.134H225.244" stroke="white" stroke-width="2" stroke-miterlimit="10"/>
<path d="M214.306 96.9412H217.646H222.641" stroke="white" stroke-width="2" stroke-miterlimit="10"/>
<path d="M215.605 79.1006H217.905H221.342" stroke="white" stroke-width="2" stroke-miterlimit="10"/>
<path d="M218.474 150.456V67.8914" stroke="white" stroke-width="2" stroke-miterlimit="10"/>
<path d="M226.557 358.681H220.083H210.415" stroke="white" stroke-width="2" stroke-miterlimit="10"/>
<path d="M225.255 394.359H219.828H211.715" stroke="white" stroke-width="2" stroke-miterlimit="10"/>
<path d="M222.655 412.196H219.311H214.316" stroke="white" stroke-width="2" stroke-miterlimit="10"/>
<path d="M221.353 430.036H219.053H215.616" stroke="white" stroke-width="2" stroke-miterlimit="10"/>
<path d="M218.484 358.681V441.246" stroke="white" stroke-width="2" stroke-miterlimit="10"/>
<path d="M322.326 246.509V252.996V262.688" stroke="white" stroke-width="2" stroke-miterlimit="10"/>
<path d="M357.117 247.811V253.255V261.385" stroke="white" stroke-width="2" stroke-miterlimit="10"/>
<path d="M375.707 250.42V253.769V258.776" stroke="white" stroke-width="2" stroke-miterlimit="10"/>
<path d="M393.502 251.723V254.028V257.473" stroke="white" stroke-width="2" stroke-miterlimit="10"/>
<path d="M322.326 254.598H404.684" stroke="white" stroke-width="2" stroke-miterlimit="10"/>
<path d="M114.621 262.702V256.212V246.52" stroke="white" stroke-width="2" stroke-miterlimit="10"/>
<path d="M80.3213 261.396V255.953V247.822" stroke="white" stroke-width="2" stroke-miterlimit="10"/>
<path d="M61.2402 258.787V255.438V250.431" stroke="white" stroke-width="2" stroke-miterlimit="10"/>
<path d="M43.4443 257.485V255.179V251.734" stroke="white" stroke-width="2" stroke-miterlimit="10"/>
<path d="M114.621 254.609H32.2637" stroke="white" stroke-width="2" stroke-miterlimit="10"/>
<path d="M243.842 276.777C243.842 281.891 239.701 286.042 234.6 286.042H198.406C193.305 286.042 189.164 281.891 189.164 276.777V247.961C189.164 242.847 193.305 238.696 198.406 238.696H234.6C239.701 238.696 243.842 242.847 243.842 247.961V276.777Z" stroke="white" stroke-width="4" stroke-miterlimit="10" stroke-linecap="round"/>
<path d="M200.978 238.696V231.603C200.978 223.006 207.927 216.038 216.504 216.038C225.08 216.038 232.03 223.01 232.03 231.603V238.696" stroke="white" stroke-width="4" stroke-miterlimit="10" stroke-linecap="round"/>
<path d="M224.321 260.192C224.321 264.522 220.821 268.029 216.503 268.029C212.185 268.029 208.686 264.522 208.686 260.192C208.686 255.863 212.185 252.355 216.503 252.355C220.821 252.355 224.321 255.863 224.321 260.192Z" stroke="white" stroke-width="4" stroke-miterlimit="10" stroke-linecap="round"/>
<path d="M216.503 268.029V277.477" stroke="white" stroke-width="4" stroke-miterlimit="10" stroke-linecap="round"/>
<g filter="url(#filter0_d_635_2927)">
<ellipse cx="84.8675" cy="208.366" rx="34.9143" ry="35.0019" fill="#5BCDE6"/>
</g>
<path d="M85.5839 230.655L89.9244 228.389C99.6754 223.302 105.753 213.434 105.753 202.702V191.867C105.753 191.024 105.064 190.323 104.192 190.302C93.934 190.032 87.5694 187.164 85.4763 186.053C84.9992 185.802 84.4229 185.802 83.9458 186.053C81.85 187.164 75.4882 190.035 65.2298 190.302C64.3611 190.326 63.6689 191.024 63.6689 191.867V202.702C63.6689 213.434 69.7495 223.299 79.4978 228.389L83.8383 230.655C84.3815 230.938 85.0378 230.938 85.5811 230.655H85.5839Z" fill="white"/>
<g filter="url(#filter1_d_635_2927)">
<ellipse cx="427.959" cy="308.705" rx="27.9315" ry="28.0016" fill="#85B880"/>
</g>
<path d="M439.575 296.115L422.649 313.104L416.294 306.742L412.061 310.99L418.419 317.352L422.657 321.592L443.812 300.355L439.575 296.115Z" fill="white"/>
<g filter="url(#filter2_d_635_2927)">
<ellipse cx="95.1091" cy="68.3581" rx="58.029" ry="58.1747" fill="#01174E"/>
</g>
<path d="M112.846 99.8654H74.5068V98.5213C74.5068 95.5106 77.8065 92.5586 80.7554 92.5293H106.51C109.2 92.3367 112.85 95.4562 112.85 98.1486V99.8654H112.846Z" fill="white"/>
<path fill-rule="evenodd" clip-rule="evenodd" d="M59.2235 36.6916L127.435 36.6413C128.337 36.7293 129.194 37.8263 129.148 38.7308V85.0633C129.11 86.3781 128.083 87.3538 126.784 87.425H102.191C102.241 88.7607 101.464 89.975 100.098 90.2011C98.1099 90.0744 96.0087 90.1538 93.9077 90.2332C91.568 90.3216 89.2284 90.4101 87.0454 90.2137C86.1014 90.13 85.1115 89.3009 84.9152 88.3587C84.8934 88.2545 84.8932 88.1325 84.8931 88.0117C84.8928 87.7392 84.8925 87.4727 84.6437 87.4292H60.2844C59.2737 87.3496 58.5218 86.956 58.0916 86.0097C57.9908 76.402 58.0056 66.7806 58.0203 57.1593C58.03 50.8295 58.0396 44.4997 58.0164 38.1739C58.0081 37.6588 58.7599 36.813 59.2235 36.6916ZM124.29 81.0268C124.929 81.0435 125.117 80.5117 125.167 79.959L125.171 79.9548C125.142 74.9311 125.155 69.903 125.168 64.8747C125.189 56.9941 125.21 49.1129 125.067 41.2474C125.057 41.2241 125.047 41.1991 125.036 41.1732C124.99 41.0594 124.936 40.9288 124.858 40.8538C124.716 40.7198 124.399 40.636 124.198 40.636H63.0662C62.352 40.703 62.1515 41.0212 62.093 41.7038V79.959C62.139 80.5117 62.3311 81.0435 62.9701 81.0268H124.29ZM95.6036 85.7166C95.6036 86.7781 94.7453 87.6386 93.6865 87.6386C92.6277 87.6386 91.7693 86.7781 91.7693 85.7166C91.7693 84.6551 92.6277 83.7946 93.6865 83.7946C94.7453 83.7946 95.6036 84.6551 95.6036 85.7166Z" fill="white"/>
<defs>
<filter id="filter0_d_635_2927" x="23.9531" y="157.364" width="121.829" height="122.004" filterUnits="userSpaceOnUse" color-interpolation-filters="sRGB">
<feFlood flood-opacity="0" result="BackgroundImageFix"/>
<feColorMatrix in="SourceAlpha" type="matrix" values="0 0 0 0 0 0 0 0 0 0 0 0 0 0 0 0 0 0 127 0" result="hardAlpha"/>
<feOffset dy="10"/>
<feGaussianBlur stdDeviation="13"/>
<feComposite in2="hardAlpha" operator="out"/>
<feColorMatrix type="matrix" values="0 0 0 0 0 0 0 0 0 0.501961 0 0 0 0 0.501961 0 0 0 0.2 0"/>
<feBlend mode="normal" in2="BackgroundImageFix" result="effect1_dropShadow_635_2927"/>
<feBlend mode="normal" in="SourceGraphic" in2="effect1_dropShadow_635_2927" result="shape"/>
</filter>
<filter id="filter1_d_635_2927" x="380.027" y="280.703" width="95.8633" height="96.0031" filterUnits="userSpaceOnUse" color-interpolation-filters="sRGB">
<feFlood flood-opacity="0" result="BackgroundImageFix"/>
<feColorMatrix in="SourceAlpha" type="matrix" values="0 0 0 0 0 0 0 0 0 0 0 0 0 0 0 0 0 0 127 0" result="hardAlpha"/>
<feOffset dy="20"/>
<feGaussianBlur stdDeviation="10"/>
<feComposite in2="hardAlpha" operator="out"/>
<feColorMatrix type="matrix" values="0 0 0 0 0.246528 0 0 0 0 0.833333 0 0 0 0 0.370349 0 0 0 0.2 0"/>
<feBlend mode="normal" in2="BackgroundImageFix" result="effect1_dropShadow_635_2927"/>
<feBlend mode="normal" in="SourceGraphic" in2="effect1_dropShadow_635_2927" result="shape"/>
</filter>
<filter id="filter2_d_635_2927" x="17.0801" y="0.183472" width="156.058" height="156.349" filterUnits="userSpaceOnUse" color-interpolation-filters="sRGB">
<feFlood flood-opacity="0" result="BackgroundImageFix"/>
<feColorMatrix in="SourceAlpha" type="matrix" values="0 0 0 0 0 0 0 0 0 0 0 0 0 0 0 0 0 0 127 0" result="hardAlpha"/>
<feOffset dy="10"/>
<feGaussianBlur stdDeviation="10"/>
<feComposite in2="hardAlpha" operator="out"/>
<feColorMatrix type="matrix" values="0 0 0 0 1 0 0 0 0 0.419608 0 0 0 0 0.419608 0 0 0 0.2 0"/>
<feBlend mode="normal" in2="BackgroundImageFix" result="effect1_dropShadow_635_2927"/>
<feBlend mode="normal" in="SourceGraphic" in2="effect1_dropShadow_635_2927" result="shape"/>
</filter>
</defs>
</svg>
