<svg width="601" height="589" viewBox="0 0 601 589" fill="none" xmlns="http://www.w3.org/2000/svg">
<g filter="url(#filter0_f_837_5161)">
<ellipse cx="320.279" cy="294.769" rx="147" ry="144" fill="#8512E0"/>
</g>
<ellipse cx="218.551" cy="260.492" rx="216.829" ry="217.373" stroke="#1E1E1E" stroke-width="3" stroke-linecap="round" stroke-linejoin="round" stroke-dasharray="10 10"/>
<ellipse cx="218.551" cy="260.492" rx="142.439" ry="142.797" stroke="#1E1E1E" stroke-width="3" stroke-linecap="round" stroke-linejoin="round" stroke-dasharray="10 10"/>
<path d="M306.253 239.31L308.685 238.725C308.497 237.908 308.32 237.09 308.072 236.287L305.658 236.938C305.898 237.719 306.072 238.514 306.253 239.31Z" fill="#1E1E1E"/>
<g style="mix-blend-mode:multiply">
<path d="M306.253 239.31L308.685 238.725C308.497 237.908 308.32 237.09 308.072 236.287L305.658 236.938C305.898 237.719 306.072 238.514 306.253 239.31Z" fill="#1E1E1E"/>
</g>
<path d="M297.488 216.688L299.673 215.474L298.422 213.295L296.27 214.568L297.488 216.688Z" fill="#1E1E1E"/>
<g style="mix-blend-mode:multiply">
<path d="M297.488 216.688L299.673 215.474L298.422 213.295L296.27 214.568L297.488 216.688Z" fill="#1E1E1E"/>
</g>
<path d="M302.631 227.705L304.961 226.795L304.041 224.456L301.734 225.429L302.631 227.705Z" fill="#1E1E1E"/>
<g style="mix-blend-mode:multiply">
<path d="M302.631 227.705L304.961 226.795L304.041 224.456L301.734 225.429L302.631 227.705Z" fill="#1E1E1E"/>
</g>
<path d="M298.901 219.382L301.127 218.243C300.743 217.499 300.374 216.748 299.976 216.007L297.779 217.21C298.167 217.928 298.525 218.661 298.898 219.382H298.901Z" fill="#1E1E1E"/>
<g style="mix-blend-mode:multiply">
<path d="M298.901 219.382L301.127 218.243C300.743 217.499 300.374 216.748 299.976 216.007L297.779 217.21C298.167 217.928 298.525 218.661 298.898 219.382H298.901Z" fill="#1E1E1E"/>
</g>
<path d="M300.246 222.11L302.509 221.044C302.18 220.274 301.789 219.53 301.405 218.786L299.172 219.911C299.545 220.637 299.925 221.358 300.242 222.11H300.246Z" fill="#1E1E1E"/>
<g style="mix-blend-mode:multiply">
<path d="M300.246 222.11L302.509 221.044C302.18 220.274 301.789 219.53 301.405 218.786L299.172 219.911C299.545 220.637 299.925 221.358 300.242 222.11H300.246Z" fill="#1E1E1E"/>
</g>
<path d="M305.494 236.364L307.905 235.698L307.218 233.278L304.826 234.011L305.494 236.364Z" fill="#1E1E1E"/>
<g style="mix-blend-mode:multiply">
<path d="M305.494 236.364L307.905 235.698L307.218 233.278L304.826 234.011L305.494 236.364Z" fill="#1E1E1E"/>
</g>
<path d="M304.658 233.441L307.046 232.693L306.241 230.31L303.875 231.121L304.658 233.441Z" fill="#1E1E1E"/>
<g style="mix-blend-mode:multiply">
<path d="M304.658 233.441L307.046 232.693L306.241 230.31L303.875 231.121L304.658 233.441Z" fill="#1E1E1E"/>
</g>
<path d="M303.294 229.4L303.686 230.558L306.044 229.729L305.642 228.538L305.184 227.365L302.848 228.26L303.294 229.4Z" fill="#1E1E1E"/>
<g style="mix-blend-mode:multiply">
<path d="M303.294 229.4L303.686 230.558L306.044 229.729L305.642 228.538L305.184 227.365L302.848 228.26L303.294 229.4Z" fill="#1E1E1E"/>
</g>
<path d="M301.496 224.881L303.796 223.893L302.762 221.603L300.492 222.654L301.496 224.881Z" fill="#1E1E1E"/>
<g style="mix-blend-mode:multiply">
<path d="M301.496 224.881L303.796 223.893L302.762 221.603L300.492 222.654L301.496 224.881Z" fill="#1E1E1E"/>
</g>
<path d="M295.975 214.05L298.12 212.762C297.714 212.029 297.23 211.341 296.787 210.63L294.676 211.977C295.104 212.669 295.576 213.336 295.971 214.05H295.975Z" fill="#1E1E1E"/>
<g style="mix-blend-mode:multiply">
<path d="M295.975 214.05L298.12 212.762C297.714 212.029 297.23 211.341 296.787 210.63L294.676 211.977C295.104 212.669 295.576 213.336 295.971 214.05H295.975Z" fill="#1E1E1E"/>
</g>
<path d="M289.039 204.069L290.991 202.504C290.478 201.841 289.961 201.183 289.4 200.561L287.488 202.178C288.035 202.785 288.537 203.425 289.035 204.069H289.039Z" fill="#1E1E1E"/>
<g style="mix-blend-mode:multiply">
<path d="M289.039 204.069L290.991 202.504C290.478 201.841 289.961 201.183 289.4 200.561L287.488 202.178C288.035 202.785 288.537 203.425 289.035 204.069H289.039Z" fill="#1E1E1E"/>
</g>
<path d="M287.1 201.727L289.001 200.095L287.359 198.193L285.502 199.876L287.1 201.727Z" fill="#1E1E1E"/>
<g style="mix-blend-mode:multiply">
<path d="M287.1 201.727L289.001 200.095L287.359 198.193L285.502 199.876L287.1 201.727Z" fill="#1E1E1E"/>
</g>
<path d="M285.101 199.436L286.947 197.741L285.216 195.92L283.418 197.663L285.101 199.436Z" fill="#1E1E1E"/>
<g style="mix-blend-mode:multiply">
<path d="M285.101 199.436L286.947 197.741L285.216 195.92L283.418 197.663L285.101 199.436Z" fill="#1E1E1E"/>
</g>
<path d="M294.357 211.474L296.458 210.112C295.996 209.413 295.579 208.684 295.077 208.01L293.014 209.428C293.501 210.083 293.903 210.793 294.354 211.47L294.357 211.474Z" fill="#1E1E1E"/>
<g style="mix-blend-mode:multiply">
<path d="M294.357 211.474L296.458 210.112C295.996 209.413 295.579 208.684 295.077 208.01L293.014 209.428C293.501 210.083 293.903 210.793 294.354 211.47L294.357 211.474Z" fill="#1E1E1E"/>
</g>
<path d="M290.91 206.463L292.915 204.965L291.368 202.985L289.404 204.539L290.91 206.463Z" fill="#1E1E1E"/>
<g style="mix-blend-mode:multiply">
<path d="M290.91 206.463L292.915 204.965L291.368 202.985L289.404 204.539L290.91 206.463Z" fill="#1E1E1E"/>
</g>
<path d="M292.672 208.947L294.724 207.514L293.27 205.464L291.258 206.952L292.672 208.947Z" fill="#1E1E1E"/>
<g style="mix-blend-mode:multiply">
<path d="M292.672 208.947L294.724 207.514L293.27 205.464L291.258 206.952L292.672 208.947Z" fill="#1E1E1E"/>
</g>
<path d="M261.003 180.863C264.986 183.024 268.817 185.463 272.464 188.157C276.075 190.902 279.493 193.893 282.689 197.112L284.576 195.247C275.942 186.44 265.525 179.386 254.141 174.664C255.359 175.637 256.518 176.696 257.677 177.691C258.825 178.713 259.914 179.815 261.007 180.859L261.003 180.863Z" fill="#1E1E1E"/>
<g style="mix-blend-mode:multiply">
<path d="M261.003 180.863C264.986 183.024 268.817 185.463 272.464 188.157C276.075 190.902 279.493 193.893 282.689 197.112L284.576 195.247C275.942 186.44 265.525 179.386 254.141 174.664C255.359 175.637 256.518 176.696 257.677 177.691C258.825 178.713 259.914 179.815 261.007 180.859L261.003 180.863Z" fill="#1E1E1E"/>
</g>
<path d="M267.479 336.31L268.837 338.416C269.535 337.953 270.262 337.535 270.934 337.032L269.52 334.963C268.866 335.452 268.158 335.855 267.482 336.307L267.479 336.31Z" fill="#1E1E1E"/>
<g style="mix-blend-mode:multiply">
<path d="M267.479 336.31L268.837 338.416C269.535 337.953 270.262 337.535 270.934 337.032L269.52 334.963C268.866 335.452 268.158 335.855 267.482 336.307L267.479 336.31Z" fill="#1E1E1E"/>
</g>
<path d="M272.477 332.858L273.975 334.867L275.95 333.317L274.4 331.348L272.477 332.858Z" fill="#1E1E1E"/>
<g style="mix-blend-mode:multiply">
<path d="M272.477 332.858L273.975 334.867L275.95 333.317L274.4 331.348L272.477 332.858Z" fill="#1E1E1E"/>
</g>
<path d="M270.002 334.619L271.431 336.68L273.476 335.222L271.992 333.202L270.002 334.619Z" fill="#1E1E1E"/>
<g style="mix-blend-mode:multiply">
<path d="M270.002 334.619L271.431 336.68L273.476 335.222L271.992 333.202L270.002 334.619Z" fill="#1E1E1E"/>
</g>
<path d="M274.867 330.981L276.429 332.939C277.089 332.425 277.746 331.907 278.367 331.344L276.753 329.427C276.148 329.975 275.509 330.478 274.867 330.978V330.981Z" fill="#1E1E1E"/>
<g style="mix-blend-mode:multiply">
<path d="M274.867 330.981L276.429 332.939C277.089 332.425 277.746 331.907 278.367 331.344L276.753 329.427C276.148 329.975 275.509 330.478 274.867 330.978V330.981Z" fill="#1E1E1E"/>
</g>
<path d="M264.908 337.931L266.193 340.081C266.924 339.674 267.61 339.189 268.319 338.745L266.975 336.629C266.285 337.058 265.621 337.532 264.908 337.927V337.931Z" fill="#1E1E1E"/>
<g style="mix-blend-mode:multiply">
<path d="M264.908 337.931L266.193 340.081C266.924 339.674 267.61 339.189 268.319 338.745L266.975 336.629C266.285 337.058 265.621 337.532 264.908 337.927V337.931Z" fill="#1E1E1E"/>
</g>
<path d="M259.594 340.869L260.731 343.101C261.473 342.716 262.226 342.346 262.96 341.946L261.761 339.744C261.044 340.133 260.314 340.492 259.594 340.869Z" fill="#1E1E1E"/>
<g style="mix-blend-mode:multiply">
<path d="M259.594 340.869L260.731 343.101C261.473 342.716 262.226 342.346 262.96 341.946L261.761 339.744C261.044 340.133 260.314 340.492 259.594 340.869Z" fill="#1E1E1E"/>
</g>
<path d="M277.205 329.039L278.833 330.944L280.73 329.298L279.051 327.436L277.205 329.039Z" fill="#1E1E1E"/>
<g style="mix-blend-mode:multiply">
<path d="M277.205 329.039L278.833 330.944L280.73 329.298L279.051 327.436L277.205 329.039Z" fill="#1E1E1E"/>
</g>
<path d="M306.931 242.278L309.382 241.778L308.821 239.325L306.385 239.891L306.931 242.278Z" fill="#1E1E1E"/>
<g style="mix-blend-mode:multiply">
<path d="M306.931 242.278L309.382 241.778L308.821 239.325L306.385 239.891L306.931 242.278Z" fill="#1E1E1E"/>
</g>
<path d="M262.277 339.448L263.492 341.643L265.666 340.388L264.396 338.227L262.277 339.448Z" fill="#1E1E1E"/>
<g style="mix-blend-mode:multiply">
<path d="M262.277 339.448L263.492 341.643L265.666 340.388L264.396 338.227L262.277 339.448Z" fill="#1E1E1E"/>
</g>
<path d="M307.917 248.284L310.398 247.951C310.287 247.118 310.206 246.286 310.04 245.46L307.57 245.86C307.733 246.659 307.81 247.474 307.917 248.28V248.284Z" fill="#1E1E1E"/>
<g style="mix-blend-mode:multiply">
<path d="M307.917 248.284L310.398 247.951C310.287 247.118 310.206 246.286 310.04 245.46L307.57 245.86C307.733 246.659 307.81 247.474 307.917 248.28V248.284Z" fill="#1E1E1E"/>
</g>
<path d="M279.49 327.033L281.181 328.883L282.993 327.148L281.258 325.342L279.49 327.033Z" fill="#1E1E1E"/>
<g style="mix-blend-mode:multiply">
<path d="M279.49 327.033L281.181 328.883L282.993 327.148L281.258 325.342L279.49 327.033Z" fill="#1E1E1E"/>
</g>
<path d="M307.463 245.275L309.933 244.857L309.49 242.382L307.035 242.866L307.463 245.275Z" fill="#1E1E1E"/>
<g style="mix-blend-mode:multiply">
<path d="M307.463 245.275L309.933 244.857L309.49 242.382L307.035 242.866L307.463 245.275Z" fill="#1E1E1E"/>
</g>
<path d="M308.293 251.304L310.781 251.052L310.471 248.558L307.99 248.872L308.293 251.304Z" fill="#1E1E1E"/>
<g style="mix-blend-mode:multiply">
<path d="M308.293 251.304L310.781 251.052L310.471 248.558L307.99 248.872L308.293 251.304Z" fill="#1E1E1E"/>
</g>
<path d="M298.017 302.875C295.862 306.868 293.429 310.71 290.742 314.366C288.003 317.985 285.02 321.412 281.809 324.616L283.669 326.507C292.454 317.852 299.49 307.409 304.2 295.996C303.229 297.217 302.174 298.379 301.181 299.541C300.162 300.692 299.062 301.784 298.021 302.879L298.017 302.875Z" fill="#1E1E1E"/>
<g style="mix-blend-mode:multiply">
<path d="M298.017 302.875C295.862 306.868 293.429 310.71 290.742 314.366C288.003 317.985 285.02 321.412 281.809 324.616L283.669 326.507C292.454 317.852 299.49 307.409 304.2 295.996C303.229 297.217 302.174 298.379 301.181 299.541C300.162 300.692 299.062 301.784 298.021 302.879L298.017 302.875Z" fill="#1E1E1E"/>
</g>
<path d="M308.674 257.376L311.173 257.295C311.147 256.459 311.147 255.619 311.066 254.782L308.57 254.934C308.652 255.748 308.652 256.562 308.674 257.38V257.376Z" fill="#1E1E1E"/>
<g style="mix-blend-mode:multiply">
<path d="M308.674 257.376L311.173 257.295C311.147 256.459 311.147 255.619 311.066 254.782L308.57 254.934C308.652 255.748 308.652 256.562 308.674 257.38V257.376Z" fill="#1E1E1E"/>
</g>
<path d="M308.522 254.338L311.021 254.172L310.83 251.663L308.338 251.896L308.522 254.338Z" fill="#1E1E1E"/>
<g style="mix-blend-mode:multiply">
<path d="M308.522 254.338L311.021 254.172L310.83 251.663L308.338 251.896L308.522 254.338Z" fill="#1E1E1E"/>
</g>
<path d="M311.188 257.906L308.689 257.972L308.752 260.418H308.604C308.582 274.055 305.492 287.677 299.52 299.93C300.557 298.816 301.531 297.646 302.554 296.477C303.543 295.293 304.47 294.061 305.44 292.821C309.272 282.474 311.217 271.446 311.251 260.415L311.188 257.902V257.906Z" fill="#1E1E1E"/>
<g style="mix-blend-mode:multiply">
<path d="M311.188 257.906L308.689 257.972L308.752 260.418H308.604C308.582 274.055 305.492 287.677 299.52 299.93C300.557 298.816 301.531 297.646 302.554 296.477C303.543 295.293 304.47 294.061 305.44 292.821C309.272 282.474 311.217 271.446 311.251 260.415L311.188 257.902V257.906Z" fill="#1E1E1E"/>
</g>
<path d="M256.873 342.216L257.936 344.485C258.704 344.156 259.446 343.763 260.188 343.378L259.066 341.14C258.342 341.513 257.622 341.895 256.873 342.213V342.216Z" fill="#1E1E1E"/>
<g style="mix-blend-mode:multiply">
<path d="M256.873 342.216L257.936 344.485C258.704 344.156 259.446 343.763 260.188 343.378L259.066 341.14C258.342 341.513 257.622 341.895 256.873 342.213V342.216Z" fill="#1E1E1E"/>
</g>
<path d="M194.663 173.365L193.998 170.949L191.584 171.637L192.315 174.035L194.663 173.365Z" fill="#1E1E1E"/>
<g style="mix-blend-mode:multiply">
<path d="M194.663 173.365L193.998 170.949L191.584 171.637L192.315 174.035L194.663 173.365Z" fill="#1E1E1E"/>
</g>
<path d="M187.712 175.571L188.867 175.179L188.041 172.81L186.852 173.214L185.686 173.676L186.575 176.019L187.712 175.571Z" fill="#1E1E1E"/>
<g style="mix-blend-mode:multiply">
<path d="M187.712 175.571L188.867 175.179L188.041 172.81L186.852 173.214L185.686 173.676L186.575 176.019L187.712 175.571Z" fill="#1E1E1E"/>
</g>
<path d="M197.6 172.607L197.017 170.168C196.201 170.357 195.385 170.534 194.584 170.782L195.234 173.202C196.013 172.962 196.806 172.788 197.6 172.607Z" fill="#1E1E1E"/>
<g style="mix-blend-mode:multiply">
<path d="M197.6 172.607L197.017 170.168C196.201 170.357 195.385 170.534 194.584 170.782L195.234 173.202C196.013 172.962 196.806 172.788 197.6 172.607Z" fill="#1E1E1E"/>
</g>
<path d="M191.742 174.202L190.996 171.811L188.619 172.614L189.431 174.986L191.742 174.202Z" fill="#1E1E1E"/>
<g style="mix-blend-mode:multiply">
<path d="M191.742 174.202L190.996 171.811L188.619 172.614L189.431 174.986L191.742 174.202Z" fill="#1E1E1E"/>
</g>
<path d="M175.035 181.392L173.821 179.201L171.646 180.452L172.916 182.613L175.035 181.392Z" fill="#1E1E1E"/>
<g style="mix-blend-mode:multiply">
<path d="M175.035 181.392L173.821 179.201L171.646 180.452L172.916 182.613L175.035 181.392Z" fill="#1E1E1E"/>
</g>
<path d="M172.403 182.909L171.118 180.759C170.388 181.166 169.701 181.651 168.992 182.095L170.336 184.212C171.026 183.782 171.691 183.309 172.403 182.913V182.909Z" fill="#1E1E1E"/>
<g style="mix-blend-mode:multiply">
<path d="M172.403 182.909L171.118 180.759C170.388 181.166 169.701 181.651 168.992 182.095L170.336 184.212C171.026 183.782 171.691 183.309 172.403 182.913V182.909Z" fill="#1E1E1E"/>
</g>
<path d="M186.02 176.237L185.116 173.898L182.779 174.823L183.75 177.132L186.02 176.237Z" fill="#1E1E1E"/>
<g style="mix-blend-mode:multiply">
<path d="M186.02 176.237L185.116 173.898L182.779 174.823L183.75 177.132L186.02 176.237Z" fill="#1E1E1E"/>
</g>
<path d="M169.834 184.53L168.476 182.424C167.778 182.887 167.051 183.305 166.379 183.808L167.793 185.877C168.446 185.389 169.155 184.985 169.83 184.534L169.834 184.53Z" fill="#1E1E1E"/>
<g style="mix-blend-mode:multiply">
<path d="M169.834 184.53L168.476 182.424C167.778 182.887 167.051 183.305 166.379 183.808L167.793 185.877C168.446 185.389 169.155 184.985 169.83 184.534L169.834 184.53Z" fill="#1E1E1E"/>
</g>
<path d="M167.309 186.221L165.881 184.164L163.836 185.618L165.32 187.639L167.309 186.221Z" fill="#1E1E1E"/>
<g style="mix-blend-mode:multiply">
<path d="M167.309 186.221L165.881 184.164L163.836 185.618L165.32 187.639L167.309 186.221Z" fill="#1E1E1E"/>
</g>
<path d="M183.204 177.373L182.222 175.068L179.934 176.104L180.982 178.38L183.204 177.373Z" fill="#1E1E1E"/>
<g style="mix-blend-mode:multiply">
<path d="M183.204 177.373L182.222 175.068L179.934 176.104L180.982 178.38L183.204 177.373Z" fill="#1E1E1E"/>
</g>
<path d="M180.44 178.624L179.377 176.355C178.609 176.685 177.867 177.077 177.125 177.462L178.247 179.701C178.971 179.327 179.69 178.946 180.44 178.628V178.624Z" fill="#1E1E1E"/>
<g style="mix-blend-mode:multiply">
<path d="M180.44 178.624L179.377 176.355C178.609 176.685 177.867 177.077 177.125 177.462L178.247 179.701C178.971 179.327 179.69 178.946 180.44 178.628V178.624Z" fill="#1E1E1E"/>
</g>
<path d="M177.72 179.971L176.583 177.739C175.841 178.124 175.092 178.494 174.354 178.894L175.553 181.096C176.269 180.707 177 180.348 177.72 179.975V179.971Z" fill="#1E1E1E"/>
<g style="mix-blend-mode:multiply">
<path d="M177.72 179.971L176.583 177.739C175.841 178.124 175.092 178.494 174.354 178.894L175.553 181.096C176.269 180.707 177 180.348 177.72 179.975V179.971Z" fill="#1E1E1E"/>
</g>
<path d="M227.752 350.284L228.003 352.778L230.491 352.467L230.173 349.98L227.752 350.284Z" fill="#1E1E1E"/>
<g style="mix-blend-mode:multiply">
<path d="M227.752 350.284L228.003 352.778L230.491 352.467L230.173 349.98L227.752 350.284Z" fill="#1E1E1E"/>
</g>
<path d="M164.837 187.986L163.338 185.977L161.363 187.524L162.914 189.493L164.837 187.986Z" fill="#1E1E1E"/>
<g style="mix-blend-mode:multiply">
<path d="M164.837 187.986L163.338 185.977L161.363 187.524L162.914 189.493L164.837 187.986Z" fill="#1E1E1E"/>
</g>
<path d="M224.725 350.513L224.891 353.015L227.393 352.826L227.157 350.328L224.725 350.513Z" fill="#1E1E1E"/>
<g style="mix-blend-mode:multiply">
<path d="M224.725 350.513L224.891 353.015L227.393 352.826L227.157 350.328L224.725 350.513Z" fill="#1E1E1E"/>
</g>
<path d="M221.695 350.665L221.776 353.17C222.611 353.144 223.448 353.144 224.283 353.063L224.131 350.561C223.319 350.643 222.507 350.643 221.691 350.665H221.695Z" fill="#1E1E1E"/>
<g style="mix-blend-mode:multiply">
<path d="M221.695 350.665L221.776 353.17C222.611 353.144 223.448 353.144 224.283 353.063L224.131 350.561C223.319 350.643 222.507 350.643 221.691 350.665H221.695Z" fill="#1E1E1E"/>
</g>
<path d="M230.764 349.906L231.096 352.393C231.926 352.282 232.757 352.201 233.58 352.034L233.181 349.558C232.384 349.721 231.572 349.799 230.767 349.906H230.764Z" fill="#1E1E1E"/>
<g style="mix-blend-mode:multiply">
<path d="M230.764 349.906L231.096 352.393C231.926 352.282 232.757 352.201 233.58 352.034L233.181 349.558C232.384 349.721 231.572 349.799 230.767 349.906H230.764Z" fill="#1E1E1E"/>
</g>
<path d="M233.766 349.451L234.183 351.923L236.652 351.483L236.169 349.022L233.766 349.451Z" fill="#1E1E1E"/>
<g style="mix-blend-mode:multiply">
<path d="M233.766 349.451L234.183 351.923L236.652 351.483L236.169 349.022L233.766 349.451Z" fill="#1E1E1E"/>
</g>
<path d="M236.754 348.918L237.252 351.372L239.7 350.813L239.131 348.371L236.754 348.918Z" fill="#1E1E1E"/>
<g style="mix-blend-mode:multiply">
<path d="M236.754 348.918L237.252 351.372L239.7 350.813L239.131 348.371L236.754 348.918Z" fill="#1E1E1E"/>
</g>
<path d="M209.561 170.56L209.31 168.062L206.822 168.373L207.14 170.86L209.561 170.56Z" fill="#1E1E1E"/>
<g style="mix-blend-mode:multiply">
<path d="M209.561 170.56L209.31 168.062L206.822 168.373L207.14 170.86L209.561 170.56Z" fill="#1E1E1E"/>
</g>
<path d="M215.623 170.179L215.542 167.674C214.707 167.7 213.869 167.7 213.035 167.781L213.187 170.283C213.999 170.201 214.811 170.201 215.626 170.179H215.623Z" fill="#1E1E1E"/>
<g style="mix-blend-mode:multiply">
<path d="M215.623 170.179L215.542 167.674C214.707 167.7 213.869 167.7 213.035 167.781L213.187 170.283C213.999 170.201 214.811 170.201 215.626 170.179H215.623Z" fill="#1E1E1E"/>
</g>
<path d="M254.107 343.471L255.093 345.777L257.378 344.74L256.33 342.461L254.107 343.471Z" fill="#1E1E1E"/>
<g style="mix-blend-mode:multiply">
<path d="M254.107 343.471L255.093 345.777L257.378 344.74L256.33 342.461L254.107 343.471Z" fill="#1E1E1E"/>
</g>
<path d="M218.657 170.101V170.249C232.259 170.272 245.847 173.369 258.069 179.357C256.958 178.317 255.792 177.34 254.629 176.315C253.448 175.323 252.219 174.394 250.982 173.421C240.661 169.58 229.661 167.629 218.657 167.596L216.15 167.659L216.217 170.164L218.657 170.101Z" fill="#1E1E1E"/>
<g style="mix-blend-mode:multiply">
<path d="M218.657 170.101V170.249C232.259 170.272 245.847 173.369 258.069 179.357C256.958 178.317 255.792 177.34 254.629 176.315C253.448 175.323 252.219 174.394 250.982 173.421C240.661 169.58 229.661 167.629 218.657 167.596L216.15 167.659L216.217 170.164L218.657 170.101Z" fill="#1E1E1E"/>
</g>
<path d="M212.587 170.327L212.421 167.825L209.922 168.018L210.154 170.512L212.587 170.327Z" fill="#1E1E1E"/>
<g style="mix-blend-mode:multiply">
<path d="M212.587 170.327L212.421 167.825L209.922 168.018L210.154 170.512L212.587 170.327Z" fill="#1E1E1E"/>
</g>
<path d="M203.547 171.389L203.13 168.917L200.66 169.361L201.144 171.822L203.547 171.389Z" fill="#1E1E1E"/>
<g style="mix-blend-mode:multiply">
<path d="M203.547 171.389L203.13 168.917L200.66 169.361L201.144 171.822L203.547 171.389Z" fill="#1E1E1E"/>
</g>
<path d="M206.549 170.938L206.217 168.451C205.386 168.562 204.556 168.643 203.732 168.81L204.131 171.286C204.928 171.123 205.741 171.045 206.545 170.938H206.549Z" fill="#1E1E1E"/>
<g style="mix-blend-mode:multiply">
<path d="M206.549 170.938L206.217 168.451C205.386 168.562 204.556 168.643 203.732 168.81L204.131 171.286C204.928 171.123 205.741 171.045 206.545 170.938H206.549Z" fill="#1E1E1E"/>
</g>
<path d="M200.557 171.926L200.059 169.469L197.611 170.031L198.18 172.473L200.557 171.926Z" fill="#1E1E1E"/>
<g style="mix-blend-mode:multiply">
<path d="M200.557 171.926L200.059 169.469L197.611 170.031L198.18 172.473L200.557 171.926Z" fill="#1E1E1E"/>
</g>
<path d="M144.64 311.897L142.588 313.326L144.042 315.376L146.058 313.892L144.64 311.897Z" fill="#1E1E1E"/>
<g style="mix-blend-mode:multiply">
<path d="M144.64 311.897L142.588 313.326L144.042 315.376L146.058 313.892L144.64 311.897Z" fill="#1E1E1E"/>
</g>
<path d="M146.403 314.377L144.398 315.876L145.945 317.859L147.909 316.305L146.403 314.377Z" fill="#1E1E1E"/>
<g style="mix-blend-mode:multiply">
<path d="M146.403 314.377L144.398 315.876L145.945 317.859L147.909 316.305L146.403 314.377Z" fill="#1E1E1E"/>
</g>
<path d="M142.958 309.366L140.857 310.728C141.319 311.427 141.736 312.156 142.238 312.83L144.301 311.413C143.814 310.758 143.412 310.047 142.961 309.37L142.958 309.366Z" fill="#1E1E1E"/>
<g style="mix-blend-mode:multiply">
<path d="M142.958 309.366L140.857 310.728C141.319 311.427 141.736 312.156 142.238 312.83L144.301 311.413C143.814 310.758 143.412 310.047 142.961 309.37L142.958 309.366Z" fill="#1E1E1E"/>
</g>
<path d="M148.273 316.775L146.32 318.34C146.833 319.003 147.35 319.661 147.911 320.287L149.823 318.67C149.277 318.063 148.775 317.422 148.277 316.779L148.273 316.775Z" fill="#1E1E1E"/>
<g style="mix-blend-mode:multiply">
<path d="M148.273 316.775L146.32 318.34C146.833 319.003 147.35 319.661 147.911 320.287L149.823 318.67C149.277 318.063 148.775 317.422 148.277 316.779L148.273 316.775Z" fill="#1E1E1E"/>
</g>
<path d="M150.212 319.117L148.311 320.746L149.953 322.648L151.81 320.968L150.212 319.117Z" fill="#1E1E1E"/>
<g style="mix-blend-mode:multiply">
<path d="M150.212 319.117L148.311 320.746L149.953 322.648L151.81 320.968L150.212 319.117Z" fill="#1E1E1E"/>
</g>
<path d="M138.409 301.462L136.184 302.602C136.567 303.345 136.937 304.097 137.335 304.837L139.532 303.634C139.144 302.916 138.786 302.183 138.409 301.462Z" fill="#1E1E1E"/>
<g style="mix-blend-mode:multiply">
<path d="M138.409 301.462L136.184 302.602C136.567 303.345 136.937 304.097 137.335 304.837L139.532 303.634C139.144 302.916 138.786 302.183 138.409 301.462Z" fill="#1E1E1E"/>
</g>
<path d="M137.066 298.734L134.803 299.8C135.131 300.57 135.523 301.314 135.906 302.058L138.14 300.933C137.767 300.207 137.387 299.486 137.069 298.734H137.066Z" fill="#1E1E1E"/>
<g style="mix-blend-mode:multiply">
<path d="M137.066 298.734L134.803 299.8C135.131 300.57 135.523 301.314 135.906 302.058L138.14 300.933C137.767 300.207 137.387 299.486 137.069 298.734H137.066Z" fill="#1E1E1E"/>
</g>
<path d="M141.342 306.791L139.197 308.078C139.603 308.811 140.087 309.499 140.53 310.21L142.641 308.863C142.213 308.171 141.741 307.505 141.346 306.791H141.342Z" fill="#1E1E1E"/>
<g style="mix-blend-mode:multiply">
<path d="M141.342 306.791L139.197 308.078C139.603 308.811 140.087 309.499 140.53 310.21L142.641 308.863C142.213 308.171 141.741 307.505 141.346 306.791H141.342Z" fill="#1E1E1E"/>
</g>
<path d="M139.828 304.152L137.639 305.37L138.89 307.549L141.042 306.273L139.828 304.152Z" fill="#1E1E1E"/>
<g style="mix-blend-mode:multiply">
<path d="M139.828 304.152L137.639 305.37L138.89 307.549L141.042 306.273L139.828 304.152Z" fill="#1E1E1E"/>
</g>
<path d="M245.57 346.639L246.316 349.033L248.693 348.226L247.881 345.854L245.57 346.639Z" fill="#1E1E1E"/>
<g style="mix-blend-mode:multiply">
<path d="M245.57 346.639L246.316 349.033L248.693 348.226L247.881 345.854L245.57 346.639Z" fill="#1E1E1E"/>
</g>
<path d="M249.601 345.273L248.445 345.662L249.272 348.03L250.461 347.627L251.627 347.168L250.738 344.825L249.601 345.273Z" fill="#1E1E1E"/>
<g style="mix-blend-mode:multiply">
<path d="M249.601 345.273L248.445 345.662L249.272 348.03L250.461 347.627L251.627 347.168L250.738 344.825L249.601 345.273Z" fill="#1E1E1E"/>
</g>
<path d="M152.213 321.404L150.367 323.099L152.098 324.92L153.896 323.177L152.213 321.404Z" fill="#1E1E1E"/>
<g style="mix-blend-mode:multiply">
<path d="M152.213 321.404L150.367 323.099L152.098 324.92L153.896 323.177L152.213 321.404Z" fill="#1E1E1E"/>
</g>
<path d="M242.65 347.475L243.319 349.892L245.729 349.207L245.002 346.809L242.65 347.475Z" fill="#1E1E1E"/>
<g style="mix-blend-mode:multiply">
<path d="M242.65 347.475L243.319 349.892L245.729 349.207L245.002 346.809L242.65 347.475Z" fill="#1E1E1E"/>
</g>
<path d="M251.291 344.607L252.195 346.942L254.532 346.021L253.561 343.708L251.291 344.607Z" fill="#1E1E1E"/>
<g style="mix-blend-mode:multiply">
<path d="M251.291 344.607L252.195 346.942L254.532 346.021L253.561 343.708L251.291 344.607Z" fill="#1E1E1E"/>
</g>
<path d="M176.309 339.981C172.326 337.82 168.495 335.382 164.848 332.687C161.237 329.942 157.819 326.948 154.623 323.732L152.736 325.597C161.37 334.405 171.787 341.458 183.171 346.18C181.953 345.207 180.794 344.148 179.635 343.153C178.487 342.131 177.398 341.029 176.306 339.985L176.309 339.981Z" fill="#1E1E1E"/>
<g style="mix-blend-mode:multiply">
<path d="M176.309 339.981C172.326 337.82 168.495 335.382 164.848 332.687C161.237 329.942 157.819 326.948 154.623 323.732L152.736 325.597C161.37 334.405 171.787 341.458 183.171 346.18C181.953 345.207 180.794 344.148 179.635 343.153C178.487 342.131 177.398 341.029 176.306 339.985L176.309 339.981Z" fill="#1E1E1E"/>
</g>
<path d="M239.711 348.234L240.294 350.672C241.11 350.484 241.926 350.306 242.727 350.058L242.077 347.638C241.298 347.878 240.505 348.052 239.711 348.234Z" fill="#1E1E1E"/>
<g style="mix-blend-mode:multiply">
<path d="M239.711 348.234L240.294 350.672C241.11 350.484 241.926 350.306 242.727 350.058L242.077 347.638C241.298 347.878 240.505 348.052 239.711 348.234Z" fill="#1E1E1E"/>
</g>
<path d="M218.657 350.739V350.591C205.054 350.569 191.466 347.471 179.244 341.484C180.355 342.524 181.522 343.501 182.688 344.526C183.869 345.517 185.099 346.446 186.335 347.42C196.656 351.261 207.656 353.211 218.66 353.244L221.167 353.181L221.1 350.676L218.66 350.739H218.657Z" fill="#1E1E1E"/>
<g style="mix-blend-mode:multiply">
<path d="M218.657 350.739V350.591C205.054 350.569 191.466 347.471 179.244 341.484C180.355 342.524 181.522 343.501 182.688 344.526C183.869 345.517 185.099 346.446 186.335 347.42C196.656 351.261 207.656 353.211 218.66 353.244L221.167 353.181L221.1 350.676L218.66 350.739H218.657Z" fill="#1E1E1E"/>
</g>
<path d="M162.444 189.863L160.883 187.905C160.222 188.419 159.565 188.937 158.941 189.5L160.555 191.417C161.16 190.869 161.799 190.366 162.441 189.866L162.444 189.863Z" fill="#1E1E1E"/>
<g style="mix-blend-mode:multiply">
<path d="M162.444 189.863L160.883 187.905C160.222 188.419 159.565 188.937 158.941 189.5L160.555 191.417C161.16 190.869 161.799 190.366 162.441 189.866L162.444 189.863Z" fill="#1E1E1E"/>
</g>
<path d="M128.79 266.506L126.295 266.672L126.483 269.178L128.975 268.945L128.79 266.506Z" fill="#1E1E1E"/>
<g style="mix-blend-mode:multiply">
<path d="M128.79 266.506L126.295 266.672L126.483 269.178L128.975 268.945L128.79 266.506Z" fill="#1E1E1E"/>
</g>
<path d="M128.64 263.464L126.141 263.549C126.166 264.385 126.166 265.225 126.248 266.062L128.743 265.91C128.662 265.096 128.662 264.282 128.64 263.464Z" fill="#1E1E1E"/>
<g style="mix-blend-mode:multiply">
<path d="M128.64 263.464L126.141 263.549C126.166 264.385 126.166 265.225 126.248 266.062L128.743 265.91C128.662 265.096 128.662 264.282 128.64 263.464Z" fill="#1E1E1E"/>
</g>
<path d="M129.019 269.54L126.531 269.788L126.841 272.286L129.322 271.968L129.019 269.54Z" fill="#1E1E1E"/>
<g style="mix-blend-mode:multiply">
<path d="M129.019 269.54L126.531 269.788L126.841 272.286L129.322 271.968L129.019 269.54Z" fill="#1E1E1E"/>
</g>
<path d="M129.397 272.56L126.916 272.893C127.027 273.726 127.108 274.558 127.274 275.384L129.744 274.984C129.581 274.185 129.504 273.37 129.397 272.564V272.56Z" fill="#1E1E1E"/>
<g style="mix-blend-mode:multiply">
<path d="M129.397 272.56L126.916 272.893C127.027 273.726 127.108 274.558 127.274 275.384L129.744 274.984C129.581 274.185 129.504 273.37 129.397 272.564V272.56Z" fill="#1E1E1E"/>
</g>
<path d="M128.562 260.422H128.709C128.731 246.785 131.821 233.163 137.794 220.911C136.756 222.025 135.782 223.194 134.759 224.36C133.77 225.544 132.843 226.776 131.873 228.016C128.041 238.363 126.096 249.391 126.062 260.422L126.125 262.935L128.624 262.868L128.562 260.422Z" fill="#1E1E1E"/>
<g style="mix-blend-mode:multiply">
<path d="M128.562 260.422H128.709C128.731 246.785 131.821 233.163 137.794 220.911C136.756 222.025 135.782 223.194 134.759 224.36C133.77 225.544 132.843 226.776 131.873 228.016C128.041 238.363 126.096 249.391 126.062 260.422L126.125 262.935L128.624 262.868L128.562 260.422Z" fill="#1E1E1E"/>
</g>
<path d="M139.296 217.969C141.452 213.976 143.885 210.134 146.572 206.478C149.311 202.859 152.293 199.432 155.505 196.228L153.645 194.337C144.859 202.992 137.823 213.435 133.113 224.848C134.084 223.627 135.14 222.465 136.133 221.303C137.152 220.148 138.252 219.06 139.293 217.965L139.296 217.969Z" fill="#1E1E1E"/>
<g style="mix-blend-mode:multiply">
<path d="M139.296 217.969C141.452 213.976 143.885 210.134 146.572 206.478C149.311 202.859 152.293 199.432 155.505 196.228L153.645 194.337C144.859 202.992 137.823 213.435 133.113 224.848C134.084 223.627 135.14 222.465 136.133 221.303C137.152 220.148 138.252 219.06 139.293 217.965L139.296 217.969Z" fill="#1E1E1E"/>
</g>
<path d="M160.107 191.805L158.48 189.9L156.586 191.546L158.262 193.404L160.107 191.805Z" fill="#1E1E1E"/>
<g style="mix-blend-mode:multiply">
<path d="M160.107 191.805L158.48 189.9L156.586 191.546L158.262 193.404L160.107 191.805Z" fill="#1E1E1E"/>
</g>
<path d="M157.823 193.807L156.136 191.961L154.32 193.696L156.059 195.499L157.823 193.807Z" fill="#1E1E1E"/>
<g style="mix-blend-mode:multiply">
<path d="M157.823 193.807L156.136 191.961L154.32 193.696L156.059 195.499L157.823 193.807Z" fill="#1E1E1E"/>
</g>
<path d="M134.683 293.135L132.354 294.046L133.273 296.384L135.58 295.415L134.683 293.135Z" fill="#1E1E1E"/>
<g style="mix-blend-mode:multiply">
<path d="M134.683 293.135L132.354 294.046L133.273 296.384L135.58 295.415L134.683 293.135Z" fill="#1E1E1E"/>
</g>
<path d="M134.018 291.444L133.626 290.286L131.268 291.115L131.67 292.306L132.128 293.476L134.464 292.58L134.018 291.444Z" fill="#1E1E1E"/>
<g style="mix-blend-mode:multiply">
<path d="M134.018 291.444L133.626 290.286L131.268 291.115L131.67 292.306L132.128 293.476L134.464 292.58L134.018 291.444Z" fill="#1E1E1E"/>
</g>
<path d="M135.815 295.959L133.516 296.947L134.549 299.241L136.819 298.19L135.815 295.959Z" fill="#1E1E1E"/>
<g style="mix-blend-mode:multiply">
<path d="M135.815 295.959L133.516 296.947L134.549 299.241L136.819 298.19L135.815 295.959Z" fill="#1E1E1E"/>
</g>
<path d="M132.656 287.403L130.268 288.151L131.072 290.534L133.438 289.72L132.656 287.403Z" fill="#1E1E1E"/>
<g style="mix-blend-mode:multiply">
<path d="M132.656 287.403L130.268 288.151L131.072 290.534L133.438 289.72L132.656 287.403Z" fill="#1E1E1E"/>
</g>
<path d="M130.381 278.562L127.93 279.066L128.491 281.515L130.927 280.949L130.381 278.562Z" fill="#1E1E1E"/>
<g style="mix-blend-mode:multiply">
<path d="M130.381 278.562L127.93 279.066L128.491 281.515L130.927 280.949L130.381 278.562Z" fill="#1E1E1E"/>
</g>
<path d="M129.851 275.569L127.385 275.987L127.824 278.462L130.279 277.978L129.851 275.569Z" fill="#1E1E1E"/>
<g style="mix-blend-mode:multiply">
<path d="M129.851 275.569L127.385 275.987L127.824 278.462L130.279 277.978L129.851 275.569Z" fill="#1E1E1E"/>
</g>
<path d="M131.817 284.476L129.406 285.142L130.093 287.562L132.485 286.83L131.817 284.476Z" fill="#1E1E1E"/>
<g style="mix-blend-mode:multiply">
<path d="M131.817 284.476L129.406 285.142L130.093 287.562L132.485 286.83L131.817 284.476Z" fill="#1E1E1E"/>
</g>
<path d="M131.061 281.53L128.629 282.115C128.817 282.933 128.994 283.751 129.242 284.554L131.656 283.902C131.416 283.122 131.242 282.326 131.061 281.53Z" fill="#1E1E1E"/>
<g style="mix-blend-mode:multiply">
<path d="M131.061 281.53L128.629 282.115C128.817 282.933 128.994 283.751 129.242 284.554L131.656 283.902C131.416 283.122 131.242 282.326 131.061 281.53Z" fill="#1E1E1E"/>
</g>
<path d="M213.582 187.627L214.058 194.496" stroke="#1E1E1E" stroke-width="2" stroke-miterlimit="10"/>
<path d="M208.529 188.16L209.485 194.977" stroke="#1E1E1E" stroke-width="2" stroke-miterlimit="10"/>
<path d="M203.523 189.045L204.952 195.78" stroke="#1E1E1E" stroke-width="2" stroke-miterlimit="10"/>
<path d="M198.596 190.277L200.489 196.894" stroke="#1E1E1E" stroke-width="2" stroke-miterlimit="10"/>
<path d="M193.764 191.85L196.111 198.318" stroke="#1E1E1E" stroke-width="2" stroke-miterlimit="10"/>
<path d="M189.053 193.759L191.843 200.047" stroke="#1E1E1E" stroke-width="2" stroke-miterlimit="10"/>
<path d="M184.486 195.991L187.709 202.071" stroke="#1E1E1E" stroke-width="2" stroke-miterlimit="10"/>
<path d="M180.086 198.537L183.726 204.376" stroke="#1E1E1E" stroke-width="2" stroke-miterlimit="10"/>
<path d="M175.875 201.386L179.91 206.956" stroke="#1E1E1E" stroke-width="2" stroke-miterlimit="10"/>
<path d="M171.869 204.521L176.284 209.794" stroke="#1E1E1E" stroke-width="2" stroke-miterlimit="10"/>
<path d="M168.094 207.929L172.867 212.884" stroke="#1E1E1E" stroke-width="2" stroke-miterlimit="10"/>
<path d="M164.564 211.592L169.67 216.2" stroke="#1E1E1E" stroke-width="2" stroke-miterlimit="10"/>
<path d="M161.301 215.497L166.712 219.734" stroke="#1E1E1E" stroke-width="2" stroke-miterlimit="10"/>
<path d="M158.314 219.615L164.006 223.464" stroke="#1E1E1E" stroke-width="2" stroke-miterlimit="10"/>
<path d="M155.621 223.934L161.568 227.379" stroke="#1E1E1E" stroke-width="2" stroke-miterlimit="10"/>
<path d="M153.236 228.434L159.408 231.45" stroke="#1E1E1E" stroke-width="2" stroke-miterlimit="10"/>
<path d="M151.168 233.086L157.536 235.665" stroke="#1E1E1E" stroke-width="2" stroke-miterlimit="10"/>
<path d="M149.434 237.87L155.964 239.998" stroke="#1E1E1E" stroke-width="2" stroke-miterlimit="10"/>
<path d="M148.031 242.766L154.694 244.432" stroke="#1E1E1E" stroke-width="2" stroke-miterlimit="10"/>
<path d="M146.975 247.751L153.737 248.946" stroke="#1E1E1E" stroke-width="2" stroke-miterlimit="10"/>
<path d="M146.27 252.795L153.099 253.513" stroke="#1E1E1E" stroke-width="2" stroke-miterlimit="10"/>
<path d="M145.916 257.872L152.778 258.113" stroke="#1E1E1E" stroke-width="2" stroke-miterlimit="10"/>
<path d="M145.916 262.968L152.778 262.727" stroke="#1E1E1E" stroke-width="2" stroke-miterlimit="10"/>
<path d="M146.27 268.049L153.099 267.327" stroke="#1E1E1E" stroke-width="2" stroke-miterlimit="10"/>
<path d="M146.975 273.093L153.737 271.898" stroke="#1E1E1E" stroke-width="2" stroke-miterlimit="10"/>
<path d="M148.031 278.074L154.694 276.409" stroke="#1E1E1E" stroke-width="2" stroke-miterlimit="10"/>
<path d="M149.434 282.97L155.964 280.842" stroke="#1E1E1E" stroke-width="2" stroke-miterlimit="10"/>
<path d="M151.168 287.755L157.536 285.175" stroke="#1E1E1E" stroke-width="2" stroke-miterlimit="10"/>
<path d="M153.236 292.41L159.408 289.39" stroke="#1E1E1E" stroke-width="2" stroke-miterlimit="10"/>
<path d="M155.621 296.906L161.568 293.465" stroke="#1E1E1E" stroke-width="2" stroke-miterlimit="10"/>
<path d="M158.314 301.225L164.006 297.376" stroke="#1E1E1E" stroke-width="2" stroke-miterlimit="10"/>
<path d="M161.301 305.347L166.712 301.106" stroke="#1E1E1E" stroke-width="2" stroke-miterlimit="10"/>
<path d="M164.564 309.248L169.67 304.641" stroke="#1E1E1E" stroke-width="2" stroke-miterlimit="10"/>
<path d="M168.094 312.911L172.867 307.96" stroke="#1E1E1E" stroke-width="2" stroke-miterlimit="10"/>
<path d="M171.869 316.32L176.284 311.046" stroke="#1E1E1E" stroke-width="2" stroke-miterlimit="10"/>
<path d="M175.875 319.454L179.91 313.885" stroke="#1E1E1E" stroke-width="2" stroke-miterlimit="10"/>
<path d="M180.086 322.303L183.726 316.464" stroke="#1E1E1E" stroke-width="2" stroke-miterlimit="10"/>
<path d="M184.486 324.85L187.709 318.773" stroke="#1E1E1E" stroke-width="2" stroke-miterlimit="10"/>
<path d="M189.053 327.081L191.843 320.794" stroke="#1E1E1E" stroke-width="2" stroke-miterlimit="10"/>
<path d="M193.764 328.99L196.111 322.522" stroke="#1E1E1E" stroke-width="2" stroke-miterlimit="10"/>
<path d="M198.596 330.563L200.489 323.947" stroke="#1E1E1E" stroke-width="2" stroke-miterlimit="10"/>
<path d="M203.523 331.796L204.952 325.064" stroke="#1E1E1E" stroke-width="2" stroke-miterlimit="10"/>
<path d="M208.529 332.68L209.485 325.864" stroke="#1E1E1E" stroke-width="2" stroke-miterlimit="10"/>
<path d="M213.582 333.213L214.058 326.345" stroke="#1E1E1E" stroke-width="2" stroke-miterlimit="10"/>
<path d="M218.658 333.391V326.507" stroke="#1E1E1E" stroke-width="2" stroke-miterlimit="10"/>
<path d="M223.738 333.213L223.258 326.345" stroke="#1E1E1E" stroke-width="2" stroke-miterlimit="10"/>
<path d="M228.786 332.68L227.83 325.864" stroke="#1E1E1E" stroke-width="2" stroke-miterlimit="10"/>
<path d="M233.792 331.796L232.363 325.064" stroke="#1E1E1E" stroke-width="2" stroke-miterlimit="10"/>
<path d="M238.72 330.563L236.826 323.947" stroke="#1E1E1E" stroke-width="2" stroke-miterlimit="10"/>
<path d="M243.553 328.99L241.205 322.522" stroke="#1E1E1E" stroke-width="2" stroke-miterlimit="10"/>
<path d="M248.261 327.081L245.471 320.794" stroke="#1E1E1E" stroke-width="2" stroke-miterlimit="10"/>
<path d="M252.828 324.85L249.605 318.773" stroke="#1E1E1E" stroke-width="2" stroke-miterlimit="10"/>
<path d="M257.228 322.303L253.588 316.464" stroke="#1E1E1E" stroke-width="2" stroke-miterlimit="10"/>
<path d="M261.441 319.454L257.406 313.885" stroke="#1E1E1E" stroke-width="2" stroke-miterlimit="10"/>
<path d="M265.446 316.32L261.031 311.046" stroke="#1E1E1E" stroke-width="2" stroke-miterlimit="10"/>
<path d="M218.658 187.45V194.333" stroke="#1E1E1E" stroke-width="2" stroke-miterlimit="10"/>
<path d="M269.222 312.911L264.449 307.96" stroke="#1E1E1E" stroke-width="2" stroke-miterlimit="10"/>
<path d="M272.752 309.248L267.646 304.641" stroke="#1E1E1E" stroke-width="2" stroke-miterlimit="10"/>
<path d="M276.013 305.347L270.605 301.106" stroke="#1E1E1E" stroke-width="2" stroke-miterlimit="10"/>
<path d="M279.001 301.225L273.309 297.376" stroke="#1E1E1E" stroke-width="2" stroke-miterlimit="10"/>
<path d="M281.695 296.906L275.748 293.465" stroke="#1E1E1E" stroke-width="2" stroke-miterlimit="10"/>
<path d="M284.08 292.41L277.908 289.39" stroke="#1E1E1E" stroke-width="2" stroke-miterlimit="10"/>
<path d="M286.147 287.755L279.779 285.175" stroke="#1E1E1E" stroke-width="2" stroke-miterlimit="10"/>
<path d="M287.882 282.97L281.352 280.842" stroke="#1E1E1E" stroke-width="2" stroke-miterlimit="10"/>
<path d="M289.284 278.074L282.621 276.409" stroke="#1E1E1E" stroke-width="2" stroke-miterlimit="10"/>
<path d="M290.341 273.093L283.578 271.898" stroke="#1E1E1E" stroke-width="2" stroke-miterlimit="10"/>
<path d="M291.049 268.049L284.217 267.327" stroke="#1E1E1E" stroke-width="2" stroke-miterlimit="10"/>
<path d="M291.403 262.968L284.537 262.727" stroke="#1E1E1E" stroke-width="2" stroke-miterlimit="10"/>
<path d="M291.403 257.872L284.537 258.113" stroke="#1E1E1E" stroke-width="2" stroke-miterlimit="10"/>
<path d="M291.049 252.795L284.217 253.513" stroke="#1E1E1E" stroke-width="2" stroke-miterlimit="10"/>
<path d="M290.341 247.751L283.578 248.946" stroke="#1E1E1E" stroke-width="2" stroke-miterlimit="10"/>
<path d="M289.284 242.766L282.621 244.432" stroke="#1E1E1E" stroke-width="2" stroke-miterlimit="10"/>
<path d="M287.882 237.87L281.352 239.998" stroke="#1E1E1E" stroke-width="2" stroke-miterlimit="10"/>
<path d="M286.147 233.086L279.779 235.665" stroke="#1E1E1E" stroke-width="2" stroke-miterlimit="10"/>
<path d="M284.08 228.434L277.908 231.45" stroke="#1E1E1E" stroke-width="2" stroke-miterlimit="10"/>
<path d="M281.695 223.934L275.748 227.379" stroke="#1E1E1E" stroke-width="2" stroke-miterlimit="10"/>
<path d="M279.001 219.615L273.309 223.464" stroke="#1E1E1E" stroke-width="2" stroke-miterlimit="10"/>
<path d="M276.013 215.497L270.605 219.734" stroke="#1E1E1E" stroke-width="2" stroke-miterlimit="10"/>
<path d="M272.752 211.593L267.646 216.2" stroke="#1E1E1E" stroke-width="2" stroke-miterlimit="10"/>
<path d="M269.222 207.929L264.449 212.884" stroke="#1E1E1E" stroke-width="2" stroke-miterlimit="10"/>
<path d="M265.446 204.521L261.031 209.794" stroke="#1E1E1E" stroke-width="2" stroke-miterlimit="10"/>
<path d="M261.441 201.386L257.406 206.956" stroke="#1E1E1E" stroke-width="2" stroke-miterlimit="10"/>
<path d="M257.23 198.537L253.59 204.376" stroke="#1E1E1E" stroke-width="2" stroke-miterlimit="10"/>
<path d="M252.828 195.991L249.605 202.071" stroke="#1E1E1E" stroke-width="2" stroke-miterlimit="10"/>
<path d="M248.263 193.759L245.473 200.047" stroke="#1E1E1E" stroke-width="2" stroke-miterlimit="10"/>
<path d="M243.553 191.85L241.205 198.318" stroke="#1E1E1E" stroke-width="2" stroke-miterlimit="10"/>
<path d="M238.72 190.277L236.826 196.894" stroke="#1E1E1E" stroke-width="2" stroke-miterlimit="10"/>
<path d="M233.792 189.045L232.363 195.78" stroke="#1E1E1E" stroke-width="2" stroke-miterlimit="10"/>
<path d="M228.788 188.16L227.832 194.977" stroke="#1E1E1E" stroke-width="2" stroke-miterlimit="10"/>
<path d="M223.738 187.627L223.258 194.496" stroke="#1E1E1E" stroke-width="2" stroke-miterlimit="10"/>
<path d="M96.9941 161.797V138.961V138.45H119.773" stroke="#1E1E1E" stroke-width="3" stroke-miterlimit="10"/>
<path d="M317.031 138.45H339.811H340.32V161.287" stroke="#1E1E1E" stroke-width="3" stroke-miterlimit="10"/>
<path d="M340.32 359.036V381.872V382.383H317.541" stroke="#1E1E1E" stroke-width="3" stroke-miterlimit="10"/>
<path d="M120.283 382.383H97.5035H96.9941V359.546" stroke="#1E1E1E" stroke-width="3" stroke-miterlimit="10"/>
<path d="M218.658 213.554L216.831 210.379L215.004 207.204H218.658H222.316L220.486 210.379L218.658 213.554Z" fill="white"/>
<path d="M218.658 307.286L220.486 310.462L222.316 313.637H218.658H215.004L216.831 310.462L218.658 307.286Z" fill="white"/>
<path d="M265.408 260.422L268.575 258.586L271.739 256.755V260.422V264.086L268.575 262.254L265.408 260.422Z" fill="white"/>
<path d="M171.907 260.422L168.743 262.254L165.576 264.086V260.422V256.755L168.743 258.586L171.907 260.422Z" fill="white"/>
<path d="M210.588 156.272H217.059H226.726" stroke="#1E1E1E" stroke-width="2" stroke-miterlimit="10"/>
<path d="M211.887 121.15H217.317H225.427" stroke="#1E1E1E" stroke-width="2" stroke-miterlimit="10"/>
<path d="M214.49 102.758H217.831H222.825" stroke="#1E1E1E" stroke-width="2" stroke-miterlimit="10"/>
<path d="M215.789 84.9171H218.089H221.525" stroke="#1E1E1E" stroke-width="2" stroke-miterlimit="10"/>
<path d="M218.656 156.272V73.708" stroke="#1E1E1E" stroke-width="2" stroke-miterlimit="10"/>
<path d="M226.742 364.498H220.267H210.6" stroke="#1E1E1E" stroke-width="2" stroke-miterlimit="10"/>
<path d="M225.438 400.175H220.012H211.898" stroke="#1E1E1E" stroke-width="2" stroke-miterlimit="10"/>
<path d="M222.841 418.012H219.496H214.502" stroke="#1E1E1E" stroke-width="2" stroke-miterlimit="10"/>
<path d="M221.537 435.853H219.237H215.801" stroke="#1E1E1E" stroke-width="2" stroke-miterlimit="10"/>
<path d="M218.668 364.498V447.062" stroke="#1E1E1E" stroke-width="2" stroke-miterlimit="10"/>
<path d="M322.51 252.325V258.812V268.504" stroke="#1E1E1E" stroke-width="2" stroke-miterlimit="10"/>
<path d="M357.301 253.628V259.071V267.202" stroke="#1E1E1E" stroke-width="2" stroke-miterlimit="10"/>
<path d="M375.891 256.237V259.586V264.593" stroke="#1E1E1E" stroke-width="2" stroke-miterlimit="10"/>
<path d="M393.686 257.539V259.845V263.29" stroke="#1E1E1E" stroke-width="2" stroke-miterlimit="10"/>
<path d="M322.51 260.415H404.867" stroke="#1E1E1E" stroke-width="2" stroke-miterlimit="10"/>
<path d="M114.805 268.519V262.028V252.336" stroke="#1E1E1E" stroke-width="2" stroke-miterlimit="10"/>
<path d="M80.5059 267.213V261.769V253.639" stroke="#1E1E1E" stroke-width="2" stroke-miterlimit="10"/>
<path d="M61.4258 264.604V261.255V256.248" stroke="#1E1E1E" stroke-width="2" stroke-miterlimit="10"/>
<path d="M43.6289 263.301V260.996V257.55" stroke="#1E1E1E" stroke-width="2" stroke-miterlimit="10"/>
<path d="M114.805 260.426H32.4473" stroke="#1E1E1E" stroke-width="2" stroke-miterlimit="10"/>
<path d="M244.026 282.593C244.026 287.708 239.885 291.859 234.784 291.859H198.59C193.488 291.859 189.348 287.708 189.348 282.593V253.778C189.348 248.664 193.488 244.513 198.59 244.513H234.784C239.885 244.513 244.026 248.664 244.026 253.778V282.593Z" stroke="#1E1E1E" stroke-width="4" stroke-miterlimit="10" stroke-linecap="round"/>
<path d="M201.16 244.513V237.42C201.16 228.822 208.11 221.855 216.686 221.855C225.262 221.855 232.212 228.826 232.212 237.42V244.513" stroke="#1E1E1E" stroke-width="4" stroke-miterlimit="10" stroke-linecap="round"/>
<path d="M224.504 266.009C224.504 270.338 221.005 273.846 216.687 273.846C212.368 273.846 208.869 270.338 208.869 266.009C208.869 261.68 212.368 258.172 216.687 258.172C221.005 258.172 224.504 261.68 224.504 266.009Z" stroke="#1E1E1E" stroke-width="4" stroke-miterlimit="10" stroke-linecap="round"/>
<path d="M216.688 273.846V283.293" stroke="#1E1E1E" stroke-width="4" stroke-miterlimit="10" stroke-linecap="round"/>
<g filter="url(#filter1_d_837_5161)">
<ellipse cx="85.0511" cy="214.182" rx="34.9143" ry="35.0019" fill="#5BCDE6"/>
</g>
<path d="M85.7684 236.472L90.1089 234.206C99.8599 229.118 105.938 219.251 105.938 208.519V197.684C105.938 196.84 105.248 196.14 104.377 196.119C94.1185 195.849 87.7539 192.98 85.6609 191.87C85.1838 191.618 84.6075 191.618 84.1304 191.87C82.0346 192.98 75.6727 195.851 65.4143 196.119C64.5457 196.142 63.8535 196.84 63.8535 197.684V208.519C63.8535 219.251 69.9341 229.116 79.6823 234.206L84.0228 236.472C84.5661 236.754 85.2224 236.754 85.7657 236.472H85.7684Z" fill="white"/>
<g filter="url(#filter2_d_837_5161)">
<ellipse cx="428.142" cy="314.521" rx="27.9315" ry="28.0016" fill="#85B880"/>
</g>
<path d="M439.758 301.931L422.832 318.921L416.478 312.558L412.244 316.807L418.603 323.169L422.84 327.409L443.996 306.171L439.758 301.931Z" fill="white"/>
<g filter="url(#filter3_d_837_5161)">
<ellipse cx="95.2927" cy="74.1747" rx="58.029" ry="58.1747" fill="#8512e0"/>
</g>
<path d="M113.029 105.682H74.6895V104.338C74.6895 101.327 77.9891 98.3751 80.938 98.3458H106.692C109.382 98.1532 113.033 101.273 113.033 103.965V105.682H113.029Z" fill="white"/>
<path fill-rule="evenodd" clip-rule="evenodd" d="M59.4071 42.5081L127.619 42.4579C128.521 42.5458 129.377 43.6429 129.331 44.5473V90.8799C129.294 92.1947 128.266 93.1703 126.967 93.2415H102.374C102.424 94.5772 101.647 95.7916 100.282 96.0177C98.2935 95.8909 96.1923 95.9703 94.0913 96.0497C91.7516 96.1382 89.412 96.2266 87.2289 96.0302C86.285 95.9465 85.2951 95.1174 85.0988 94.1753C85.0769 94.0711 85.0768 93.9491 85.0767 93.8282C85.0764 93.5558 85.0761 93.2892 84.8273 93.2457H60.468C59.4572 93.1661 58.7054 92.7725 58.2752 91.8262C58.1744 82.2185 58.1891 72.5971 58.2039 62.9758C58.2135 56.646 58.2232 50.3162 58.2 43.9904C58.1917 43.4754 58.9435 42.6295 59.4071 42.5081ZM124.474 86.8433C125.113 86.86 125.301 86.3283 125.351 85.7755L125.355 85.7713C125.326 80.7477 125.339 75.7196 125.352 70.6912C125.373 62.8106 125.393 54.9295 125.251 47.0639C125.241 47.0406 125.23 47.0156 125.22 46.9897C125.173 46.8759 125.12 46.7453 125.042 46.6703C124.9 46.5363 124.582 46.4525 124.382 46.4525H63.2498C62.5356 46.5195 62.3351 46.8378 62.2766 47.5203V85.7755C62.3225 86.3283 62.5147 86.86 63.1537 86.8433H124.474ZM95.7872 91.5331C95.7872 92.5946 94.9289 93.4551 93.8701 93.4551C92.8112 93.4551 91.9529 92.5946 91.9529 91.5331C91.9529 90.4717 92.8112 89.6112 93.8701 89.6112C94.9289 89.6112 95.7872 90.4717 95.7872 91.5331Z" fill="white"/>
<defs>
<filter id="filter0_f_837_5161" x="23.2793" y="0.768616" width="594" height="588" filterUnits="userSpaceOnUse" color-interpolation-filters="sRGB">
<feFlood flood-opacity="0" result="BackgroundImageFix"/>
<feBlend mode="normal" in="SourceGraphic" in2="BackgroundImageFix" result="shape"/>
<feGaussianBlur stdDeviation="75" result="effect1_foregroundBlur_837_5161"/>
</filter>
<filter id="filter1_d_837_5161" x="24.1367" y="163.18" width="121.828" height="122.004" filterUnits="userSpaceOnUse" color-interpolation-filters="sRGB">
<feFlood flood-opacity="0" result="BackgroundImageFix"/>
<feColorMatrix in="SourceAlpha" type="matrix" values="0 0 0 0 0 0 0 0 0 0 0 0 0 0 0 0 0 0 127 0" result="hardAlpha"/>
<feOffset dy="10"/>
<feGaussianBlur stdDeviation="13"/>
<feComposite in2="hardAlpha" operator="out"/>
<feColorMatrix type="matrix" values="0 0 0 0 0 0 0 0 0 0.501961 0 0 0 0 0.501961 0 0 0 0.2 0"/>
<feBlend mode="normal" in2="BackgroundImageFix" result="effect1_dropShadow_837_5161"/>
<feBlend mode="normal" in="SourceGraphic" in2="effect1_dropShadow_837_5161" result="shape"/>
</filter>
<filter id="filter2_d_837_5161" x="380.211" y="286.52" width="95.8633" height="96.0031" filterUnits="userSpaceOnUse" color-interpolation-filters="sRGB">
<feFlood flood-opacity="0" result="BackgroundImageFix"/>
<feColorMatrix in="SourceAlpha" type="matrix" values="0 0 0 0 0 0 0 0 0 0 0 0 0 0 0 0 0 0 127 0" result="hardAlpha"/>
<feOffset dy="20"/>
<feGaussianBlur stdDeviation="10"/>
<feComposite in2="hardAlpha" operator="out"/>
<feColorMatrix type="matrix" values="0 0 0 0 0.246528 0 0 0 0 0.833333 0 0 0 0 0.370349 0 0 0 0.2 0"/>
<feBlend mode="normal" in2="BackgroundImageFix" result="effect1_dropShadow_837_5161"/>
<feBlend mode="normal" in="SourceGraphic" in2="effect1_dropShadow_837_5161" result="shape"/>
</filter>
<filter id="filter3_d_837_5161" x="17.2637" y="6" width="156.059" height="156.349" filterUnits="userSpaceOnUse" color-interpolation-filters="sRGB">
<feFlood flood-opacity="0" result="BackgroundImageFix"/>
<feColorMatrix in="SourceAlpha" type="matrix" values="0 0 0 0 0 0 0 0 0 0 0 0 0 0 0 0 0 0 127 0" result="hardAlpha"/>
<feOffset dy="10"/>
<feGaussianBlur stdDeviation="10"/>
<feComposite in2="hardAlpha" operator="out"/>
<feColorMatrix type="matrix" values="0 0 0 0 1 0 0 0 0 0.419608 0 0 0 0 0.419608 0 0 0 0.2 0"/>
<feBlend mode="normal" in2="BackgroundImageFix" result="effect1_dropShadow_837_5161"/>
<feBlend mode="normal" in="SourceGraphic" in2="effect1_dropShadow_837_5161" result="shape"/>
</filter>
</defs>
</svg>
