<svg width="683" height="400" viewBox="0 0 683 400" fill="none" xmlns="http://www.w3.org/2000/svg">
<path opacity="0.25" d="M618.346 228.115C617.44 227.669 616.345 228.061 615.912 228.967L614.046 232.807C611.396 232.09 608.678 231.739 605.974 231.739L605.217 227.493C605.041 226.506 604.095 225.844 603.094 226.02L595.902 227.304C594.915 227.48 594.252 228.426 594.428 229.427L595.185 233.672C592.67 234.605 590.263 235.89 588.019 237.512L584.896 234.511C584.166 233.808 583.017 233.835 582.313 234.565L577.243 239.838C576.54 240.568 576.567 241.731 577.297 242.434L580.434 245.449C579.69 246.557 579.028 247.693 578.433 248.896C577.811 250.154 577.311 251.438 576.892 252.75L572.579 252.155C571.578 252.02 570.659 252.709 570.524 253.723L569.523 260.97C569.388 261.971 570.077 262.89 571.078 263.025L575.35 263.62C575.472 266.351 575.945 269.028 576.77 271.624L572.971 273.652C572.078 274.139 571.74 275.234 572.227 276.127L575.675 282.576C576.148 283.468 577.257 283.806 578.149 283.32L581.948 281.292C582.8 282.373 583.72 283.414 584.734 284.388C585.707 285.321 586.735 286.172 587.803 286.957L585.937 290.796C585.491 291.702 585.869 292.797 586.789 293.244L593.36 296.434C594.279 296.881 595.361 296.502 595.807 295.583L597.659 291.77C600.309 292.514 603.04 292.879 605.758 292.892L606.502 297.07C606.677 298.057 607.624 298.719 608.624 298.544L615.817 297.259C616.818 297.083 617.48 296.123 617.291 295.136L616.561 291.013C619.103 290.066 621.55 288.782 623.808 287.146L626.823 290.039C627.553 290.729 628.702 290.715 629.405 289.985L634.475 284.726C635.179 283.996 635.152 282.833 634.421 282.13L631.42 279.236C632.164 278.114 632.853 276.951 633.448 275.748C634.07 274.477 634.584 273.166 635.016 271.854L639.14 272.422C640.141 272.557 641.06 271.868 641.195 270.867L642.196 263.62C642.331 262.62 641.628 261.7 640.641 261.565L636.517 260.997C636.395 258.239 635.909 255.521 635.057 252.898L638.748 250.938C639.64 250.451 639.978 249.356 639.492 248.464L636.044 242.014C635.571 241.122 634.462 240.784 633.57 241.271L629.838 243.258C629.013 242.217 628.121 241.217 627.147 240.27C626.12 239.283 625.052 238.405 623.929 237.58L625.782 233.767C626.214 232.848 625.836 231.766 624.93 231.32L618.346 228.129V228.115ZM629.419 273.828C623.145 286.686 607.61 292.027 594.752 285.74C581.894 279.453 576.54 263.931 582.841 251.06C589.128 238.188 604.663 232.861 617.521 239.148C630.392 245.435 635.719 260.957 629.432 273.828H629.419ZM613.532 247.287C605.163 243.191 595.063 246.666 590.98 255.035C586.883 263.404 590.358 273.504 598.727 277.587C607.097 281.684 617.196 278.209 621.28 269.84C625.376 261.47 621.901 251.371 613.532 247.274V247.287ZM616.426 267.474C613.654 273.166 606.786 275.518 601.093 272.747C595.401 269.975 593.049 263.106 595.82 257.414C598.592 251.722 605.46 249.37 611.153 252.141C616.845 254.927 619.197 261.781 616.412 267.474H616.426Z" fill="#8512E0"/>
<g opacity="0.25">
<path d="M612.796 172.141C612.796 172.614 612.728 173.073 612.58 173.52L609.362 183.511C608.591 185.891 606.036 187.189 603.67 186.432L599.438 185.066C597.896 187.716 596.098 190.204 594.07 192.475L596.693 196.072C598.113 198.005 597.653 200.966 595.706 202.399L587.229 208.592C586.255 209.308 585.066 209.592 583.862 209.403C582.659 209.214 581.618 208.578 580.901 207.591L578.238 203.941C575.439 205.171 572.546 206.118 569.585 206.767V211.296C569.585 213.784 567.57 215.812 565.096 215.839L554.59 215.866C553.387 215.866 552.251 215.406 551.386 214.554C550.534 213.703 550.061 212.567 550.061 211.364V206.78C548.574 206.456 547.141 206.077 545.775 205.631C544.369 205.185 542.936 204.63 541.435 203.968L538.731 207.713C537.271 209.728 534.445 210.187 532.417 208.727L523.912 202.575C521.965 201.169 521.479 198.222 522.898 196.261L525.616 192.502C523.601 190.258 521.83 187.811 520.302 185.201L515.881 186.648C513.515 187.419 510.96 186.134 510.175 183.768L506.903 173.79C506.133 171.478 507.471 168.842 509.783 168.084L514.245 166.624C513.907 163.474 513.894 160.77 514.218 157.62L509.756 156.173C507.431 155.416 506.092 152.82 506.836 150.494L510.054 140.489C510.419 139.34 511.217 138.407 512.298 137.853C513.366 137.298 514.597 137.204 515.746 137.569L520.194 139.002C521.722 136.379 523.48 133.932 525.467 131.674L522.722 127.929C521.303 125.982 521.763 123.021 523.696 121.601L532.173 115.409C534.188 113.935 537.014 114.381 538.487 116.382L541.219 120.127C543.99 118.897 546.87 117.923 549.804 117.261V112.677C549.804 110.19 551.819 108.162 554.293 108.148L564.798 108.121C566.002 108.121 567.137 108.581 567.989 109.432C568.841 110.284 569.314 111.42 569.314 112.623V117.153C570.883 117.491 572.397 117.883 573.857 118.356C575.196 118.789 576.561 119.302 577.994 119.938L580.644 116.274C581.347 115.3 582.402 114.651 583.592 114.462C584.782 114.273 585.985 114.557 586.958 115.26L595.476 121.412C596.653 122.25 597.356 123.629 597.356 125.076C597.356 126.036 597.058 126.942 596.504 127.726L593.908 131.322C595.95 133.594 597.775 136.068 599.33 138.718L603.535 137.339C605.901 136.568 608.456 137.866 609.24 140.219L612.512 150.197C613.269 152.536 611.944 155.132 609.632 155.902L605.427 157.282C605.765 160.486 605.779 163.231 605.441 166.448L609.659 167.814C611.539 168.422 612.796 170.153 612.796 172.114V172.141ZM586.823 189.798L587.837 188.744C590.23 186.256 592.272 183.417 593.935 180.334L594.625 179.05L601.263 181.186C601.615 181.307 601.993 181.105 602.115 180.753L605.103 171.343C605.103 171.099 604.954 170.802 604.63 170.707L597.991 168.571L598.18 167.124C598.681 163.352 598.667 160.445 598.153 156.714L597.951 155.267L604.576 153.104C604.9 152.996 605.035 152.712 605.035 152.468L601.993 143.071C601.871 142.72 601.493 142.531 601.141 142.639L594.53 144.802L593.84 143.518C592.177 140.449 590.109 137.636 587.688 135.121L586.674 134.08L590.758 128.415C590.866 128.267 590.879 128.131 590.879 128.023C590.879 127.929 590.852 127.658 590.595 127.482L582.754 121.817C582.551 121.669 582.361 121.682 582.253 121.696C582.145 121.709 581.956 121.777 581.821 121.966L577.697 127.672L576.385 127.05C574.695 126.252 573.14 125.63 571.667 125.157C570.031 124.63 568.3 124.21 566.515 123.899L565.082 123.643V116.571C565.069 116.328 564.934 116.166 564.866 116.098C564.798 116.017 564.636 115.895 564.393 115.909L554.726 115.936C554.347 115.936 554.05 116.247 554.05 116.612V123.71L552.643 123.981C549.277 124.616 545.991 125.725 542.868 127.239L541.557 127.874L537.325 122.088C537.108 121.79 536.689 121.723 536.392 121.939L528.59 127.645C528.104 127.996 528.225 128.28 528.442 128.591L532.674 134.378L531.673 135.432C529.32 137.907 527.306 140.719 525.67 143.775L524.98 145.059L518.139 142.855C517.909 142.774 517.72 142.855 517.625 142.896C517.531 142.95 517.368 143.058 517.287 143.288L514.326 152.495C514.313 152.941 514.434 153.239 514.759 153.334L521.627 155.551L521.438 156.998C520.951 160.689 520.965 163.555 521.465 167.26L521.654 168.706L514.813 170.951C514.489 171.059 514.353 171.343 514.353 171.586L517.409 180.983C517.517 181.335 517.896 181.524 518.261 181.402L525.075 179.171L525.765 180.456C527.401 183.484 529.442 186.283 531.822 188.771L532.836 189.825L528.644 195.626C528.428 195.923 528.306 196.207 528.793 196.559L536.635 202.224C536.933 202.44 537.352 202.372 537.568 202.075L541.759 196.288L543.071 196.924C544.801 197.748 546.397 198.384 547.952 198.898C549.52 199.398 551.129 199.803 552.873 200.114L554.306 200.371V207.47C554.32 207.713 554.455 207.875 554.523 207.943C554.59 208.01 554.753 208.146 554.996 208.132L564.677 208.105C565.042 208.105 565.339 207.808 565.339 207.429L565.312 200.358L566.745 200.087C570.125 199.465 573.438 198.384 576.588 196.87L577.9 196.234L582.064 201.926C582.199 202.116 582.402 202.183 582.497 202.197C582.605 202.224 582.808 202.224 582.997 202.075L590.798 196.369C591.285 196.018 591.163 195.734 590.947 195.423L586.823 189.771V189.798ZM583.403 162.081C583.403 174.885 572.992 185.296 560.174 185.296C547.357 185.296 536.946 174.885 536.946 162.081C536.946 149.277 547.37 138.853 560.174 138.853C572.978 138.853 583.403 149.277 583.403 162.081ZM543.72 162.081C543.72 171.154 551.102 178.536 560.174 178.536C569.247 178.536 576.629 171.154 576.629 162.081C576.629 153.009 569.247 145.627 560.174 145.627C551.102 145.627 543.72 153.009 543.72 162.081Z" fill="#8512E0"/>
</g>
<path opacity="0.25" d="M100.451 117.599C45.2471 117.599 0.33197 162.514 0.33197 217.718C0.33197 272.922 45.2471 317.837 100.451 317.837C155.655 317.837 200.571 272.922 200.571 217.718C200.571 162.514 155.655 117.599 100.451 117.599ZM48.5055 217.123C48.5055 204.806 50.4389 193.003 53.9813 182.051H95.8813V253.385H54.3869C50.5877 242.109 48.5055 229.887 48.5055 217.123ZM141.08 172.911H105.035V128.645C120.61 139.002 133.225 154.429 141.08 172.911ZM95.8813 127.077V172.911H57.3885C65.6495 153.469 79.1835 137.406 95.8813 127.077ZM95.8813 262.539V307.143C79.5351 297.029 66.2174 281.427 57.9158 262.539H95.8813ZM105.035 262.539H140.567C132.684 280.48 120.272 295.447 105.035 305.574V262.539ZM105.035 253.385V182.051H144.501C148.043 193.003 149.977 204.806 149.977 217.123C149.977 229.44 147.895 242.109 144.095 253.385H105.035ZM154.019 182.051H184.143C188.835 193.003 191.431 205.063 191.431 217.718C191.431 230.373 188.835 242.434 184.143 253.385H153.668C157.17 242.001 159.13 229.819 159.13 217.123C159.13 204.427 157.318 193.097 154.033 182.051H154.019ZM184.116 182.011C183.454 180.483 182.751 178.955 182.007 177.468C182.751 178.968 183.454 180.483 184.116 182.011ZM181.912 177.265C181.169 175.791 180.398 174.331 179.587 172.911C180.398 174.344 181.169 175.791 181.912 177.265ZM179.573 172.911H150.923C144.19 155.564 133.644 140.489 120.448 128.997C145.758 134.702 167.094 150.967 179.573 172.911ZM77.0878 129.808C64.338 141.192 54.13 155.984 47.5591 172.911H21.3428C33.2544 151.941 53.2647 136.149 77.0878 129.808ZM18.9091 177.468C18.152 178.968 17.4489 180.496 16.7864 182.051H44.4629C41.1774 193.084 39.3656 204.874 39.3656 217.123C39.3656 229.373 41.3126 242.014 44.8144 253.385H16.7864C17.4489 254.94 18.152 256.468 18.9091 257.969C12.8925 245.827 9.48534 232.172 9.48534 217.718C9.48534 203.265 12.8925 189.609 18.9091 177.468ZM21.3293 172.925C20.5181 174.344 19.7474 175.791 19.0038 177.265C19.7339 175.791 20.5046 174.344 21.3293 172.925ZM19.0038 258.185C19.7339 259.659 20.5181 261.105 21.3293 262.539C20.5181 261.105 19.7474 259.672 19.0038 258.185ZM21.3428 262.539H48.0323C54.9548 279.818 65.663 294.799 79.0078 306.129C54.3328 300.139 33.5789 284.077 21.3428 262.539ZM118.582 306.872C132.346 295.461 143.392 280.196 150.464 262.525H179.573C166.783 285.023 144.704 301.572 118.569 306.872H118.582ZM184.116 253.426C183.454 254.967 182.751 256.468 182.007 257.969C182.751 256.468 183.454 254.954 184.116 253.426ZM181.912 258.171C181.169 259.645 180.398 261.105 179.587 262.525C180.398 261.092 181.182 259.645 181.912 258.171Z" fill="#8512E0"/>
<path d="M419.25 352.977V328.749H340.966V352.977C340.966 366.227 331.028 377.125 318.211 378.707V378.91H442.005V378.707C429.187 377.125 419.25 366.227 419.25 352.977Z" fill="#D1D8DB" stroke="#284356" stroke-width="3" stroke-miterlimit="10"/>
<path d="M535.838 115.219H224.38C217.363 115.219 211.684 120.911 211.684 127.915V331.926C211.684 338.943 217.376 344.622 224.38 344.622H535.838C542.855 344.622 548.534 338.943 548.534 331.926V127.915C548.534 120.911 542.855 115.219 535.838 115.219Z" fill="white" stroke="#284356" stroke-width="3" stroke-miterlimit="10"/>
<path d="M380.406 334.238C376.918 334.238 374.078 331.412 374.078 327.91C374.078 324.408 376.918 321.583 380.406 321.583C383.894 321.583 386.733 324.408 386.733 327.91C386.733 331.412 383.908 334.238 380.406 334.238Z" fill="white" stroke="#284356" stroke-width="2" stroke-miterlimit="10"/>
<path d="M532.918 129.605H227.314V297.219H532.918V129.605Z" stroke="#284356" stroke-width="3" stroke-miterlimit="10"/>
<path opacity="0.5" d="M301.191 139.002H242.404V147.75H301.191V139.002Z" fill="white"/>
<path opacity="0.5" d="M301.191 241.055H242.404V249.816H301.191V241.055Z" fill="white"/>
<path opacity="0.5" d="M301.191 259.862H242.404V268.623H301.191V259.862Z" fill="white"/>
<path opacity="0.5" d="M301.191 278.669H242.404V287.43H301.191V278.669Z" fill="white"/>
<path d="M464.274 389.415C464.274 393.539 460.935 396.905 456.798 396.905H303.407C299.284 396.905 295.917 393.552 295.917 389.415V386.386C295.917 382.263 299.284 378.91 303.407 378.91H456.798C460.921 378.91 464.274 382.263 464.274 386.386V389.415Z" fill="white" stroke="#284356" stroke-width="3" stroke-miterlimit="10"/>
<g opacity="0.5">
<path d="M410.059 190.028H363.278V236.809H410.059V190.028Z" fill="white"/>
<path d="M410.059 139.002H363.278V185.783H410.059V139.002Z" fill="white"/>
<path d="M357.719 190.028H310.938V236.809H357.719V190.028Z" fill="white"/>
<path d="M461.083 241.055H414.302V287.822H461.083V241.055Z" fill="white"/>
<path d="M513.42 241.055H466.64V287.822H513.42V241.055Z" fill="white"/>
<path d="M357.719 139.002H310.938V185.783H357.719V139.002Z" fill="white"/>
<path d="M513.42 190.028H466.64V236.809H513.42V190.028Z" fill="white"/>
<path d="M513.42 139.002H466.64V185.783H513.42V139.002Z" fill="white"/>
<path d="M410.057 241.055H310.938V287.822H410.057V241.055Z" fill="white"/>
<path d="M461.406 139.002H414.639V236.633H461.406V139.002Z" fill="white"/>
</g>
<path d="M15.6559 396.905H679.668" stroke="#284356" stroke-width="5" stroke-linecap="round" stroke-linejoin="round"/>
<path d="M237.264 252.317L209.912 224.33H112.321V395.945H237.277V252.317H237.264Z" fill="white" stroke="#284356" stroke-width="3" stroke-miterlimit="10"/>
<path d="M235.384 253.155H209.046V225.966L235.384 253.155Z" fill="#8512E0"/>
<path d="M173.557 256.59C154.52 256.671 139.12 272.111 139.12 291.162C139.12 310.212 154.601 325.747 173.692 325.747C192.783 325.747 208.264 310.266 208.264 291.162H173.543V256.59H173.557Z" fill="#D1D8DB"/>
<path d="M179.261 257.049V285.456H207.79C205.37 270.894 193.85 259.415 179.261 257.049Z" fill="#8512E0"/>
<path d="M184.427 339.957H136.781V346.623H184.427V339.957Z" fill="#8512E0"/>
<path d="M210.764 352.288H136.456V358.953H210.764V352.288Z" fill="#8512E0"/>
<path d="M199.096 364.28H136.781V370.946H199.096V364.28Z" fill="#8512E0"/>
<path d="M386.771 88.9779C386.771 92.4257 383.985 95.2109 380.538 95.2109C377.09 95.2109 374.305 92.4257 374.305 88.9779C374.305 85.5302 377.09 82.745 380.538 82.745C383.985 82.745 386.771 85.5302 386.771 88.9779Z" fill="#DDDDDD" stroke="#284356" stroke-width="2" stroke-miterlimit="10"/>
<path d="M401.426 71.6987C400.209 71.3877 399.128 70.4954 399.128 69.2379V54.3654H399.074C398.56 45.2255 391.556 37.8298 382.579 36.7482L384.85 5.5564C384.85 3.04158 382.808 0.999985 380.294 0.999985C377.779 0.999985 375.737 3.04158 375.737 5.5564L378.009 36.7482C369.045 37.8298 362.027 45.2255 361.514 54.3654H361.459V69.2379C361.459 70.5089 360.513 71.5499 359.323 71.9826C357.336 72.6857 354.686 74.4433 354.686 78.8105V84.5837C354.686 87.0985 354.902 87.3148 357.417 87.3148H403.143C405.658 87.3148 405.874 87.0985 405.874 84.5837V78.8105C405.874 73.8214 403.36 72.1989 401.399 71.6987H401.426Z" fill="#FFD161" stroke="#284356" stroke-width="2" stroke-miterlimit="10"/>
<path d="M361.433 69.7382H399.196" stroke="#284356" stroke-width="2" stroke-miterlimit="10"/>
<path d="M336.827 88.7886C331.635 85.8817 328.12 80.3113 328.12 73.9296C328.12 68.0752 331.067 62.9104 335.57 59.8548" stroke="#284356" stroke-width="2" stroke-linecap="round" stroke-linejoin="round"/>
<path d="M344.723 82.9343C342.519 80.5682 341.18 77.4044 341.18 73.9296C341.18 70.4548 342.411 67.5615 344.439 65.2359" stroke="#284356" stroke-width="2" stroke-linecap="round" stroke-linejoin="round"/>
<path d="M421.262 88.7886C426.454 85.8817 429.969 80.3113 429.969 73.9296C429.969 68.0752 427.022 62.9104 422.519 59.8548" stroke="#284356" stroke-width="2" stroke-linecap="round" stroke-linejoin="round"/>
<path d="M413.367 82.9343C415.57 80.5682 416.909 77.4044 416.909 73.9296C416.909 70.4548 415.679 67.5615 413.651 65.2359" stroke="#284356" stroke-width="2" stroke-linecap="round" stroke-linejoin="round"/>
<path d="M247.961 72.0753C241.593 72.0753 235.576 73.522 230.168 76.0368C225.544 52.8627 205.087 35.3942 180.548 35.3942C156.008 35.3942 134.591 53.7145 130.63 77.7134C128.575 77.1455 126.411 76.821 124.167 76.821C110.66 76.821 99.722 87.7726 99.722 101.266C99.722 101.699 99.7625 102.104 99.7896 102.537C98.6539 102.388 97.5046 102.294 96.3283 102.294C81.3206 102.294 69.1656 114.462 69.1656 129.456C69.1656 144.451 81.3341 156.633 96.3283 156.633H247.974C271.324 156.633 290.253 137.704 290.253 114.354C290.253 91.004 271.324 72.0753 247.974 72.0753H247.961Z" fill="#EAEDF2" stroke="#284356" stroke-width="3" stroke-miterlimit="10"/>
<path d="M94.7303 326.085H76.9373C73.0569 326.085 69.9067 329.235 69.9067 333.116V347.393C69.9067 351.274 73.0569 354.424 76.9373 354.424H79.3169V363.009H77.8838C76.7075 363.009 75.7475 363.969 75.7475 365.159C75.7475 366.349 76.7075 367.296 77.8838 367.296H79.3169V370.649H77.8838C76.7075 370.649 75.7475 371.609 75.7475 372.785C75.7475 373.961 76.7075 374.935 77.8838 374.935H79.3169V378.112H77.8838C76.7075 378.112 75.7475 379.072 75.7475 380.248C75.7475 381.424 76.7075 382.384 77.8838 382.384H79.3169V387.739C79.3169 391.132 82.0751 393.89 85.4688 393.89H88.8219C90.7553 393.89 92.3372 392.322 92.3372 390.375V354.41H94.7303C98.6107 354.41 101.761 351.26 101.761 347.38V333.102C101.761 329.222 98.6107 326.072 94.7303 326.072V326.085ZM89.7142 336.158C89.7142 337.618 88.5379 338.794 87.0777 338.794H83.995C82.5348 338.794 81.3585 337.618 81.3585 336.158V333.075C81.3585 331.615 82.5348 330.439 83.995 330.439H87.0777C88.5379 330.439 89.7142 331.615 89.7142 333.075V336.158Z" fill="#FFD161" stroke="#284356" stroke-width="2" stroke-miterlimit="10"/>
<path d="M88.0125 356.222V387.252" stroke="#284356" stroke-width="2" stroke-linecap="round" stroke-linejoin="round"/>
<path d="M557.064 26.4436H463.096C457.404 26.4436 452.78 31.0676 452.78 36.7597V92.9104C452.78 98.616 457.404 103.227 463.096 103.227H557.064C562.756 103.227 567.38 98.6025 567.38 92.9104V36.7597C567.38 31.0676 562.77 26.4436 557.064 26.4436Z" fill="white"/>
<path d="M557.064 26.4436H463.096C457.404 26.4436 452.78 31.0676 452.78 36.7597V92.9104C452.78 98.616 457.404 103.227 463.096 103.227H557.064C562.756 103.227 567.38 98.6025 567.38 92.9104V36.7597C567.38 31.0676 562.77 26.4436 557.064 26.4436Z" stroke="#284356" stroke-width="2" stroke-miterlimit="10"/>
<path d="M566.216 72.4809H454.064V87.9349H566.216V72.4809Z" fill="#8512E0"/>
<path d="M244.498 126.144C244.498 131.444 240.199 135.73 234.912 135.73H115.256C109.956 135.73 105.67 131.444 105.67 126.144C105.67 120.844 109.956 116.558 115.256 116.558H234.912C240.212 116.558 244.498 120.857 244.498 126.144Z" fill="white" stroke="#284356" stroke-width="2" stroke-miterlimit="10"/>
<path d="M131.143 125.833C131.143 128.591 128.898 130.835 126.14 130.835C123.382 130.835 121.137 128.591 121.137 125.833C121.137 123.075 123.382 120.83 126.14 120.83C128.898 120.83 131.143 123.075 131.143 125.833Z" fill="#284356"/>
<path d="M153.707 125.833C153.707 128.591 151.462 130.835 148.704 130.835C145.946 130.835 143.702 128.591 143.702 125.833C143.702 123.075 145.946 120.83 148.704 120.83C151.462 120.83 153.707 123.075 153.707 125.833Z" fill="#284356"/>
<path d="M176.274 125.833C176.274 128.591 174.03 130.835 171.272 130.835C168.514 130.835 166.269 128.591 166.269 125.833C166.269 123.075 168.514 120.83 171.272 120.83C174.03 120.83 176.274 123.075 176.274 125.833Z" fill="#284356"/>
<path d="M198.84 125.833C198.84 128.591 196.596 130.835 193.838 130.835C191.08 130.835 188.835 128.591 188.835 125.833C188.835 123.075 191.08 120.83 193.838 120.83C196.596 120.83 198.84 123.075 198.84 125.833Z" fill="#284356"/>
<path d="M208.371 130.051H230.572" stroke="#284356" stroke-width="2" stroke-linecap="round" stroke-linejoin="round"/>
<path d="M405.311 218.11V177.927C405.311 166.976 396.401 158.052 385.436 158.052C374.471 158.052 365.561 166.976 365.561 177.927V218.11H350.215V177.927C350.215 158.512 366.007 142.706 385.436 142.706C404.865 142.706 420.657 158.512 420.657 177.927V218.11H405.311Z" fill="white" stroke="#284356" stroke-width="2" stroke-miterlimit="10"/>
<path d="M430.825 236.566C430.825 261.633 410.503 281.94 385.436 281.94C360.369 281.94 340.061 261.633 340.061 236.566C340.061 211.499 360.383 191.177 385.436 191.177C410.49 191.177 430.825 211.499 430.825 236.566Z" fill="#8512E0" stroke="#284356" stroke-width="2" stroke-miterlimit="10"/>
<path d="M396.089 229.278C396.089 223.397 391.317 218.624 385.435 218.624C379.554 218.624 374.781 223.397 374.781 229.278C374.781 233.699 377.472 237.485 381.298 239.094L377.012 254.507H393.845L389.559 239.094C393.385 237.485 396.076 233.686 396.076 229.278H396.089Z" fill="white"/>
<path d="M403.459 258.401H583.646C592.259 258.401 599.235 265.391 599.235 273.99V381.411C599.235 390.023 592.245 397 583.646 397H403.459C394.846 397 387.869 390.01 387.869 381.411V273.99C387.869 265.378 394.859 258.388 403.472 258.388L403.459 258.401Z" fill="white" stroke="#284356" stroke-width="3" stroke-miterlimit="10"/>
<path d="M578.982 274.572H414.478V380.843H578.982V274.572Z" fill="white" stroke="#284356" stroke-width="1.5" stroke-miterlimit="10"/>
<path d="M588.283 331.453C586.215 331.453 584.525 329.763 584.525 327.694C584.525 325.625 586.201 323.949 588.283 323.949C590.365 323.949 592.042 325.625 592.042 327.694C592.042 329.763 590.365 331.453 588.283 331.453Z" fill="#8512E0"/>
<path d="M401.917 334.062C398.416 334.062 395.563 331.223 395.563 327.707C395.563 324.192 398.402 321.353 401.917 321.353C405.433 321.353 408.272 324.192 408.272 327.707C408.272 331.223 405.433 334.062 401.917 334.062Z" fill="#8512E0" stroke="#284356" stroke-width="1.5" stroke-miterlimit="10"/>
<path d="M453.431 292.879H425.403V320.907H453.431V292.879Z" fill="#8512E0"/>
<path d="M546.007 326.261H527.213V342.864H546.007V326.261Z" fill="#8512E0"/>
<path d="M567.827 326.261H549.033V342.864H567.827V326.261Z" fill="#8512E0"/>
<path d="M546.007 345.433H527.213V362.036H546.007V345.433Z" fill="#8512E0"/>
<path d="M567.827 345.433H549.033V362.036H567.827V345.433Z" fill="#8512E0"/>
<path d="M568.056 292.879H459.784V295.759H568.056V292.879Z" fill="#EAEDF2"/>
<path d="M568.056 301.221H459.784V304.114H568.056V301.221Z" fill="#EAEDF2"/>
<path d="M568.056 309.563H459.784V312.456H568.056V309.563Z" fill="#EAEDF2"/>
<path d="M568.056 317.919H459.784V320.812H568.056V317.919Z" fill="#EAEDF2"/>
<path d="M521.248 326.261H459.784V329.154H521.248V326.261Z" fill="#EAEDF2"/>
<path d="M521.25 334.603H425.403V337.496H521.25V334.603Z" fill="#EAEDF2"/>
<path d="M521.25 342.959H425.403V345.852H521.25V342.959Z" fill="#EAEDF2"/>
<path d="M521.25 351.301H425.403V354.194H521.25V351.301Z" fill="#EAEDF2"/>
<path d="M521.25 359.643H425.403V362.536H521.25V359.643Z" fill="#EAEDF2"/>
<path d="M442.356 327.68C442.356 328.478 443.1 329.127 444.005 329.127H451.631C452.537 329.127 453.281 328.478 453.281 327.68C453.281 326.883 452.537 326.234 451.631 326.234H444.005C443.1 326.234 442.356 326.883 442.356 327.68Z" fill="#FFD161"/>
<path d="M426.606 327.68C426.606 328.478 427.336 329.127 428.255 329.127H435.881C436.8 329.127 437.531 328.478 437.531 327.68C437.531 326.883 436.787 326.234 435.881 326.234H428.255C427.336 326.234 426.606 326.883 426.606 327.68Z" fill="#EAEDF2"/>
<path d="M257.399 393.836C257.007 393.836 256.615 393.755 256.25 393.606C238.416 385.913 216.148 363.32 212.119 324.976C211.956 323.381 213.106 321.948 214.701 321.758C223.354 320.758 229.885 313.416 229.885 304.696C229.885 301.843 229.209 299.125 227.857 296.61C227.492 295.921 227.41 295.109 227.64 294.352C227.884 293.595 228.397 292.973 229.1 292.622C235.185 289.498 245.028 285.767 257.412 285.767C269.892 285.767 279.708 289.444 285.751 292.514C286.454 292.879 286.982 293.501 287.212 294.258C287.455 295.015 287.374 295.84 286.995 296.529C285.657 299.017 284.94 301.843 284.94 304.696C284.94 313.416 291.471 320.758 300.137 321.758C301.733 321.948 302.882 323.381 302.72 324.976C298.745 363.402 276.463 385.954 258.589 393.606C258.21 393.769 257.804 393.85 257.399 393.85V393.836Z" fill="#8512E0"/>
<g style="mix-blend-mode:multiply">
<path d="M299.485 322.61C290.819 321.61 283.923 313.673 283.923 304.952C283.923 302.1 284.613 298.855 285.965 296.367C286.343 295.677 286.384 295.258 286.33 294.771C286.276 294.298 286.127 293.717 285.411 293.392C279.056 290.431 270.944 286.835 258.275 286.74L257.707 392.849C258.099 392.849 258.397 392.565 258.775 392.43C273.269 386.846 297.809 364.172 301.797 325.03C301.96 323.435 301.081 322.827 299.485 322.637V322.61Z" fill="#8512E0"/>
</g>
</svg>
