<svg width="161" height="33" viewBox="0 0 161 33" fill="none" xmlns="http://www.w3.org/2000/svg">
<path d="M21.4526 14.0759L19.7221 15.4036C18.7673 14.1604 17.6186 13.2205 16.2759 12.584C14.9432 11.9376 13.4763 11.6143 11.875 11.6143C10.1246 11.6143 8.50347 12.037 7.01163 12.8824C5.51979 13.7178 4.36114 14.8466 3.53565 16.2689C2.72012 17.6811 2.31235 19.2724 2.31235 21.0427C2.31235 23.7181 3.22734 25.9509 5.05733 27.7411C6.89726 29.5313 9.21458 30.4264 12.0093 30.4264C15.0825 30.4264 17.6534 29.223 19.7221 26.8161L21.4526 28.129C20.3586 29.5213 18.9911 30.6004 17.3501 31.3662C15.719 32.1221 13.894 32.5 11.875 32.5C8.03603 32.5 5.0076 31.222 2.78973 28.666C0.929911 26.5078 0 23.9021 0 20.8488C0 17.6364 1.12385 14.9362 3.37155 12.7481C5.6292 10.5502 8.45374 9.45117 11.8452 9.45117C13.894 9.45117 15.7438 9.85894 17.3948 10.6745C19.0458 11.4801 20.3984 12.6139 21.4526 14.0759Z" fill="black"/>
<path d="M24.1379 10.0032H26.674L32.2833 19.0437L37.8031 10.0032H40.3393L33.3873 21.4605V31.9481H31.2241V21.4605L24.1379 10.0032Z" fill="black"/>
<path d="M44.0092 10.0032H48.3355C50.076 10.0032 51.4137 10.212 52.3485 10.6297C53.2834 11.0375 54.0194 11.669 54.5565 12.5244C55.1035 13.3797 55.377 14.3295 55.377 15.3738C55.377 16.3484 55.1383 17.2386 54.6609 18.0442C54.1835 18.8398 53.4823 19.4863 52.5574 19.9835C53.7011 20.3714 54.5813 20.8289 55.198 21.356C55.8146 21.8732 56.292 22.5047 56.6301 23.2507C56.9782 23.9866 57.1523 24.7873 57.1523 25.6525C57.1523 27.4129 56.5058 28.9047 55.2129 30.128C53.9299 31.3414 52.2043 31.9481 50.0362 31.9481H44.0092V10.0032ZM46.1574 12.1514V19.1779H47.4106C48.9322 19.1779 50.0511 19.0387 50.7672 18.7602C51.4833 18.4718 52.0502 18.0243 52.4679 17.4176C52.8856 16.801 53.0945 16.1197 53.0945 15.3738C53.0945 14.3693 52.7414 13.5836 52.0353 13.0167C51.3391 12.4398 50.2252 12.1514 48.6935 12.1514H46.1574ZM46.1574 21.3859V29.7998H48.8726C50.4738 29.7998 51.6474 29.6457 52.3933 29.3374C53.1392 29.0191 53.736 28.5268 54.1835 27.8604C54.641 27.1941 54.8697 26.473 54.8697 25.6973C54.8697 24.7226 54.5515 23.8723 53.915 23.1462C53.2785 22.4202 52.4032 21.9229 51.2893 21.6544C50.5434 21.4754 49.2455 21.3859 47.3956 21.3859H46.1574Z" fill="black"/>
<path d="M61.5084 10.0032H74.0846V12.1663H63.7014V19.0288H73.9951V21.177H63.7014V29.7849H73.9951V31.9481H61.5084V10.0032Z" fill="black"/>
<path d="M77.9932 10.0032H82.3643C84.801 10.0032 86.4519 10.1026 87.3172 10.3015C88.6201 10.5999 89.6793 11.2414 90.4948 12.226C91.3103 13.2007 91.7181 14.4041 91.7181 15.8362C91.7181 17.0297 91.4347 18.079 90.8678 18.984C90.3108 19.8891 89.5102 20.5753 88.4659 21.0427C87.4216 21.5002 85.9795 21.734 84.1396 21.7439L92.0314 31.9481H89.3163L81.4394 21.7439H80.1862V31.9481H77.9932V10.0032ZM80.1862 12.1514V19.6106L83.9606 19.6404C85.4226 19.6404 86.5016 19.5012 87.1978 19.2227C87.904 18.9442 88.451 18.5016 88.8389 17.895C89.2367 17.2783 89.4356 16.5921 89.4356 15.8362C89.4356 15.1003 89.2367 14.4339 88.8389 13.8372C88.441 13.2305 87.9189 12.7979 87.2724 12.5393C86.626 12.2807 85.5518 12.1514 84.0501 12.1514H80.1862Z" fill="black"/>
<path d="M97.6521 32.0167V10.0718H101.098C103.097 10.0718 104.559 10.2011 105.484 10.4597C106.797 10.8077 107.841 11.4542 108.617 12.399C109.393 13.3439 109.781 14.4578 109.781 15.7408C109.781 16.5762 109.602 17.337 109.244 18.0233C108.896 18.6996 108.324 19.3361 107.528 19.9328C108.861 20.5594 109.835 21.3451 110.452 22.2899C111.069 23.2248 111.377 24.3337 111.377 25.6167C111.377 26.85 111.059 27.9738 110.422 28.9883C109.786 30.0027 108.965 30.7636 107.961 31.2708C106.956 31.7681 105.569 32.0167 103.798 32.0167H97.6521ZM101.829 14.055V18.6797H102.739C103.754 18.6797 104.505 18.4658 104.992 18.0382C105.489 17.6105 105.738 17.0287 105.738 16.2927C105.738 15.6065 105.504 15.0645 105.037 14.6666C104.569 14.2589 103.858 14.055 102.903 14.055H101.829ZM101.829 22.4093V28.0335H102.874C104.604 28.0335 105.768 27.8147 106.364 27.3771C106.971 26.9395 107.274 26.303 107.274 25.4675C107.274 24.5227 106.921 23.7768 106.215 23.2298C105.509 22.6828 104.336 22.4093 102.695 22.4093H101.829Z" fill="black"/>
<path d="M147.939 10.0718H160.068V14.1892H156.069V32.0167H151.833V14.1892H147.939V10.0718Z" fill="black"/>
<rect x="115.5" y="12" width="27.6667" height="18.9333" rx="9.46667" stroke="black" stroke-width="3"/>
<path d="M133.315 6.61011H126.137C125.682 6.61011 125.313 6.97895 125.313 7.43393V11.218C125.313 11.673 125.682 12.0418 126.137 12.0418H133.315C133.77 12.0418 134.139 11.673 134.139 11.218V7.43393C134.139 6.97895 133.77 6.61011 133.315 6.61011Z" fill="black"/>
<path d="M129.647 5.16664C130.935 5.16664 131.98 4.12198 131.98 2.83332C131.98 1.54466 130.935 0.5 129.647 0.5C128.358 0.5 127.313 1.54466 127.313 2.83332C127.313 4.12198 128.358 5.16664 129.647 5.16664Z" fill="black"/>
<path d="M130.646 1.85645H128.646V7.18978H130.646V1.85645Z" fill="black"/>
<path d="M123.362 23.5348C124.862 23.5348 126.078 22.3188 126.078 20.8189C126.078 19.319 124.862 18.103 123.362 18.103C121.862 18.103 120.646 19.319 120.646 20.8189C120.646 22.3188 121.862 23.5348 123.362 23.5348Z" fill="black"/>
<path d="M136.143 23.5348C137.643 23.5348 138.858 22.3188 138.858 20.8189C138.858 19.319 137.643 18.103 136.143 18.103C134.643 18.103 133.427 19.319 133.427 20.8189C133.427 22.3188 134.643 23.5348 136.143 23.5348Z" fill="black"/>
</svg>
