<svg width="48" height="48" viewBox="0 0 48 48" fill="none" xmlns="http://www.w3.org/2000/svg">
<path d="M24.0001 9.7583C21.1833 9.7583 18.4298 10.5936 16.0878 12.1585C13.7457 13.7234 11.9203 15.9476 10.8424 18.55C9.76447 21.1523 9.48244 24.0159 10.032 26.7785C10.5815 29.5411 11.9379 32.0788 13.9296 34.0705C15.9214 36.0622 18.459 37.4186 21.2216 37.9682C23.9843 38.5177 26.8478 38.2357 29.4501 37.1577C32.0525 36.0798 34.2767 34.2544 35.8417 31.9124C37.4066 29.5703 38.2418 26.8168 38.2418 24.0001C38.2379 20.2241 36.7362 16.6039 34.0662 13.9339C31.3962 11.2639 27.776 9.76221 24.0001 9.7583ZM24.0001 37.1869C21.392 37.1869 18.8424 36.4135 16.6739 34.9645C14.5053 33.5155 12.8151 31.456 11.817 29.0464C10.819 26.6369 10.5578 23.9854 11.0666 21.4274C11.5754 18.8694 12.8314 16.5198 14.6756 14.6756C16.5198 12.8314 18.8695 11.5754 21.4274 11.0666C23.9854 10.5578 26.6369 10.819 29.0464 11.817C31.456 12.8151 33.5155 14.5053 34.9645 16.6739C36.4135 18.8424 37.1869 21.392 37.1869 24.0001C37.1832 27.4963 35.7928 30.8483 33.3205 33.3205C30.8483 35.7928 27.4963 37.1832 24.0001 37.1869Z" fill="black"/>
<path d="M47.4725 23.4725H42.9268C42.7867 18.637 40.8032 14.0381 37.3825 10.6175C33.9619 7.19682 29.363 5.21335 24.5275 5.07323V0.527473C24.5275 0.387578 24.4719 0.253414 24.373 0.154493C24.2741 0.0555729 24.1399 0 24 0C23.8601 0 23.7259 0.0555729 23.627 0.154493C23.5281 0.253414 23.4725 0.387578 23.4725 0.527473V5.07323C18.637 5.21335 14.0381 7.19682 10.6175 10.6175C7.19682 14.0381 5.21335 18.637 5.07323 23.4725H0.527473C0.387578 23.4725 0.253414 23.5281 0.154493 23.627C0.0555729 23.7259 0 23.8601 0 24C0 24.1399 0.0555729 24.2741 0.154493 24.373C0.253414 24.4719 0.387578 24.5275 0.527473 24.5275H5.07323C5.21335 29.363 7.19682 33.9619 10.6175 37.3825C14.0381 40.8032 18.637 42.7867 23.4725 42.9268V47.4725C23.4725 47.6124 23.5281 47.7466 23.627 47.8455C23.7259 47.9444 23.8601 48 24 48C24.1399 48 24.2741 47.9444 24.373 47.8455C24.4719 47.7466 24.5275 47.6124 24.5275 47.4725V42.9268C29.363 42.7867 33.9619 40.8032 37.3825 37.3825C40.8032 33.9619 42.7867 29.363 42.9268 24.5275H47.4725C47.6124 24.5275 47.7466 24.4719 47.8455 24.373C47.9444 24.2741 48 24.1399 48 24C48 23.8601 47.9444 23.7259 47.8455 23.627C47.7466 23.5281 47.6124 23.4725 47.4725 23.4725ZM24 41.8855C20.4626 41.8856 17.0045 40.8368 14.0632 38.8715C11.1219 36.9063 8.82934 34.113 7.47554 30.8449C6.12175 27.5767 5.76748 23.9805 6.45754 20.511C7.14759 17.0415 8.85098 13.8546 11.3523 11.3532C13.8536 8.85181 17.0405 7.14833 20.51 6.45817C23.9795 5.76801 27.5757 6.12217 30.8439 7.47587C34.112 8.82957 36.9054 11.122 38.8707 14.0633C40.836 17.0045 41.885 20.4626 41.885 24C41.8797 28.7418 39.9937 33.2879 36.6408 36.6409C33.2879 39.994 28.7418 41.8801 24 41.8855Z" fill="black"/>
<path d="M30.4135 24.1271C31.1209 24.1263 31.7992 23.8449 32.2994 23.3446C32.7997 22.8444 33.0811 22.1661 33.0819 21.4587C33.0819 21.3188 33.0264 21.1846 32.9274 21.0857C32.8285 20.9868 32.6944 20.9312 32.5545 20.9312C32.4146 20.9312 32.2804 20.9868 32.1815 21.0857C32.0826 21.1846 32.027 21.3188 32.027 21.4587C32.0266 21.8865 31.8564 22.2966 31.5539 22.5991C31.2514 22.9016 30.8413 23.0718 30.4135 23.0722H30.0131V21.9118C30.0124 21.5705 29.8898 21.2408 29.6673 20.982C29.4448 20.7233 29.1372 20.5526 28.7999 20.5008C28.6488 19.826 28.3883 19.1804 28.0287 18.5897L29.8575 16.7736C29.9519 16.6743 30.004 16.5422 30.0027 16.4051C30.0014 16.2681 29.9468 16.1369 29.8505 16.0394C29.7541 15.942 29.6237 15.8858 29.4866 15.8828C29.3496 15.8799 29.2168 15.9303 29.1164 16.0236L27.3953 17.7326C27.2993 17.6234 27.198 17.5179 27.0935 17.4161C27.0935 17.4029 27.0935 17.3903 27.0935 17.3771C27.0935 16.9708 27.0135 16.5685 26.8581 16.1932C26.7026 15.8179 26.4747 15.4768 26.1874 15.1895C25.9002 14.9023 25.5591 14.6744 25.1838 14.5189C24.8085 14.3635 24.4062 14.2834 23.9999 14.2834C23.5937 14.2834 23.1914 14.3635 22.816 14.5189C22.4407 14.6744 22.0997 14.9023 21.8124 15.1895C21.5251 15.4768 21.2972 15.8179 21.1418 16.1932C20.9863 16.5685 20.9063 16.9708 20.9063 17.3771C20.9063 17.3903 20.9063 17.4029 20.9063 17.4161C20.8008 17.5216 20.7011 17.6271 20.6046 17.7326L18.8834 16.0236C18.782 15.9363 18.6513 15.8908 18.5176 15.8964C18.3839 15.9019 18.2573 15.958 18.1635 16.0533C18.0696 16.1487 18.0155 16.2761 18.0121 16.4098C18.0086 16.5436 18.0561 16.6736 18.145 16.7736L19.9758 18.5913C19.6147 19.1812 19.3526 19.8262 19.1999 20.5008C18.8626 20.5526 18.555 20.7233 18.3325 20.982C18.1101 21.2408 17.9874 21.5705 17.9867 21.9118V23.0722H17.5874C17.1596 23.0718 16.7495 22.9016 16.4469 22.5991C16.1444 22.2966 15.9743 21.8865 15.9739 21.4587C15.9739 21.3188 15.9183 21.1846 15.8194 21.0857C15.7205 20.9868 15.5863 20.9312 15.4464 20.9312C15.3065 20.9312 15.1724 20.9868 15.0734 21.0857C14.9745 21.1846 14.9189 21.3188 14.9189 21.4587C14.9198 22.1661 15.2012 22.8444 15.7015 23.3446C16.2017 23.8449 16.88 24.1263 17.5874 24.1271H17.9867V25.7296C17.2216 25.7487 16.4942 26.0658 15.9594 26.6133C15.4246 27.1608 15.1247 27.8954 15.1236 28.6608C15.1236 28.8007 15.1792 28.9348 15.2781 29.0337C15.377 29.1327 15.5112 29.1882 15.6511 29.1882C15.791 29.1882 15.9251 29.1327 16.0241 29.0337C16.123 28.9348 16.1786 28.8007 16.1786 28.6608C16.1798 28.1756 16.3688 27.7097 16.7058 27.3606C17.0429 27.0116 17.5019 26.8065 17.9867 26.7882V27.9845C17.99 28.6206 18.1006 29.2515 18.3138 29.8507C17.7638 29.9584 17.2683 30.2536 16.9117 30.6859C16.5551 31.1182 16.3596 31.6608 16.3584 32.2212V32.7181C16.3584 32.858 16.414 32.9921 16.5129 33.0911C16.6118 33.19 16.746 33.2456 16.8859 33.2456C17.0258 33.2456 17.16 33.19 17.2589 33.0911C17.3578 32.9921 17.4134 32.858 17.4134 32.7181V32.2212C17.4139 31.8606 17.557 31.5149 17.8114 31.2593C18.0659 31.0038 18.411 30.8593 18.7716 30.8572C19.3019 31.7536 20.0753 32.4815 21.0023 32.9565C21.9263 33.4462 22.9542 33.7074 23.9999 33.7182C25.0446 33.7078 26.0716 33.4474 26.9949 32.9586C27.9232 32.4835 28.6976 31.7548 29.2282 30.8572C29.5886 30.859 29.9337 31.0031 30.1883 31.2582C30.4429 31.5133 30.5864 31.8587 30.5875 32.2191V32.716C30.5875 32.8559 30.6431 32.99 30.742 33.089C30.8409 33.1879 30.9751 33.2434 31.115 33.2434C31.2549 33.2434 31.389 33.1879 31.488 33.089C31.5869 32.99 31.6425 32.8559 31.6425 32.716V32.2191C31.6413 31.6587 31.4458 31.1161 31.0892 30.6838C30.7326 30.2515 30.2371 29.9563 29.6871 29.8486C29.9003 29.2494 30.0109 28.6185 30.0142 27.9824V26.7882C30.499 26.8065 30.958 27.0116 31.2951 27.3606C31.6321 27.7097 31.821 28.1756 31.8223 28.6608C31.8223 28.8007 31.8779 28.9348 31.9768 29.0337C32.0757 29.1327 32.2099 29.1882 32.3498 29.1882C32.4897 29.1882 32.6239 29.1327 32.7228 29.0337C32.8217 28.9348 32.8773 28.8007 32.8773 28.6608C32.8761 27.8952 32.5761 27.1604 32.0411 26.6129C31.5061 26.0654 30.7784 25.7484 30.0131 25.7296V24.1271H30.4135ZM20.2965 20.4786C20.5597 19.5154 21.0946 18.6484 21.8373 17.981C22.4407 17.4503 23.2183 17.1601 24.0218 17.1658C24.8254 17.1714 25.5988 17.4725 26.1947 18.0116C26.9229 18.6729 27.4463 19.529 27.7028 20.4786H20.2965ZM23.9999 15.3368C24.3884 15.3375 24.7686 15.4492 25.0957 15.6589C25.4228 15.8685 25.6831 16.1672 25.8461 16.5199C25.2686 16.2511 24.6393 16.1119 24.0023 16.1119C23.3653 16.1119 22.736 16.2511 22.1585 16.5199C22.3211 16.168 22.5807 15.8697 22.9069 15.6601C23.233 15.4506 23.6122 15.3384 23.9999 15.3368ZM19.0417 27.9845V21.9118C19.0417 21.8115 19.0814 21.7154 19.1523 21.6445C19.2231 21.5736 19.3191 21.5337 19.4193 21.5336H23.4724V32.6289C22.7775 32.5492 22.1031 32.3419 21.4833 32.0176C20.7434 31.6367 20.1235 31.0581 19.6924 30.3462C19.2614 29.6343 19.0362 28.8168 19.0417 27.9845ZM26.5165 32.0176C25.8966 32.3419 25.2223 32.5493 24.5274 32.6295V21.5336H28.3558C28.3589 21.5336 28.3621 21.5336 28.3658 21.5336H28.3874H28.5836C28.6839 21.5337 28.7799 21.5736 28.8507 21.6445C28.9215 21.7154 28.9613 21.8115 28.9613 21.9118V27.9845C28.9665 28.8171 28.7408 29.6348 28.3092 30.3468C27.8776 31.0588 27.257 31.6371 26.5165 32.0176Z" fill="black"/>
</svg>
