<svg width="42" height="49" viewBox="0 0 42 49" fill="none" xmlns="http://www.w3.org/2000/svg">
<path d="M25.5578 6.56052C25.8285 7.32486 26.078 8.16883 26.3168 9.04464L29.0557 6.52336C29.3954 6.21019 29.8413 6.02972 30.3031 6.02972C30.5632 6.02972 30.8233 6.08811 31.0568 6.18896C31.7363 6.4809 32.1768 7.15501 32.1662 7.89282V13.5883C32.1662 16.1945 30.5101 18.514 28.0419 19.358C28.1268 20.5205 28.1852 21.667 28.1852 22.7498C28.1852 27.9357 25.9293 31.5079 23.8168 33.1216C22.0068 34.5016 19.4961 34.5016 17.6914 33.1216C15.5788 31.5079 13.3229 27.9357 13.3229 22.7498C13.3229 21.6617 13.3813 20.5205 13.4663 19.358C10.9981 18.514 9.34197 16.1945 9.34197 13.5883V7.89282C9.33666 7.15501 9.77191 6.4809 10.4513 6.18896C10.6902 6.0828 10.945 6.02972 11.2051 6.02972C11.6722 6.02972 12.1127 6.21019 12.4577 6.52336L15.1966 9.03934C15.4355 8.16883 15.685 7.32486 15.9557 6.55521C16.0672 6.23673 16.3697 6.02441 16.7041 6.02441H24.7988C25.1332 6.02441 25.4357 6.23673 25.5472 6.55521L25.5578 6.56052ZM30.5791 13.583V7.88751C30.5791 7.78135 30.5207 7.68581 30.4199 7.64334C30.3243 7.59557 30.2076 7.6168 30.1333 7.69111L26.7574 10.791C27.2776 13.0628 27.6597 15.3664 27.8933 17.686C29.5228 16.9641 30.5685 15.3558 30.5738 13.5776L30.5791 13.583ZM18.6627 31.8583C19.8995 32.8031 21.6193 32.8031 22.856 31.8583C24.6661 30.4729 26.5982 27.3571 26.5982 22.7498C26.561 18.9918 26.1257 15.2443 25.3083 11.5765H16.2052C15.3877 15.2443 14.9578 18.9918 14.9153 22.7498C14.9153 27.3518 16.8474 30.4729 18.6574 31.8583H18.6627ZM11.3855 7.69642C11.3112 7.62211 11.1944 7.60088 11.0989 7.64865C11.0034 7.68581 10.9397 7.78666 10.9397 7.89282V13.5883C10.9397 15.3664 11.9906 16.9747 13.6149 17.6966C13.8537 15.377 14.2359 13.0734 14.7561 10.8016L11.3855 7.70173V7.69642ZM17.2774 7.62211C17.0332 8.35992 16.805 9.15611 16.5926 9.98415H24.9208C24.7032 9.16142 24.4803 8.35461 24.2361 7.62211H17.2774Z" fill="black"/>
<path d="M21.5345 19.2993C22.9305 19.2993 24.1884 20.138 24.7192 21.4278C25.2553 22.7176 24.9581 24.2039 23.9708 25.1912C22.9835 26.1784 21.4973 26.4704 20.2075 25.9396C18.9176 25.4088 18.079 24.1455 18.079 22.7548C18.079 20.8492 19.6236 19.3046 21.5292 19.3046L21.5345 19.2993ZM21.5345 24.6073C22.2829 24.6073 22.9623 24.1561 23.2489 23.4608C23.5356 22.7654 23.3763 21.9692 22.8455 21.4331C22.3147 20.9023 21.5132 20.7431 20.8179 21.0297C20.1225 21.3163 19.6714 21.9958 19.6714 22.7442C19.6714 23.7686 20.5047 24.602 21.5292 24.602L21.5345 24.6073Z" fill="black"/>
<path d="M22.3305 1.51787V4.17185C22.3305 4.61242 21.9749 4.96805 21.5344 4.96805C21.0938 4.96805 20.7382 4.61242 20.7382 4.17185V1.51787C20.7382 1.07731 21.0938 0.72168 21.5344 0.72168C21.9749 0.72168 22.3305 1.07731 22.3305 1.51787Z" fill="black"/>
<path d="M23.3922 4.17201V2.84502C23.3922 2.40446 23.7478 2.04883 24.1884 2.04883C24.629 2.04883 24.9846 2.40446 24.9846 2.84502V4.17201C24.9846 4.61257 24.629 4.96821 24.1884 4.96821C23.7478 4.96821 23.3922 4.61257 23.3922 4.17201Z" fill="black"/>
<path d="M19.6766 2.84502V4.17201C19.6766 4.61257 19.321 4.96821 18.8804 4.96821C18.4399 4.96821 18.0842 4.61257 18.0842 4.17201V2.84502C18.0842 2.40446 18.4399 2.04883 18.8804 2.04883C19.321 2.04883 19.6766 2.40446 19.6766 2.84502Z" fill="black"/>
<path d="M40.298 13.0361H33.0261C33.0421 13.6094 33.0049 14.5542 32.713 15.4725H39.0719V25.0374C39.0719 25.0374 39.0719 25.0587 39.0719 25.0746V39.1619H2.43635V15.4725H8.7316C8.43966 14.5542 8.40781 13.6094 8.41843 13.0361H1.22083C0.54672 13.0361 0 13.5829 0 14.257V40.3828C0 41.0569 0.54672 41.6036 1.22083 41.6036H14.9472V46.2799H12.6966C12.0225 46.2799 11.4758 46.8266 11.4758 47.5007C11.4758 48.1748 12.0225 48.7216 12.6966 48.7216H28.8222C29.4963 48.7216 30.0431 48.1748 30.0431 47.5007C30.0431 46.8266 29.4963 46.2799 28.8222 46.2799H26.5717V41.6036H29.576H40.3034C40.9775 41.6036 41.5242 41.0569 41.5242 40.3828V14.257C41.5242 13.5829 40.9775 13.0361 40.3034 13.0361H40.298ZM24.13 46.2799H17.3836V41.6036H24.13V46.2799Z" fill="black"/>
</svg>
