<svg width="48" height="49" viewBox="0 0 48 49" fill="none" xmlns="http://www.w3.org/2000/svg">
<path d="M29.25 19.5859H48V21.0859H29.25C28.8503 21.0859 28.4738 20.9299 28.1903 20.6472C27.906 20.3644 27.75 19.9872 27.75 19.5859V0.835938H29.25V19.5859ZM19.8105 20.6464C20.094 20.3629 20.25 19.9864 20.25 19.5859V0.835938H18.75V19.5859H0V21.0859H18.75C19.1505 21.0859 19.527 20.9299 19.8105 20.6464ZM28.1895 29.0254C27.906 29.3089 27.75 29.6854 27.75 30.0859V48.8359H29.25V30.0859H48V28.5859H29.25C28.8495 28.5859 28.473 28.7419 28.1895 29.0254ZM18.75 28.5859H0V30.0859H18.75V48.8359H20.25V30.0859C20.25 29.6862 20.094 29.3097 19.8113 29.0262C19.5285 28.7419 19.1513 28.5859 18.75 28.5859ZM0 15.0859C0 13.4314 1.3455 12.0859 3 12.0859C4.3935 12.0859 5.55825 13.0459 5.8935 14.3359H13.5V6.72944C12.21 6.39419 11.25 5.22944 11.25 3.83594C11.25 2.18144 12.5955 0.835938 14.25 0.835938C15.9045 0.835938 17.25 2.18144 17.25 3.83594C17.25 5.22944 16.29 6.39419 15 6.72944V14.3359C15 14.7364 14.844 15.1129 14.5605 15.3964C14.277 15.6799 13.9005 15.8359 13.5 15.8359H5.8935C5.55825 17.1259 4.3935 18.0859 3 18.0859C1.3455 18.0859 0 16.7404 0 15.0859ZM14.25 5.33594C15.0773 5.33594 15.75 4.66319 15.75 3.83594C15.75 3.00869 15.0773 2.33594 14.25 2.33594C13.4227 2.33594 12.75 3.00869 12.75 3.83594C12.75 4.66319 13.4227 5.33594 14.25 5.33594ZM1.5 15.0859C1.5 15.9132 2.17275 16.5859 3 16.5859C3.82725 16.5859 4.5 15.9132 4.5 15.0859C4.5 14.2587 3.82725 13.5859 3 13.5859C2.17275 13.5859 1.5 14.2587 1.5 15.0859ZM30.75 3.83594C30.75 2.18144 32.0955 0.835938 33.75 0.835938C35.4045 0.835938 36.75 2.18144 36.75 3.83594C36.75 5.22944 35.7907 6.39419 34.5 6.72944V14.3359H42.1065C42.4417 13.0459 43.6065 12.0859 45 12.0859C46.6545 12.0859 48 13.4314 48 15.0859C48 16.7404 46.6545 18.0859 45 18.0859C43.6065 18.0859 42.4417 17.1259 42.1065 15.8359H34.5C34.1003 15.8359 33.7238 15.6799 33.4403 15.3972C33.156 15.1144 33 14.7372 33 14.3359V6.72944C31.7092 6.39419 30.75 5.22944 30.75 3.83594ZM43.5 15.0859C43.5 15.9132 44.1727 16.5859 45 16.5859C45.8273 16.5859 46.5 15.9132 46.5 15.0859C46.5 14.2587 45.8273 13.5859 45 13.5859C44.1727 13.5859 43.5 14.2587 43.5 15.0859ZM32.25 3.83594C32.25 4.66319 32.9227 5.33594 33.75 5.33594C34.5773 5.33594 35.25 4.66319 35.25 3.83594C35.25 3.00869 34.5773 2.33594 33.75 2.33594C32.9227 2.33594 32.25 3.00869 32.25 3.83594ZM48 34.5859C48 36.2404 46.6545 37.5859 45 37.5859C43.6065 37.5859 42.4417 36.6267 42.1065 35.3359H34.5V42.9424C35.7907 43.2777 36.75 44.4424 36.75 45.8359C36.75 47.4904 35.4045 48.8359 33.75 48.8359C32.0955 48.8359 30.75 47.4904 30.75 45.8359C30.75 44.4424 31.7092 43.2777 33 42.9424V35.3359C33 34.9354 33.156 34.5589 33.4395 34.2754C33.723 33.9919 34.0995 33.8359 34.5 33.8359H42.1065C42.4417 32.5452 43.6065 31.5859 45 31.5859C46.6545 31.5859 48 32.9314 48 34.5859ZM33.75 44.3359C32.9227 44.3359 32.25 45.0087 32.25 45.8359C32.25 46.6632 32.9227 47.3359 33.75 47.3359C34.5773 47.3359 35.25 46.6632 35.25 45.8359C35.25 45.0087 34.5773 44.3359 33.75 44.3359ZM46.5 34.5859C46.5 33.7587 45.8273 33.0859 45 33.0859C44.1727 33.0859 43.5 33.7587 43.5 34.5859C43.5 35.4132 44.1727 36.0859 45 36.0859C45.8273 36.0859 46.5 35.4132 46.5 34.5859ZM17.25 45.8359C17.25 47.4904 15.9045 48.8359 14.25 48.8359C12.5955 48.8359 11.25 47.4904 11.25 45.8359C11.25 44.4424 12.21 43.2777 13.5 42.9424V35.3359H5.8935C5.55825 36.6267 4.3935 37.5859 3 37.5859C1.3455 37.5859 0 36.2404 0 34.5859C0 32.9314 1.3455 31.5859 3 31.5859C4.3935 31.5859 5.55825 32.5452 5.8935 33.8359H13.5C13.9012 33.8359 14.2785 33.9919 14.5613 34.2762C14.844 34.5597 15 34.9362 15 35.3359V42.9424C16.29 43.2777 17.25 44.4424 17.25 45.8359ZM4.5 34.5859C4.5 33.7587 3.82725 33.0859 3 33.0859C2.17275 33.0859 1.5 33.7587 1.5 34.5859C1.5 35.4132 2.17275 36.0859 3 36.0859C3.82725 36.0859 4.5 35.4132 4.5 34.5859ZM15.75 45.8359C15.75 45.0087 15.0773 44.3359 14.25 44.3359C13.4227 44.3359 12.75 45.0087 12.75 45.8359C12.75 46.6632 13.4227 47.3359 14.25 47.3359C15.0773 47.3359 15.75 46.6632 15.75 45.8359ZM23.25 22.5859H24.75V21.0859H23.25V22.5859ZM23.25 19.5859H24.75V18.0859H23.25V19.5859ZM23.25 16.5859H24.75V15.0859H23.25V16.5859ZM23.25 34.5859H24.75V33.0859H23.25V34.5859ZM23.25 31.5859H24.75V30.0859H23.25V31.5859ZM23.25 28.5859H24.75V27.0859H23.25V28.5859ZM20.25 25.5859H21.75V24.0859H20.25V25.5859ZM18.75 25.5859V24.0859H17.25V25.5859H18.75ZM15.75 25.5859V24.0859H14.25V25.5859H15.75ZM32.25 24.0859V25.5859H33.75V24.0859H32.25ZM29.25 24.0859V25.5859H30.75V24.0859H29.25ZM27.75 24.0859H26.25V25.5859H27.75V24.0859ZM35.25 25.5859H48V24.0859H35.25V25.5859ZM12.75 24.0859H0V25.5859H12.75V24.0859ZM23.25 48.8359H24.75V36.0859H23.25V48.8359ZM23.25 13.5859H24.75V0.835938H23.25V13.5859Z" fill="black"/>
</svg>
