<svg width="36" height="48" viewBox="0 0 36 48" fill="none" xmlns="http://www.w3.org/2000/svg">
<g clip-path="url(#clip0_80_1640)">
<path d="M18.0923 4.02442C18.5063 4.02442 18.8056 3.73092 18.8106 3.3429C18.8106 2.96483 18.5063 2.66138 18.1272 2.66138C17.7082 2.66138 17.4089 2.95488 17.4089 3.3429C17.4089 3.73092 17.7132 4.02442 18.0923 4.02442Z" fill="black"/>
<path d="M26.0136 25.7833V17.9135C26.0136 17.5354 25.7093 17.2319 25.3302 17.2319H21.6789C21.2998 17.2319 20.9955 17.5354 20.9955 17.9135V18.9482H18.0225C17.6434 18.9482 17.3391 19.2516 17.3391 19.6297V20.5003H14.3661C13.987 20.5003 13.6827 20.8037 13.6827 21.1818V21.9379H10.7098C10.3306 21.9379 10.0264 22.2414 10.0264 22.6194V25.7883C10.0264 26.1663 10.3306 26.4698 10.7098 26.4698H25.3252C25.7044 26.4698 26.0086 26.1663 26.0086 25.7883L26.0136 25.7833ZM13.6927 25.1018H11.4031V23.291H13.6927V25.1018ZM17.3441 25.1018H15.0545V21.8533H17.3441V25.1018ZM20.9955 25.1018H18.7059V20.3062H20.9955V25.1018ZM24.6468 25.1018H22.3573V18.59H24.6468V25.1018Z" fill="black"/>
<path d="M10.9243 18.9333C10.5601 19.0229 10.3356 19.391 10.4304 19.7591C10.5202 20.1223 10.8893 20.3461 11.2585 20.2516C14.017 19.5651 16.4213 18.2667 18.232 16.1326L18.3018 16.6699C18.3467 17.043 18.6909 17.3017 19.06 17.2569C19.4292 17.2121 19.6936 16.8689 19.6487 16.5007L19.3643 14.2771C19.3194 13.904 18.9752 13.6453 18.6061 13.6901L16.3764 13.9736C16.0023 14.0184 15.7429 14.3617 15.7878 14.7298C15.8327 15.1029 16.1769 15.3616 16.546 15.3168L17.2144 15.2322C15.5882 17.1524 13.4184 18.3115 10.9292 18.9333H10.9243Z" fill="black"/>
<path d="M21.2399 37.0857H17.8977C17.5186 37.0857 17.2144 37.3891 17.2144 37.7672C17.2144 38.1453 17.5186 38.4487 17.8977 38.4487H21.2399C21.619 38.4487 21.9232 38.1453 21.9232 37.7672C21.9232 37.3891 21.619 37.0857 21.2399 37.0857Z" fill="black"/>
<path d="M10.7146 29.3203H21.2348C21.6139 29.3203 21.9182 29.0169 21.9182 28.6388C21.9182 28.2607 21.6139 27.9573 21.2348 27.9573H10.7146C10.3355 27.9573 10.0312 28.2607 10.0312 28.6388C10.0312 29.0169 10.3355 29.3203 10.7146 29.3203Z" fill="black"/>
<path d="M21.2399 34.1707H17.8977C17.5186 34.1707 17.2144 34.4741 17.2144 34.8522C17.2144 35.2302 17.5186 35.5337 17.8977 35.5337H21.2399C21.619 35.5337 21.9232 35.2302 21.9232 34.8522C21.9232 34.4741 21.619 34.1707 21.2399 34.1707Z" fill="black"/>
<path d="M10.7198 33.9617C10.3456 33.9617 10.0364 34.2701 10.0364 34.6432V37.9762C10.0364 38.3542 10.3407 38.6577 10.7198 38.6577H14.0619C14.441 38.6577 14.7453 38.3542 14.7453 37.9762V34.6432C14.7453 34.2651 14.441 33.9617 14.0619 33.9617H10.7198ZM13.3785 37.2947H11.4031V35.3247H13.3785V37.2947Z" fill="black"/>
<path d="M21.9233 31.559C21.9233 31.1809 21.619 30.8774 21.2399 30.8774H10.7198C10.3407 30.8774 10.0364 31.1809 10.0364 31.559C10.0364 31.937 10.3407 32.2405 10.7198 32.2405H21.2399C21.619 32.2405 21.9233 31.937 21.9233 31.559Z" fill="black"/>
<path d="M36 41.7423H34.6233V45.0902C34.6233 45.9408 33.9199 46.6423 33.0669 46.6423H2.9231C2.07011 46.6423 1.36677 45.9408 1.36677 45.0902V6.83544C1.36677 5.98478 2.07011 5.28336 2.9231 5.28336H9.33795V8.32782H5.09796C4.71886 8.32782 4.41458 8.63127 4.41458 9.00934V42.9163C4.41458 43.2943 4.71886 43.5978 5.09796 43.5978H30.8921C31.2712 43.5978 31.5754 43.2943 31.5754 42.9163V41.7423H30.2137V42.2397H5.78135V9.68589H9.44271C9.6971 10.3873 10.3655 10.8698 11.1287 10.8698H25.0957C25.8639 10.8698 26.5324 10.3823 26.7818 9.68589H30.2087V41.9711H31.5705V9.00437C31.5705 8.6263 31.2662 8.32285 30.8871 8.32285H26.8815V5.27839H33.0669C33.9199 5.27839 34.6233 5.97981 34.6233 6.83046V41.9661H35.985V6.83544C35.985 5.23361 34.6731 3.92032 33.0619 3.92032H26.7219C26.4376 3.28854 25.8041 2.8657 25.0908 2.8657H21.594C21.4593 2.15931 21.1102 1.52753 20.6213 1.04002C18.6011 -0.974698 15.1592 0.104793 14.6205 2.8657H11.1237C10.4054 2.8657 9.77193 3.29352 9.4876 3.92032H2.9231C1.31689 3.92032 0 5.22864 0 6.83544V45.0902C0 46.692 1.3119 48.0003 2.9231 48.0003H33.0719C34.6781 48.0003 35.995 46.687 35.995 45.0852V43.0655C35.995 43.0655 36.005 43.0655 36.01 43.0655V41.7423H36ZM10.6997 4.65159C10.6997 4.42275 10.8943 4.22377 11.1287 4.22377H15.244C15.6231 4.22377 15.9274 3.92032 15.9274 3.54225C15.9274 2.94032 16.1718 2.39311 16.5709 1.99514C17.9476 0.622152 20.312 1.60215 20.312 3.54225C20.312 3.92032 20.6163 4.22377 20.9954 4.22377H25.1057C25.3302 4.22377 25.5148 4.39788 25.5347 4.63666V9.08396C25.5347 9.31279 25.3402 9.51178 25.1057 9.51178H11.1387C10.9092 9.51178 10.7097 9.31777 10.7097 9.08396V4.65159H10.6997Z" fill="black"/>
</g>
<defs>
<clipPath id="clip0_80_1640">
<rect width="36" height="48" fill="white"/>
</clipPath>
</defs>
</svg>
